<?xml version="1.0" encoding="UTF-8" standalone="no"?>
<!-- Created with Inkscape (http://www.inkscape.org/) -->

<svg
   width="58.207027mm"
   height="30.021198mm"
   viewBox="0 0 58.207027 30.021198"
   version="1.1"
   id="svg622"
   sodipodi:docname="drawing.svg"
   inkscape:version="1.2.2 (b0a84865, 2022-12-01)"
   xmlns:inkscape="http://www.inkscape.org/namespaces/inkscape"
   xmlns:sodipodi="http://sodipodi.sourceforge.net/DTD/sodipodi-0.dtd"
   xmlns="http://www.w3.org/2000/svg"
   xmlns:svg="http://www.w3.org/2000/svg">
  <sodipodi:namedview
     id="namedview624"
     pagecolor="#ffffff"
     bordercolor="#000000"
     borderopacity="0.25"
     inkscape:showpageshadow="2"
     inkscape:pageopacity="0.0"
     inkscape:pagecheckerboard="0"
     inkscape:deskcolor="#d1d1d1"
     inkscape:document-units="mm"
     showgrid="false"
     inkscape:zoom="4.2792955"
     inkscape:cx="103.40487"
     inkscape:cy="80.503906"
     inkscape:window-width="1728"
     inkscape:window-height="1051"
     inkscape:window-x="0"
     inkscape:window-y="38"
     inkscape:window-maximized="1"
     inkscape:current-layer="g2138" />
  <defs
     id="defs619" />
  <g
     inkscape:label="Edge.Cuts"
     inkscape:groupmode="layer"
     id="g2122"
     transform="translate(-0.288224, -0.294424)">
    <path
       class="cls-4"
       d="M 217.08 235.9 L 216.774 235.769 L 216.595 235.719 L 216.519 235.711 L 216.46 235.72 L 212.47 235.72 L 212.333 234.105 L 212.18 232.533 L 212.011 231.005 L 211.827 229.521 L 211.629 228.081 L 211.417 226.686 L 211.191 225.336 L 210.951 224.033 L 210.698 222.777 L 210.432 221.568 L 210.153 220.406 L 209.863 219.293 L 209.561 218.229 L 209.247 217.215 L 208.923 216.25 L 208.587 215.336 L 208.242 214.473 L 207.887 213.662 L 207.522 212.903 L 207.148 212.197 L 206.765 211.544 L 206.374 210.945 L 205.975 210.401 L 205.568 209.911 L 205.154 209.477 L 204.733 209.099 L 204.305 208.778 L 203.871 208.514 L 203.431 208.307 L 202.986 208.159 L 202.535 208.07 L 202.08 208.04 L 197.93 208.05 L 63.82 208.05 L 61.5787 208.08 L 59.75 208.11 L 59.5107 208.124 L 59.273 208.166 L 59.0368 208.235 L 58.8023 208.331 L 58.5695 208.454 L 58.3384 208.603 L 58.1093 208.778 L 57.8821 208.979 L 57.6569 209.205 L 57.4338 209.457 L 57.2129 209.733 L 56.9942 210.033 L 56.5638 210.706 L 56.1431 211.471 L 55.7329 212.328 L 55.3335 213.273 L 54.9458 214.303 L 54.5701 215.415 L 54.2071 216.608 L 53.8574 217.878 L 53.5215 219.222 L 53.2 220.639 L 52.8935 222.124 L 52.6026 223.677 L 52.3279 225.293 L 52.0699 226.97 L 51.8292 228.706 L 51.6065 230.497 L 51.4021 232.342 L 51.2169 234.237 L 51.0512 236.179 L 50.9058 238.167 L 50.7812 240.198 L 50.6779 242.267 L 50.5966 244.374 L 50.5377 246.515 L 50.502 248.688 L 50.49 250.89 L 50.5021 253.093 L 50.5379 255.268 L 50.5968 257.414 L 50.6783 259.528 L 50.7818 261.605 L 50.9067 263.645 L 51.0524 265.643 L 51.2183 267.598 L 51.4038 269.506 L 51.6085 271.364 L 51.8316 273.17 L 52.0726 274.921 L 52.3309 276.614 L 52.6059 278.246 L 52.897 279.814 L 53.2037 281.316 L 53.5254 282.749 L 53.8615 284.11 L 54.2114 285.396 L 54.5745 286.604 L 54.9502 287.732 L 55.338 288.776 L 55.7372 289.734 L 56.1473 290.604 L 56.5678 291.382 L 56.9979 292.065 L 57.2164 292.37 L 57.4372 292.65 L 57.66 292.906 L 57.885 293.136 L 58.1119 293.34 L 58.3408 293.519 L 58.5714 293.67 L 58.8039 293.795 L 59.0381 293.893 L 59.2738 293.963 L 59.5112 294.006 L 59.75 294.02 L 202.01 294.02 L 202.228 294.011 L 202.445 293.986 L 202.661 293.944 L 202.876 293.885 L 203.09 293.81 L 203.302 293.718 L 203.724 293.487 L 204.141 293.192 L 204.552 292.836 L 204.957 292.419 L 205.357 291.942 L 205.75 291.407 L 206.136 290.816 L 206.515 290.169 L 206.887 289.468 L 207.251 288.715 L 207.607 287.909 L 207.955 287.054 L 208.294 286.149 L 208.624 285.196 L 208.944 284.197 L 209.255 283.153 L 209.556 282.065 L 209.846 280.935 L 210.126 279.763 L 210.394 278.551 L 210.651 277.301 L 210.897 276.013 L 211.13 274.689 L 211.352 273.331 L 211.56 271.938 L 211.755 270.514 L 211.937 269.059 L 212.106 267.573 L 212.26 266.06 L 216.99 266.06 L 217.08 266.06 L 217.259 266.042 L 217.436 265.988 L 217.61 265.899 L 217.781 265.777 L 217.95 265.622 L 218.115 265.434 L 218.277 265.215 L 218.435 264.966 L 218.59 264.688 L 218.74 264.381 L 219.028 263.685 L 219.297 262.886 L 219.545 261.991 L 219.771 261.007 L 219.972 259.941 L 220.147 258.801 L 220.295 257.593 L 220.412 256.325 L 220.499 255.003 L 220.552 253.636 L 220.57 252.23 L 220.551 250.895 L 220.496 249.543 L 220.406 248.186 L 220.284 246.836 L 220.131 245.508 L 219.951 244.213 L 219.746 242.964 L 219.516 241.774 L 219.265 240.655 L 218.995 239.621 L 218.708 238.684 L 218.406 237.857 L 218.25 237.488 L 218.091 237.152 L 217.929 236.849 L 217.765 236.582 L 217.599 236.352 L 217.431 236.161 L 217.261 236.01 L 217.09 235.9 L 217.08 235.9"
       id="path232"
       style="display:inline;fill:none;stroke:#1d1d1b;stroke-miterlimit:10"
       transform="matrix(0.340233 0 0 0.345151 -16.72 -71.3381)" />
  </g>
  <g
     inkscape:label="B.Cu"
     inkscape:groupmode="layer"
     id="g2124"
     transform="translate(-0.28822417,-0.29442437)" />
  <g
     inkscape:label="B.Mask"
     inkscape:groupmode="layer"
     id="g2126"
     transform="translate(-0.28822417,-0.29442437)" />
  <g
     inkscape:label="B.Paste"
     inkscape:groupmode="layer"
     id="g2128"
     transform="translate(-0.28822417,-0.29442437)" />
  <g
     inkscape:label="B.SilkS"
     inkscape:groupmode="layer"
     id="g2130"
     transform="translate(-0.28822417,-0.29442437)" />
  <g
     inkscape:label="F.Cu"
     inkscape:groupmode="layer"
     id="g2132"
     transform="translate(-0.28822417,-0.29442437)" />
  <g
     inkscape:label="F.Mask"
     inkscape:groupmode="layer"
     id="g2134"
     transform="translate(-0.28822417,-0.29442437)" />
  <g
     inkscape:label="F.Paste"
     inkscape:groupmode="layer"
     id="g2136"
     transform="translate(-0.28822417,-0.29442437)" />
  <g
     inkscape:label="F.SilkS"
     inkscape:groupmode="layer"
     id="g2138"
     transform="translate(-0.28822417,-0.29442437)">
    <g
       id="g194"
       style="display:inline"
       inkscape:label="Front BATTERY"
       transform="matrix(0.34023279,0,0,0.34515057,-16.720013,-71.338126)">
      <path
         class="cls-1"
         d="m 206.28,264.19 c 0,0 0,-0.01 0,-0.02"
         id="path188"
         style="fill:#ffffff" />
      <path
         class="cls-1"
         d="m 217.31,253.27 c -0.27,0 -0.48,-1.29 -0.48,-2.89 0,-1.6 0.22,-2.89 0.48,-2.89 0.26,0 0.48,1.29 0.48,2.89 0,1.6 -0.22,2.89 -0.48,2.89 z"
         id="path190"
         style="fill:#ffffff" />
      <path
         class="cls-1"
         d="m 208.14,266.07 c -0.95,10.02 -2.96,15.05 -5.29,15.05 -3.24,0 -5.88,-13.42 -5.88,-29.97 0,-16.55 2.63,-29.97 5.88,-29.97 2.18,0 4.07,6.03 5.09,15 h -2.07 c -0.47,-0.89 -0.99,-1.39 -1.53,-1.39 -2.07,0 -3.75,7.1 -3.75,15.85 0,8.75 1.68,17.74 3.75,17.74 0.71,0 1.37,-0.85 1.94,-2.31 l -0.78,-0.02 c -1.88,-0.19 -3.43,-8.23 -3.43,-15.7 h 13.12 c 0.04,4.96 0.98,8.93 2.13,8.93 1.15,0 2.08,-3.97 2.13,-8.93 h 1.12 c 0,-0.11 0,-0.22 0,-0.34 0,-7.59 -1.57,-13.83 -3.49,-13.83 h -8.19 c -1.14,-13.43 -3.77,-22.84 -6.82,-22.84 -4.1,0 -7.43,16.93 -7.43,37.81 0,20.88 3.33,37.81 7.43,37.81 3.21,0 5.95,-8.37 6.98,-22.89 h -0.9 z m 10.34,-15.69 c 0,3.9 -0.53,7.06 -1.18,7.06 -0.65,0 -1.18,-3.16 -1.18,-7.06 0,-3.9 0.53,-7.06 1.18,-7.06 0.65,0 1.18,3.16 1.18,7.06 z"
         id="path192"
         style="fill:#ffffff" />
    </g>
    <g
       id="g156"
       style="display:inline"
       inkscape:label="WICCON.NL"
       transform="matrix(0.34023279,0,0,0.34515057,-16.720013,-71.338126)">
      <path
         class="cls-1"
         d="m 73.29,265.76 c 0.28,0 0.53,0.07 0.76,0.2 0.23,0.14 0.41,0.32 0.55,0.55 0.14,0.23 0.2,0.48 0.2,0.76 0,0.25 -0.05,0.48 -0.16,0.69 -0.11,0.21 -0.25,0.39 -0.44,0.53 0.18,0.14 0.33,0.31 0.44,0.52 0.11,0.21 0.16,0.44 0.16,0.69 0,0.28 -0.07,0.53 -0.2,0.76 -0.14,0.23 -0.32,0.41 -0.55,0.55 -0.23,0.14 -0.48,0.2 -0.76,0.2 H 70.6 v -0.6 h 2.69 c 0.17,0 0.32,-0.04 0.46,-0.12 0.14,-0.08 0.25,-0.19 0.33,-0.33 0.08,-0.14 0.12,-0.29 0.12,-0.46 0,-0.17 -0.04,-0.31 -0.12,-0.45 -0.08,-0.14 -0.18,-0.25 -0.32,-0.33 -0.13,-0.08 -0.28,-0.13 -0.44,-0.14 h -2.73 v -0.61 h 2.69 c 0.17,0 0.32,-0.04 0.46,-0.12 0.14,-0.08 0.25,-0.19 0.33,-0.33 0.08,-0.14 0.12,-0.29 0.12,-0.46 0,-0.17 -0.04,-0.32 -0.12,-0.46 -0.08,-0.14 -0.19,-0.25 -0.33,-0.33 -0.14,-0.08 -0.29,-0.12 -0.46,-0.12 h -2.69 v -0.6 h 2.69 z"
         id="path138"
         style="fill:#ffffff" />
      <path
         class="cls-1"
         d="m 74.8,264.2 v 0.6 h -4.2 v -0.6 z"
         id="path140"
         style="fill:#ffffff" />
      <path
         class="cls-1"
         d="m 74.8,258.79 v 2.71 c 0,0.29 -0.05,0.56 -0.16,0.79 -0.11,0.24 -0.26,0.44 -0.45,0.61 -0.19,0.17 -0.42,0.3 -0.67,0.39 -0.25,0.09 -0.53,0.14 -0.82,0.14 -0.29,0 -0.56,-0.05 -0.81,-0.14 -0.25,-0.09 -0.48,-0.22 -0.67,-0.39 -0.19,-0.17 -0.34,-0.37 -0.45,-0.61 -0.11,-0.24 -0.16,-0.5 -0.16,-0.79 v -2.71 h 0.6 v 2.71 c 0,0.28 0.07,0.51 0.2,0.71 0.13,0.2 0.31,0.35 0.54,0.46 0.23,0.11 0.48,0.16 0.76,0.16 0.28,0 0.53,-0.05 0.75,-0.16 0.22,-0.11 0.41,-0.26 0.54,-0.46 0.14,-0.2 0.2,-0.44 0.2,-0.71 v -2.71 z"
         id="path142"
         style="fill:#ffffff" />
      <path
         class="cls-1"
         d="m 74.8,253.77 v 2.71 c 0,0.29 -0.05,0.56 -0.16,0.79 -0.11,0.24 -0.26,0.44 -0.45,0.61 -0.19,0.17 -0.42,0.3 -0.67,0.39 -0.25,0.09 -0.53,0.14 -0.82,0.14 -0.29,0 -0.56,-0.05 -0.81,-0.14 -0.25,-0.09 -0.48,-0.22 -0.67,-0.39 -0.19,-0.17 -0.34,-0.37 -0.45,-0.61 -0.11,-0.24 -0.16,-0.5 -0.16,-0.79 v -2.71 h 0.6 v 2.71 c 0,0.28 0.07,0.51 0.2,0.71 0.13,0.2 0.31,0.35 0.54,0.46 0.23,0.11 0.48,0.16 0.76,0.16 0.28,0 0.53,-0.05 0.75,-0.16 0.22,-0.11 0.41,-0.26 0.54,-0.46 0.14,-0.2 0.2,-0.44 0.2,-0.71 v -2.71 z"
         id="path144"
         style="fill:#ffffff" />
      <path
         class="cls-1"
         d="m 72.7,248.13 c 0.29,0 0.56,0.05 0.82,0.14 0.25,0.09 0.48,0.22 0.67,0.39 0.19,0.17 0.34,0.37 0.45,0.61 0.11,0.24 0.16,0.5 0.16,0.79 v 1.4 c 0,0.29 -0.05,0.56 -0.16,0.79 -0.11,0.24 -0.26,0.44 -0.45,0.61 -0.19,0.17 -0.42,0.3 -0.67,0.39 -0.25,0.09 -0.53,0.14 -0.82,0.14 -0.29,0 -0.56,-0.05 -0.81,-0.14 -0.25,-0.09 -0.48,-0.22 -0.67,-0.39 -0.19,-0.17 -0.34,-0.37 -0.45,-0.61 -0.11,-0.24 -0.16,-0.5 -0.16,-0.79 v -1.4 c 0,-0.29 0.05,-0.55 0.16,-0.79 0.11,-0.24 0.26,-0.44 0.45,-0.61 0.19,-0.17 0.42,-0.3 0.67,-0.39 0.25,-0.09 0.53,-0.14 0.81,-0.14 z m 0,0.6 c -0.28,0 -0.53,0.05 -0.76,0.16 -0.23,0.11 -0.41,0.26 -0.54,0.46 -0.13,0.2 -0.2,0.44 -0.2,0.71 v 1.4 c 0,0.28 0.07,0.51 0.2,0.71 0.13,0.2 0.31,0.35 0.54,0.46 0.23,0.11 0.48,0.16 0.76,0.16 0.28,0 0.53,-0.05 0.75,-0.16 0.22,-0.11 0.41,-0.26 0.54,-0.46 0.14,-0.2 0.2,-0.44 0.2,-0.71 v -1.4 c 0,-0.28 -0.07,-0.51 -0.2,-0.71 -0.14,-0.2 -0.32,-0.35 -0.54,-0.46 -0.23,-0.11 -0.48,-0.16 -0.75,-0.16 z"
         id="path146"
         style="fill:#ffffff" />
      <path
         class="cls-1"
         d="m 74.8,246.76 v 0.6 h -4.2 v -0.3 c 0,-0.29 0.06,-0.61 0.17,-0.95 0.11,-0.34 0.27,-0.69 0.47,-1.03 0.2,-0.34 0.45,-0.67 0.73,-0.97 0.28,-0.31 0.6,-0.57 0.94,-0.79 H 70.6 v -0.6 h 4.2 v 0.6 c -0.37,0 -0.72,0.07 -1.06,0.22 -0.34,0.15 -0.65,0.35 -0.94,0.6 -0.29,0.25 -0.54,0.52 -0.76,0.83 -0.22,0.3 -0.4,0.61 -0.55,0.92 -0.15,0.31 -0.23,0.6 -0.27,0.88 h 3.58 z"
         id="path148"
         style="fill:#ffffff" />
      <path
         class="cls-1"
         d="m 74.35,240.98 c 0.12,0 0.23,0.04 0.32,0.13 0.09,0.09 0.13,0.19 0.13,0.32 0,0.13 -0.04,0.23 -0.13,0.32 -0.09,0.09 -0.19,0.13 -0.32,0.13 -0.13,0 -0.23,-0.04 -0.32,-0.13 -0.09,-0.09 -0.13,-0.19 -0.13,-0.32 0,-0.13 0.04,-0.23 0.13,-0.32 0.09,-0.09 0.19,-0.13 0.32,-0.13 z"
         id="path150"
         style="fill:#ffffff" />
      <path
         class="cls-1"
         d="m 74.8,239.55 v 0.6 h -4.2 v -0.3 c 0,-0.29 0.06,-0.61 0.17,-0.95 0.11,-0.34 0.27,-0.69 0.47,-1.03 0.2,-0.34 0.45,-0.67 0.73,-0.97 0.28,-0.31 0.6,-0.57 0.94,-0.79 H 70.6 v -0.6 h 4.2 v 0.6 c -0.37,0 -0.72,0.07 -1.06,0.22 -0.34,0.15 -0.65,0.35 -0.94,0.6 -0.29,0.25 -0.54,0.52 -0.76,0.83 -0.22,0.3 -0.4,0.61 -0.55,0.92 -0.15,0.31 -0.23,0.6 -0.27,0.88 h 3.58 z"
         id="path152"
         style="fill:#ffffff" />
      <path
         class="cls-1"
         d="m 74.8,230.48 v 4.01 h -4.2 v -0.6 h 3.6 v -3.41 z"
         id="path154"
         style="fill:#ffffff" />
    </g>
    <g
       id="g162"
       style="display:inline"
       inkscape:label="SOCIAL BATTERY"
       transform="matrix(0.34023279,0,0,0.34515057,-16.720013,-71.338126)">
      <path
         class="cls-1"
         d="m 97.37,213.72 c -0.26,-0.18 -0.58,-0.27 -0.95,-0.27 h -1.86 c -0.37,0 -0.68,0.09 -0.95,0.27 -0.26,0.18 -0.47,0.42 -0.61,0.72 -0.14,0.3 -0.22,0.64 -0.22,1.01 0,0.37 0.07,0.7 0.22,1 0.14,0.3 0.35,0.54 0.61,0.72 0.26,0.18 0.58,0.27 0.95,0.27 h 1.86 c 0.37,0 0.68,-0.09 0.95,-0.27 0.26,-0.18 0.47,-0.42 0.61,-0.72 0.14,-0.3 0.21,-0.64 0.21,-1 0,-0.36 -0.07,-0.7 -0.21,-1.01 -0.14,-0.3 -0.34,-0.54 -0.61,-0.72 z"
         id="path158"
         style="fill:#ffffff" />
      <path
         class="cls-1"
         d="m 73.23,208.11 6.58,11.39 c 1.31,2.27 3.73,3.66 6.35,3.66 h 87.31 c 2.62,0 5.04,-1.4 6.35,-3.66 l 6.58,-11.39 c 0,0 0.24,0 0.65,0 H 73.24 Z m 17.92,9.35 c -0.14,0.24 -0.34,0.44 -0.58,0.58 -0.24,0.14 -0.51,0.22 -0.81,0.22 H 84.9 v -0.8 h 4.86 c 0.22,0 0.41,-0.08 0.57,-0.24 0.15,-0.16 0.23,-0.35 0.23,-0.56 0,-0.21 -0.08,-0.41 -0.23,-0.56 -0.16,-0.16 -0.34,-0.24 -0.57,-0.24 H 86.5 c -0.29,0 -0.56,-0.07 -0.8,-0.22 -0.24,-0.14 -0.44,-0.34 -0.58,-0.58 -0.14,-0.24 -0.22,-0.51 -0.22,-0.8 0,-0.29 0.07,-0.56 0.22,-0.8 0.14,-0.24 0.34,-0.44 0.58,-0.58 0.24,-0.14 0.51,-0.22 0.8,-0.22 h 4.46 v 0.8 H 86.5 c -0.22,0 -0.41,0.08 -0.56,0.24 -0.15,0.16 -0.24,0.35 -0.24,0.56 0,0.21 0.08,0.41 0.24,0.56 0.16,0.15 0.35,0.24 0.56,0.24 h 3.26 c 0.3,0 0.57,0.07 0.81,0.22 0.24,0.14 0.43,0.34 0.58,0.58 0.14,0.24 0.22,0.51 0.22,0.8 0,0.29 -0.07,0.56 -0.22,0.8 z m 7.66,-0.92 c -0.12,0.34 -0.3,0.64 -0.52,0.89 -0.22,0.25 -0.5,0.46 -0.81,0.6 -0.31,0.14 -0.66,0.22 -1.05,0.22 h -1.86 c -0.39,0 -0.74,-0.07 -1.06,-0.22 -0.32,-0.14 -0.59,-0.34 -0.81,-0.6 -0.22,-0.26 -0.4,-0.55 -0.52,-0.89 -0.12,-0.34 -0.18,-0.7 -0.18,-1.09 0,-0.39 0.06,-0.75 0.18,-1.08 0.12,-0.34 0.3,-0.64 0.52,-0.9 0.23,-0.26 0.5,-0.46 0.81,-0.6 0.31,-0.14 0.67,-0.22 1.06,-0.22 h 1.86 c 0.38,0 0.73,0.07 1.05,0.22 0.31,0.14 0.58,0.35 0.81,0.6 0.23,0.26 0.4,0.56 0.52,0.9 0.12,0.34 0.18,0.7 0.18,1.08 0,0.38 -0.06,0.75 -0.18,1.09 z m 7.07,-3.09 h -3.61 c -0.37,0 -0.68,0.09 -0.95,0.27 -0.26,0.18 -0.47,0.42 -0.61,0.72 -0.14,0.3 -0.22,0.64 -0.22,1.01 0,0.37 0.07,0.7 0.22,1 0.14,0.3 0.35,0.54 0.61,0.72 0.26,0.18 0.58,0.27 0.95,0.27 h 3.61 v 0.8 h -3.61 c -0.39,0 -0.74,-0.07 -1.06,-0.22 -0.32,-0.14 -0.59,-0.34 -0.81,-0.6 -0.22,-0.26 -0.4,-0.55 -0.52,-0.89 -0.12,-0.34 -0.18,-0.7 -0.18,-1.09 0,-0.39 0.06,-0.75 0.18,-1.08 0.12,-0.34 0.3,-0.64 0.52,-0.9 0.23,-0.26 0.5,-0.46 0.81,-0.6 0.31,-0.14 0.67,-0.22 1.06,-0.22 h 3.61 v 0.8 z m 1.77,4.8 h -0.8 v -5.6 h 0.8 z m 7.71,0 h -0.8 v -1.6 h -4.47 v -0.8 h 4.47 v -2.4 h -2.87 c -0.36,0 -0.7,0.09 -1,0.27 -0.3,0.18 -0.54,0.42 -0.72,0.72 -0.18,0.3 -0.27,0.64 -0.27,1.01 v 2.8 h -0.8 v -2.8 c 0,-0.38 0.07,-0.75 0.22,-1.08 0.14,-0.34 0.34,-0.64 0.6,-0.9 0.26,-0.26 0.55,-0.46 0.89,-0.6 0.34,-0.14 0.7,-0.22 1.08,-0.22 h 3.67 z m 6.7,0 h -5.35 v -5.6 h 0.8 v 4.8 h 4.55 z m 9.89,-0.79 c -0.14,0.24 -0.34,0.44 -0.58,0.58 -0.24,0.14 -0.51,0.22 -0.8,0.22 h -3.79 v -0.8 h 3.79 c 0.22,0 0.41,-0.08 0.56,-0.24 0.16,-0.16 0.24,-0.35 0.24,-0.56 0,-0.21 -0.08,-0.41 -0.24,-0.56 -0.16,-0.15 -0.35,-0.24 -0.56,-0.24 h -3.79 v -0.8 h 2.99 c 0.22,0 0.41,-0.08 0.56,-0.24 0.16,-0.16 0.24,-0.35 0.24,-0.56 0,-0.21 -0.08,-0.41 -0.24,-0.56 -0.16,-0.16 -0.35,-0.24 -0.56,-0.24 h -3.39 v 4.8 h -0.8 v -5.6 h 4.19 c 0.29,0 0.56,0.07 0.8,0.22 0.24,0.14 0.44,0.34 0.58,0.58 0.14,0.24 0.22,0.51 0.22,0.8 0,0.17 -0.02,0.32 -0.07,0.48 -0.05,0.16 -0.12,0.29 -0.2,0.42 0.31,0.11 0.57,0.3 0.77,0.57 0.2,0.27 0.3,0.59 0.3,0.93 0,0.29 -0.07,0.56 -0.22,0.8 z m 7.51,0.79 h -0.8 v -1.6 h -4.47 v -0.8 h 4.47 v -2.4 h -2.87 c -0.36,0 -0.7,0.09 -1,0.27 -0.3,0.18 -0.54,0.42 -0.72,0.72 -0.18,0.3 -0.27,0.64 -0.27,1.01 v 2.8 H 133 v -2.8 c 0,-0.38 0.07,-0.75 0.22,-1.08 0.14,-0.34 0.34,-0.64 0.6,-0.9 0.26,-0.26 0.55,-0.46 0.89,-0.6 0.34,-0.14 0.7,-0.22 1.08,-0.22 h 3.67 z m 7.22,-4.8 h -2.83 v 4.8 h -0.8 v -4.8 h -2.83 v -0.8 h 6.46 z m 6.62,0 h -2.83 v 4.8 h -0.8 v -4.8 h -2.83 v -0.8 h 6.46 z m 6.55,0 h -4.99 v 4 h 4.99 v 0.8 h -5.79 v -5.6 h 5.79 z m -0.68,1.6 v 0.8 h -3.91 v -0.8 z m 8.14,3.2 h -1.08 l -1.68,-1.6 h -2.46 v -0.79 h 3.22 c 0.22,0 0.43,-0.05 0.61,-0.16 0.18,-0.11 0.33,-0.26 0.43,-0.44 0.11,-0.18 0.16,-0.39 0.16,-0.6 0,-0.21 -0.05,-0.43 -0.16,-0.61 -0.11,-0.18 -0.25,-0.33 -0.43,-0.43 -0.18,-0.11 -0.38,-0.16 -0.61,-0.16 h -3.66 v 4.8 h -0.8 v -5.6 h 4.46 c 0.37,0 0.7,0.09 1.01,0.27 0.3,0.18 0.54,0.42 0.72,0.72 0.18,0.3 0.27,0.64 0.27,1.01 0,0.33 -0.07,0.64 -0.22,0.92 -0.15,0.28 -0.35,0.52 -0.6,0.7 -0.25,0.18 -0.54,0.3 -0.86,0.36 l 1.68,1.62 z m 7.28,-1.6 c 0,0.29 -0.09,0.56 -0.27,0.8 -0.18,0.24 -0.42,0.44 -0.72,0.58 -0.3,0.14 -0.64,0.22 -1.01,0.22 h -4.47 v -0.8 h 4.47 c 0.22,0 0.42,-0.04 0.6,-0.11 0.18,-0.07 0.33,-0.17 0.44,-0.29 0.11,-0.12 0.16,-0.26 0.16,-0.4 v -0.4 h -3.67 c -0.37,0 -0.7,-0.09 -1,-0.27 -0.3,-0.18 -0.54,-0.42 -0.72,-0.72 -0.18,-0.3 -0.27,-0.64 -0.27,-1 v -1.6 h 0.8 v 1.6 c 0,0.22 0.05,0.42 0.16,0.6 0.11,0.18 0.25,0.33 0.44,0.44 0.18,0.11 0.38,0.16 0.6,0.16 h 3.67 v -2.8 h 0.8 v 4 z"
         id="path160"
         style="fill:#ffffff" />
    </g>
    <g
       id="g226"
       style="display:inline"
       inkscape:label="CAT4"
       transform="matrix(0.34023279,0,0,0.34515057,-16.720013,-71.338126)">
      <path
         class="cls-1"
         d="m 147.09,244.98 c -0.22,0 -0.4,0.18 -0.4,0.4 0,0.22 0.18,0.4 0.4,0.4 0.22,0 0.4,-0.18 0.4,-0.4 0,-0.22 -0.18,-0.4 -0.4,-0.4 z"
         id="path218"
         style="fill:#ffffff" />
      <path
         class="cls-1"
         d="m 143.36,244.98 c -0.22,0 -0.4,0.18 -0.4,0.4 0,0.22 0.18,0.4 0.4,0.4 0.22,0 0.4,-0.18 0.4,-0.4 0,-0.22 -0.18,-0.4 -0.4,-0.4 z"
         id="path220"
         style="fill:#ffffff" />
      <path
         class="cls-1"
         d="m 145.97,246.16 c -0.07,-0.02 -0.13,0.02 -0.15,0.09 0,0.02 -0.05,0.16 -0.19,0.16 -0.14,0 -0.19,-0.09 -0.2,-0.1 l -0.06,-0.09 c 0,0 -0.01,-0.04 -0.1,-0.04 -0.09,0 -0.11,0.04 -0.11,0.04 l -0.03,0.08 c 0,0 -0.05,0.1 -0.2,0.1 -0.15,0 -0.19,-0.14 -0.19,-0.16 -0.02,-0.07 -0.08,-0.11 -0.15,-0.09 -0.07,0.02 -0.11,0.08 -0.09,0.15 0.03,0.12 0.15,0.33 0.41,0.34 0.04,0.15 0.13,0.38 0.34,0.38 0.21,0 0.3,-0.23 0.34,-0.38 0,0 0.01,0 0.02,0 0.28,0 0.41,-0.23 0.43,-0.34 0.02,-0.07 -0.02,-0.13 -0.09,-0.15 z"
         id="path222"
         style="fill:#ffffff" />
      <path
         class="cls-1"
         d="m 140.61,229.3 v 43.23 h 16.64 V 229.3 Z m 15.01,26.75 c 0,0 -0.69,3.29 -4.38,3.83 -1.94,0.28 -5,0.42 -5.03,0.26 -0.05,-0.28 -0.14,-3.31 -0.18,-3.59 -0.16,-1.05 -0.41,-2.06 -1.04,-2.96 -0.53,-0.76 -1.03,-1.56 -1.42,-2.39 -0.56,-1.19 -0.64,-2.51 -0.77,-3.8 -0.01,-0.15 -0.09,-0.32 -0.2,-0.43 -0.73,-0.7 -0.95,-1.49 -0.56,-2.44 0.38,-0.93 0.73,-1.87 1.1,-2.8 0.01,-0.03 0.04,-0.05 0.08,-0.1 0.16,0.42 0.32,0.81 0.47,1.21 0.07,0.19 0.18,0.23 0.43,0.21 0.81,-0.08 1.62,-0.06 2.43,0 0.23,0.02 0.32,-0.03 0.39,-0.21 0.15,-0.39 0.3,-0.78 0.48,-1.22 0.3,0.73 0.58,1.41 0.84,2.1 0.17,0.45 0.33,0.91 0.47,1.38 0.14,0.48 0.03,0.95 -0.26,1.35 -0.18,0.25 -0.39,0.47 -0.59,0.71 0.35,0.57 0.69,1.13 1.05,1.69 0.04,0.06 0.16,0.1 0.24,0.1 0.53,0.01 1.01,0.17 1.42,0.48 1.9,1.43 2.96,3.34 3.21,5.7 0.04,0.35 0,0.7 0,1.15 0.15,-0.17 0.24,-0.27 0.31,-0.37 0.56,-0.77 0.45,-1.6 0.16,-2.42 -0.29,-0.82 -0.66,-1.62 -0.94,-2.45 -0.24,-0.71 -0.35,-1.46 -0.3,-2.22 0.05,-0.84 0.47,-1.34 1.16,-1.31 0.3,0.02 0.6,0.1 0.89,0.21 0.31,0.11 0.36,0.38 0.16,0.64 -0.15,0.19 -0.33,0.36 -0.52,0.51 -0.43,0.33 -0.58,0.76 -0.55,1.28 0.05,0.69 0.34,1.3 0.66,1.9 0.67,1.24 1.18,2.5 0.81,3.99 z"
         id="path224"
         style="fill:#ffffff" />
    </g>
    <g
       id="g216"
       style="display:inline"
       inkscape:label="CAT3"
       transform="matrix(0.34023279,0,0,0.34515057,-16.720013,-71.338126)">
      <circle
         class="cls-1"
         cx="124.73"
         cy="245.34"
         r="0.41"
         id="circle208"
         style="fill:#ffffff" />
      <path
         class="cls-1"
         d="m 127.29,246.22 c -0.07,-0.02 -0.13,0.02 -0.15,0.09 0,0.02 -0.05,0.16 -0.19,0.16 -0.14,0 -0.19,-0.09 -0.2,-0.1 l -0.06,-0.09 c 0,0 -0.01,-0.04 -0.1,-0.04 -0.09,0 -0.11,0.04 -0.11,0.04 l -0.03,0.08 c 0,0 -0.05,0.1 -0.2,0.1 -0.15,0 -0.19,-0.14 -0.19,-0.16 -0.02,-0.07 -0.08,-0.11 -0.15,-0.09 -0.07,0.02 -0.11,0.08 -0.09,0.15 0.03,0.12 0.16,0.34 0.43,0.34 0.16,0 0.27,-0.06 0.34,-0.13 0.07,0.07 0.18,0.13 0.34,0.13 0.28,0 0.41,-0.23 0.43,-0.34 0.02,-0.07 -0.02,-0.13 -0.09,-0.15 z"
         id="path210"
         style="fill:#ffffff" />
      <path
         class="cls-1"
         d="m 121.97,229.3 v 43.23 h 16.64 V 229.3 Z m 15.02,26.76 c 0,0 -0.63,3.05 -4.4,3.85 -1.92,0.41 -5.02,0.42 -5.05,0.27 -0.05,-0.28 -0.14,-3.33 -0.19,-3.61 -0.16,-1.06 -0.41,-2.07 -1.04,-2.97 -0.54,-0.76 -1.03,-1.56 -1.43,-2.4 -0.57,-1.2 -0.65,-2.52 -0.77,-3.82 -0.01,-0.15 -0.09,-0.33 -0.2,-0.43 -0.74,-0.7 -0.95,-1.5 -0.57,-2.46 0.38,-0.93 0.74,-1.88 1.1,-2.82 0.01,-0.03 0.04,-0.05 0.08,-0.1 0.17,0.43 0.32,0.82 0.47,1.22 0.07,0.19 0.18,0.23 0.43,0.21 0.81,-0.08 1.63,-0.06 2.44,0 0.23,0.02 0.32,-0.03 0.39,-0.21 0.15,-0.39 0.31,-0.78 0.48,-1.22 0.3,0.74 0.58,1.42 0.85,2.11 0.17,0.45 0.34,0.92 0.47,1.38 0.14,0.49 0.03,0.95 -0.26,1.36 -0.18,0.25 -0.39,0.47 -0.59,0.71 0.35,0.57 0.69,1.14 1.05,1.7 0.04,0.06 0.16,0.1 0.24,0.1 0.53,0.01 1.02,0.17 1.43,0.48 1.91,1.44 2.98,3.36 3.22,5.73 0.04,0.35 0,0.71 0,1.16 0.15,-0.17 0.24,-0.27 0.32,-0.38 0.56,-0.78 0.45,-1.61 0.16,-2.44 -0.29,-0.83 -0.66,-1.63 -0.95,-2.46 -0.24,-0.72 -0.35,-1.46 -0.31,-2.23 0.05,-0.85 0.48,-1.35 1.16,-1.31 0.3,0.02 0.61,0.1 0.89,0.21 0.31,0.11 0.37,0.38 0.16,0.64 -0.15,0.19 -0.33,0.36 -0.52,0.51 -0.43,0.33 -0.59,0.76 -0.55,1.29 0.05,0.7 0.34,1.31 0.67,1.91 0.68,1.24 1.19,2.52 0.81,4.01 z"
         id="path212"
         style="fill:#ffffff" />
      <circle
         class="cls-1"
         cx="128.48"
         cy="245.34"
         r="0.41"
         id="circle214"
         style="fill:#ffffff" />
    </g>
    <g
       id="g206"
       style="display:inline"
       inkscape:label="CAT5"
       transform="matrix(0.34023279,0,0,0.34515057,-16.720013,-71.338126)">
      <path
         class="cls-1"
         d="m 162.39,245.07 c -0.43,-0.29 -0.74,-0.14 -0.75,-0.13 -0.06,0.03 -0.08,0.1 -0.06,0.16 0.03,0.06 0.1,0.08 0.17,0.06 0,0 0.15,-0.07 0.39,0.05 -0.06,0 -0.12,0.01 -0.17,0.03 -0.23,0.08 -0.27,0.17 -0.27,0.24 0,0.07 0.06,0.12 0.12,0.12 0.05,0 0.09,-0.04 0.12,-0.08 0,-0.01 0.04,-0.03 0.11,-0.05 0.08,-0.03 0.23,-0.03 0.4,0 0.06,0 0.12,-0.02 0.15,-0.08 0,0 0.04,-0.09 -0.01,-0.17 -0.04,-0.05 -0.1,-0.11 -0.19,-0.17 z"
         id="path198"
         style="fill:#ffffff" />
      <path
         class="cls-1"
         d="m 164.7,246.08 c -0.07,-0.02 -0.13,0.02 -0.15,0.09 0,0.02 -0.05,0.16 -0.19,0.16 -0.14,0 -0.19,-0.09 -0.2,-0.1 l -0.06,-0.09 c 0,0 -0.01,-0.04 -0.1,-0.04 -0.09,0 -0.11,0.04 -0.11,0.04 l -0.03,0.08 c 0,0 -0.05,0.1 -0.2,0.1 -0.15,0 -0.19,-0.14 -0.19,-0.16 -0.02,-0.07 -0.08,-0.11 -0.15,-0.09 -0.07,0.02 -0.11,0.08 -0.09,0.15 0.03,0.12 0.15,0.33 0.41,0.34 0.04,0.15 0.13,0.38 0.34,0.38 0.21,0 0.3,-0.23 0.34,-0.38 0,0 0.01,0 0.02,0 0.28,0 0.41,-0.23 0.43,-0.34 0.02,-0.07 -0.02,-0.13 -0.09,-0.15 z"
         id="path200"
         style="fill:#ffffff" />
      <path
         class="cls-1"
         d="m 165.6,245.07 c -0.09,0.06 -0.15,0.11 -0.19,0.17 -0.04,0.05 -0.04,0.11 0,0.17 0,0 0.07,0.09 0.15,0.07 0.19,-0.04 0.39,-0.03 0.5,0.05 0.06,0.04 0.07,0.08 0.12,0.08 0.01,0 0.02,0 0.03,0 0.07,-0.02 0.1,-0.09 0.09,-0.15 -0.02,-0.06 -0.08,-0.14 -0.29,-0.21 -0.05,-0.01 -0.1,-0.02 -0.15,-0.03 0.24,-0.12 0.38,-0.06 0.39,-0.05 0.06,0.03 0.14,0 0.17,-0.06 0.03,-0.06 0,-0.14 -0.06,-0.17 -0.01,0 -0.32,-0.16 -0.75,0.13 z"
         id="path202"
         style="fill:#ffffff" />
      <path
         class="cls-1"
         d="m 170.25,229.3 h -10.96 v 43.23 h 10.96 c 3.14,0 5.68,-2.54 5.68,-5.68 v -31.87 c 0,-3.14 -2.54,-5.68 -5.68,-5.68 z m 4.08,26.77 c 0,0 -0.97,3.23 -4.4,3.85 -1.94,0.35 -5.03,0.42 -5.06,0.27 -0.05,-0.28 -0.14,-3.33 -0.19,-3.61 -0.16,-1.06 -0.41,-2.07 -1.05,-2.97 -0.54,-0.76 -1.03,-1.56 -1.43,-2.4 -0.57,-1.2 -0.65,-2.52 -0.77,-3.82 -0.01,-0.15 -0.09,-0.33 -0.2,-0.43 -0.74,-0.7 -0.95,-1.5 -0.57,-2.46 0.38,-0.93 0.74,-1.88 1.1,-2.82 0.01,-0.03 0.04,-0.05 0.08,-0.1 0.17,0.43 0.32,0.82 0.47,1.22 0.07,0.19 0.18,0.23 0.43,0.21 0.81,-0.08 1.63,-0.06 2.44,0 0.23,0.02 0.32,-0.03 0.39,-0.21 0.15,-0.39 0.31,-0.78 0.48,-1.22 0.3,0.74 0.58,1.42 0.85,2.11 0.17,0.46 0.34,0.92 0.47,1.39 0.14,0.49 0.03,0.95 -0.26,1.36 -0.18,0.25 -0.39,0.47 -0.6,0.71 0.35,0.57 0.7,1.14 1.06,1.7 0.04,0.06 0.16,0.1 0.24,0.1 0.53,0.01 1.02,0.17 1.43,0.48 1.91,1.44 2.98,3.36 3.23,5.74 0.04,0.35 0,0.71 0,1.16 0.15,-0.17 0.24,-0.27 0.32,-0.38 0.56,-0.78 0.45,-1.61 0.16,-2.44 -0.29,-0.83 -0.66,-1.63 -0.95,-2.47 -0.24,-0.72 -0.35,-1.47 -0.31,-2.23 0.05,-0.85 0.48,-1.35 1.17,-1.31 0.3,0.02 0.61,0.1 0.89,0.21 0.31,0.11 0.37,0.38 0.16,0.64 -0.15,0.19 -0.33,0.36 -0.52,0.51 -0.43,0.33 -0.59,0.76 -0.55,1.29 0.05,0.7 0.34,1.31 0.67,1.91 0.68,1.24 1.19,2.52 0.81,4.02 z"
         id="path204"
         style="fill:#ffffff" />
    </g>
    <g
       id="g186"
       style="display:inline"
       inkscape:label="CAT2"
       transform="matrix(0.34023279,0,0,0.34515057,-16.720013,-71.338126)">
      <path
         class="cls-1"
         d="m 108.76,246.05 c -0.07,-0.02 -0.13,0.02 -0.15,0.09 0,0.02 -0.05,0.16 -0.19,0.16 -0.14,0 -0.19,-0.09 -0.2,-0.1 l -0.06,-0.09 c 0,0 -0.01,-0.04 -0.1,-0.04 -0.09,0 -0.11,0.04 -0.11,0.04 l -0.03,0.08 c 0,0 -0.05,0.1 -0.2,0.1 -0.15,0 -0.19,-0.14 -0.19,-0.16 -0.02,-0.07 -0.08,-0.11 -0.15,-0.09 -0.07,0.02 -0.11,0.08 -0.09,0.15 0.03,0.12 0.16,0.34 0.43,0.34 0.16,0 0.27,-0.06 0.34,-0.13 0.07,0.07 0.18,0.13 0.34,0.13 0.28,0 0.41,-0.23 0.43,-0.34 0.02,-0.07 -0.02,-0.13 -0.09,-0.15 z"
         id="path178"
         style="fill:#ffffff" />
      <path
         class="cls-1"
         d="m 110.47,245.63 -0.7,-0.28 0.7,-0.28 c 0.06,-0.02 0.1,-0.1 0.07,-0.16 -0.03,-0.06 -0.1,-0.1 -0.16,-0.07 l -0.94,0.37 c -0.06,0.02 -0.1,0.08 -0.1,0.14 0,0 0,0.09 0.12,0.14 0.42,0.17 0.91,0.37 0.91,0.37 0.02,0 0.03,0 0.05,0 0.05,0 0.1,-0.03 0.12,-0.08 0.03,-0.06 0,-0.14 -0.07,-0.16 z"
         id="path180"
         style="fill:#ffffff" />
      <path
         class="cls-1"
         d="m 105.63,244.84 c -0.06,-0.02 -0.14,0 -0.16,0.07 -0.03,0.06 0,0.14 0.07,0.16 l 0.7,0.28 -0.7,0.28 c -0.06,0.03 -0.1,0.1 -0.07,0.16 0.02,0.05 0.07,0.08 0.12,0.08 0.02,0 0.03,0 0.05,0 l 0.94,-0.37 c 0.06,-0.02 0.1,-0.08 0.1,-0.14 0,0 0.01,-0.1 -0.08,-0.13 -0.46,-0.19 -0.96,-0.37 -0.96,-0.37 z"
         id="path182"
         style="fill:#ffffff" />
      <path
         class="cls-1"
         d="m 103.31,229.3 v 43.23 h 16.64 V 229.3 Z m 15.02,26.76 c 0,0 -0.67,2.88 -4.41,3.86 -1.91,0.5 -5.04,0.42 -5.06,0.27 -0.05,-0.28 -0.14,-3.33 -0.19,-3.62 -0.16,-1.06 -0.41,-2.07 -1.05,-2.98 -0.54,-0.76 -1.03,-1.57 -1.43,-2.41 -0.57,-1.2 -0.65,-2.52 -0.77,-3.83 -0.01,-0.15 -0.09,-0.33 -0.2,-0.43 -0.74,-0.7 -0.96,-1.5 -0.57,-2.46 0.38,-0.94 0.74,-1.88 1.11,-2.82 0.01,-0.03 0.04,-0.05 0.08,-0.1 0.17,0.43 0.33,0.82 0.47,1.22 0.07,0.19 0.18,0.23 0.43,0.21 0.81,-0.08 1.63,-0.06 2.45,0 0.23,0.02 0.32,-0.03 0.39,-0.21 0.15,-0.39 0.31,-0.78 0.48,-1.22 0.3,0.74 0.58,1.42 0.85,2.11 0.17,0.46 0.34,0.92 0.47,1.39 0.14,0.49 0.03,0.95 -0.26,1.36 -0.18,0.25 -0.39,0.47 -0.6,0.72 0.35,0.57 0.7,1.14 1.06,1.71 0.04,0.06 0.16,0.1 0.24,0.1 0.53,0.01 1.02,0.17 1.43,0.48 1.91,1.44 2.98,3.37 3.23,5.75 0.04,0.35 0,0.71 0,1.16 0.15,-0.17 0.24,-0.27 0.32,-0.38 0.56,-0.78 0.45,-1.61 0.16,-2.44 -0.29,-0.83 -0.66,-1.64 -0.95,-2.47 -0.25,-0.72 -0.35,-1.47 -0.31,-2.23 0.05,-0.85 0.48,-1.35 1.17,-1.32 0.3,0.02 0.61,0.1 0.89,0.21 0.31,0.11 0.37,0.38 0.16,0.64 -0.15,0.19 -0.33,0.36 -0.52,0.51 -0.43,0.33 -0.59,0.77 -0.55,1.29 0.05,0.7 0.34,1.31 0.67,1.91 0.68,1.24 1.19,2.52 0.81,4.02 z"
         id="path184"
         style="fill:#ffffff" />
    </g>
    <path
       class="cls-1"
       d="m 179.81,282.63 c -1.31,-2.27 -3.73,-3.66 -6.35,-3.66 H 86.15 c -2.62,0 -5.04,1.4 -6.35,3.66 l -6.58,11.39 h 113.16 l -6.58,-11.39 z m -6.49,6.71 H 87.11 c -1.41,0 -2.55,-1.14 -2.55,-2.55 0,-1.41 1.14,-2.55 2.55,-2.55 h 86.21 c 1.41,0 2.55,1.14 2.55,2.55 0,1.41 -1.14,2.55 -2.55,2.55 z"
       id="path196"
       style="display:inline;fill:#ffffff"
       inkscape:label="SLIDER"
       transform="matrix(0.34023279,0,0,0.34515057,-16.720013,-71.338126)" />
    <g
       id="g176"
       style="display:inline"
       inkscape:label="CAT1"
       transform="matrix(0.34023279,0,0,0.34515057,-16.720013,-71.338126)" />
    <path
       class="cls-1"
       d="m 89.43,246.19 c -0.07,-0.08 -0.2,-0.08 -0.28,0 l -0.32,0.35 c -0.05,0.05 -0.04,0.13 0,0.18 0.02,0.02 0.05,0.03 0.08,0.03 0.03,0 0.07,-0.01 0.09,-0.04 l 0.27,-0.3 0.27,0.3 c 0.05,0.05 0.13,0.05 0.18,0 0.05,-0.05 0.05,-0.13 0,-0.18 l -0.32,-0.35 z"
       id="path164"
       style="display:inline;fill:#ffffff"
       transform="matrix(0.34023279,0,0,0.34515057,-16.720013,-71.338126)" />
    <path
       class="cls-1"
       d="m 87.8,244.13 c -0.05,-0.04 -0.13,-0.03 -0.17,0.02 -0.04,0.06 -0.03,0.13 0.02,0.17 l 0.5,0.37 c 0,0 0.05,0.03 0.08,0.03 0.04,0 0.08,-0.02 0.1,-0.05 0.04,-0.06 0.03,-0.13 -0.02,-0.17 l -0.5,-0.37 z"
       id="path166"
       style="display:inline;fill:#ffffff"
       transform="matrix(0.34023279,0,0,0.34515057,-16.720013,-71.338126)" />
    <path
       class="cls-1"
       d="m 90.94,244.16 c -0.04,-0.05 -0.12,-0.07 -0.17,-0.02 l -0.5,0.37 c -0.05,0.04 -0.07,0.12 -0.02,0.17 0.02,0.03 0.06,0.05 0.1,0.05 0.03,0 0.05,0 0.08,-0.03 l 0.5,-0.37 c 0.05,-0.04 0.07,-0.12 0.02,-0.17 z"
       id="path168"
       style="display:inline;fill:#ffffff"
       transform="matrix(0.34023279,0,0,0.34515057,-16.720013,-71.338126)" />
    <ellipse
       class="cls-1"
       cx="87.440002"
       cy="245.34"
       rx="0.41"
       ry="0.28"
       id="ellipse170"
       style="display:inline;fill:#ffffff"
       transform="matrix(0.34023279,0,0,0.34515057,-16.720013,-71.338126)" />
    <path
       class="cls-1"
       d="m 90.28,229.3 c -3.13,0 -5.68,2.54 -5.68,5.68 v 31.88 c 0,3.13 2.54,5.68 5.68,5.68 h 10.97 V 229.31 H 90.28 Z m 9.36,26.76 c 0,0 -0.96,3.1 -4.39,3.85 -1.92,0.42 -5.02,0.42 -5.05,0.27 -0.05,-0.28 -0.14,-3.32 -0.19,-3.61 -0.16,-1.06 -0.41,-2.07 -1.04,-2.97 -0.54,-0.76 -1.03,-1.56 -1.43,-2.4 -0.57,-1.2 -0.65,-2.52 -0.77,-3.82 -0.01,-0.15 -0.09,-0.33 -0.2,-0.43 -0.74,-0.7 -0.95,-1.5 -0.56,-2.46 0.38,-0.93 0.73,-1.88 1.1,-2.81 0.01,-0.03 0.04,-0.05 0.08,-0.1 0.17,0.43 0.32,0.82 0.47,1.21 0.07,0.19 0.18,0.23 0.43,0.21 0.81,-0.08 1.63,-0.06 2.44,0 0.23,0.02 0.32,-0.03 0.39,-0.21 0.15,-0.39 0.31,-0.78 0.48,-1.22 0.3,0.74 0.58,1.42 0.84,2.11 0.17,0.45 0.34,0.92 0.47,1.38 0.14,0.49 0.03,0.95 -0.26,1.36 -0.18,0.25 -0.39,0.47 -0.59,0.71 0.35,0.57 0.69,1.14 1.05,1.7 0.04,0.06 0.16,0.1 0.24,0.1 0.53,0.01 1.01,0.17 1.43,0.48 1.91,1.44 2.97,3.36 3.22,5.73 0.04,0.35 0,0.71 0,1.16 0.15,-0.17 0.24,-0.27 0.32,-0.38 0.56,-0.78 0.45,-1.61 0.16,-2.43 -0.29,-0.83 -0.66,-1.63 -0.95,-2.46 -0.24,-0.71 -0.35,-1.46 -0.31,-2.23 0.05,-0.85 0.48,-1.35 1.16,-1.31 0.3,0.02 0.61,0.1 0.89,0.21 0.31,0.11 0.37,0.38 0.16,0.64 -0.15,0.19 -0.33,0.36 -0.52,0.51 -0.43,0.33 -0.58,0.76 -0.55,1.29 0.05,0.7 0.34,1.31 0.66,1.91 0.68,1.24 1.19,2.51 0.81,4.01 z"
       id="path172"
       style="display:inline;fill:#ffffff"
       transform="matrix(0.34023279,0,0,0.34515057,-16.720013,-71.338126)" />
    <ellipse
       class="cls-1"
       cx="91.190002"
       cy="245.34"
       rx="0.41"
       ry="0.28"
       id="ellipse174"
       style="display:inline;fill:#ffffff"
       transform="matrix(0.34023279,0,0,0.34515057,-16.720013,-71.338126)" />
  </g>
  <g
     inkscape:label="Dwgs.User"
     inkscape:groupmode="layer"
     id="g2140"
     transform="translate(-0.28822417,-0.29442437)">
    <path
       class="cls-6"
       d="m 216.85,238.08 c -0.13,0 -0.27,0.03 -0.4,0.09 h -3.99 c -1.38,-17.45 -5.51,-30.12 -10.39,-30.12 -0.51,0 -3.23,0.01 -4.15,0.01 H 63.82 c -0.98,0 -3.64,0.06 -4.07,0.06 -5.12,0 -9.26,19.15 -9.26,42.78 0,23.63 4.15,43.13 9.26,43.13 h 142.26 c 4.66,0 8.68,-11.67 10.25,-27.96 h 4.73 c 0,0 0.06,0 0.09,0 1.92,0 3.49,-6.24 3.49,-13.83 0,-7.05 -1.78,-14.15 -3.71,-14.15 z"
       id="path136"
       style="display:none;fill:#272351"
       inkscape:label="Background PURPLE"
       transform="matrix(0.34023279,0,0,0.34515057,-16.720013,-71.338126)" />
    <g
       id="g228"
       style="display:none"
       inkscape:label="g228"
       transform="matrix(0.34023279,0,0,0.34515057,-16.720013,-71.338126)" />
  </g>
  <g
     inkscape:label="Drill"
     inkscape:groupmode="layer"
     id="g2142"
     transform="translate(-0.288224, -0.294424)" />
</svg>
