%TF.GenerationSoftware,KiCad,Pcbnew,8.0.2-1*%
%TF.CreationDate,2024-08-22T14:08:19+02:00*%
%TF.ProjectId,Wiccon_social_bat,57696363-6f6e-45f7-936f-6369616c5f62,rev?*%
%TF.SameCoordinates,Original*%
%TF.FileFunction,Paste,Bot*%
%TF.FilePolarity,Positive*%
%FSLAX46Y46*%
G04 Gerber Fmt 4.6, Leading zero omitted, Abs format (unit mm)*
G04 Created by KiCad (PCBNEW 8.0.2-1) date 2024-08-22 14:08:19*
%MOMM*%
%LPD*%
G01*
G04 APERTURE LIST*
G04 Aperture macros list*
%AMRoundRect*
0 Rectangle with rounded corners*
0 $1 Rounding radius*
0 $2 $3 $4 $5 $6 $7 $8 $9 X,Y pos of 4 corners*
0 Add a 4 corners polygon primitive as box body*
4,1,4,$2,$3,$4,$5,$6,$7,$8,$9,$2,$3,0*
0 Add four circle primitives for the rounded corners*
1,1,$1+$1,$2,$3*
1,1,$1+$1,$4,$5*
1,1,$1+$1,$6,$7*
1,1,$1+$1,$8,$9*
0 Add four rect primitives between the rounded corners*
20,1,$1+$1,$2,$3,$4,$5,0*
20,1,$1+$1,$4,$5,$6,$7,0*
20,1,$1+$1,$6,$7,$8,$9,0*
20,1,$1+$1,$8,$9,$2,$3,0*%
%AMFreePoly0*
4,1,13,0.275000,-0.600000,-0.275000,-0.600000,-0.275000,-0.350000,-0.675000,-0.350000,-0.710355,-0.335355,-0.725000,-0.300000,-0.725000,0.180000,-0.710355,0.215355,-0.675000,0.230000,-0.275000,0.230000,-0.275000,0.600000,0.275000,0.600000,0.275000,-0.600000,0.275000,-0.600000,$1*%
%AMFreePoly1*
4,1,13,0.275000,0.230000,0.675000,0.230000,0.710355,0.215355,0.725000,0.180000,0.725000,-0.300000,0.710355,-0.335355,0.675000,-0.350000,0.275000,-0.350000,0.275000,-0.600000,-0.275000,-0.600000,-0.275000,0.600000,0.275000,0.600000,0.275000,0.230000,0.275000,0.230000,$1*%
%AMFreePoly2*
4,1,14,0.085355,0.385355,0.100000,0.350000,0.100000,-0.350000,0.085355,-0.385355,0.050000,-0.400000,-0.050000,-0.400000,-0.085355,-0.385355,-0.100000,-0.350000,-0.100000,0.299289,-0.085355,0.334644,-0.034644,0.385355,0.000711,0.400000,0.050000,0.400000,0.085355,0.385355,0.085355,0.385355,$1*%
%AMFreePoly3*
4,1,14,0.034644,0.385355,0.085355,0.334644,0.100000,0.299289,0.100000,-0.350000,0.085355,-0.385355,0.050000,-0.400000,-0.050000,-0.400000,-0.085355,-0.385355,-0.100000,-0.350000,-0.100000,0.350000,-0.085355,0.385355,-0.050000,0.400000,-0.000711,0.400000,0.034644,0.385355,0.034644,0.385355,$1*%
%AMFreePoly4*
4,1,14,0.385355,0.085355,0.400000,0.050000,0.400000,-0.050000,0.385355,-0.085355,0.350000,-0.100000,-0.299289,-0.100000,-0.334644,-0.085355,-0.385355,-0.034644,-0.400000,0.000711,-0.400000,0.050000,-0.385355,0.085355,-0.350000,0.100000,0.350000,0.100000,0.385355,0.085355,0.385355,0.085355,$1*%
%AMFreePoly5*
4,1,14,0.385355,0.085355,0.400000,0.050000,0.400000,-0.050000,0.385355,-0.085355,0.350000,-0.100000,-0.350000,-0.100000,-0.385355,-0.085355,-0.400000,-0.050000,-0.400000,-0.000711,-0.385355,0.034644,-0.334644,0.085355,-0.299289,0.100000,0.350000,0.100000,0.385355,0.085355,0.385355,0.085355,$1*%
%AMFreePoly6*
4,1,14,0.085355,0.385355,0.100000,0.350000,0.100000,-0.299289,0.085355,-0.334644,0.034644,-0.385355,-0.000711,-0.400000,-0.050000,-0.400000,-0.085355,-0.385355,-0.100000,-0.350000,-0.100000,0.350000,-0.085355,0.385355,-0.050000,0.400000,0.050000,0.400000,0.085355,0.385355,0.085355,0.385355,$1*%
%AMFreePoly7*
4,1,14,0.085355,0.385355,0.100000,0.350000,0.100000,-0.350000,0.085355,-0.385355,0.050000,-0.400000,0.000711,-0.400000,-0.034644,-0.385355,-0.085355,-0.334644,-0.100000,-0.299289,-0.100000,0.350000,-0.085355,0.385355,-0.050000,0.400000,0.050000,0.400000,0.085355,0.385355,0.085355,0.385355,$1*%
%AMFreePoly8*
4,1,14,0.334644,0.085355,0.385355,0.034644,0.400000,-0.000711,0.400000,-0.050000,0.385355,-0.085355,0.350000,-0.100000,-0.350000,-0.100000,-0.385355,-0.085355,-0.400000,-0.050000,-0.400000,0.050000,-0.385355,0.085355,-0.350000,0.100000,0.299289,0.100000,0.334644,0.085355,0.334644,0.085355,$1*%
%AMFreePoly9*
4,1,14,0.385355,0.085355,0.400000,0.050000,0.400000,0.000711,0.385355,-0.034644,0.334644,-0.085355,0.299289,-0.100000,-0.350000,-0.100000,-0.385355,-0.085355,-0.400000,-0.050000,-0.400000,0.050000,-0.385355,0.085355,-0.350000,0.100000,0.350000,0.100000,0.385355,0.085355,0.385355,0.085355,$1*%
G04 Aperture macros list end*
%ADD10FreePoly0,180.000000*%
%ADD11R,0.700000X1.200000*%
%ADD12R,0.450000X1.200000*%
%ADD13FreePoly1,180.000000*%
%ADD14RoundRect,0.237500X-0.300000X-0.237500X0.300000X-0.237500X0.300000X0.237500X-0.300000X0.237500X0*%
%ADD15FreePoly2,0.000000*%
%ADD16RoundRect,0.050000X-0.050000X-0.350000X0.050000X-0.350000X0.050000X0.350000X-0.050000X0.350000X0*%
%ADD17FreePoly3,0.000000*%
%ADD18FreePoly4,0.000000*%
%ADD19RoundRect,0.050000X-0.350000X-0.050000X0.350000X-0.050000X0.350000X0.050000X-0.350000X0.050000X0*%
%ADD20FreePoly5,0.000000*%
%ADD21FreePoly6,0.000000*%
%ADD22FreePoly7,0.000000*%
%ADD23FreePoly8,0.000000*%
%ADD24FreePoly9,0.000000*%
%ADD25RoundRect,0.172500X-0.172500X-0.172500X0.172500X-0.172500X0.172500X0.172500X-0.172500X0.172500X0*%
%ADD26RoundRect,0.237500X-0.250000X-0.237500X0.250000X-0.237500X0.250000X0.237500X-0.250000X0.237500X0*%
G04 APERTURE END LIST*
D10*
%TO.C,LED2*%
X147810000Y-38200000D03*
D11*
X146685000Y-38200000D03*
D12*
X145660000Y-38200000D03*
D13*
X144660000Y-38200000D03*
%TD*%
D14*
%TO.C,C1*%
X132585000Y-45466000D03*
X130860000Y-45466000D03*
%TD*%
D15*
%TO.C,U1*%
X130264000Y-42270000D03*
D16*
X130664000Y-42270000D03*
X131064000Y-42270000D03*
X131464000Y-42270000D03*
D17*
X131864000Y-42270000D03*
D18*
X132514000Y-41620000D03*
D19*
X132514000Y-41220000D03*
X132514000Y-40820000D03*
X132514000Y-40420000D03*
D20*
X132514000Y-40020000D03*
D21*
X131864000Y-39370000D03*
D16*
X131464000Y-39370000D03*
X131064000Y-39370000D03*
X130664000Y-39370000D03*
D22*
X130264000Y-39370000D03*
D23*
X129614000Y-40020000D03*
D19*
X129614000Y-40420000D03*
X129614000Y-40820000D03*
X129614000Y-41220000D03*
D24*
X129614000Y-41620000D03*
D25*
X131489000Y-41245000D03*
X131489000Y-40395000D03*
X130639000Y-41245000D03*
X130639000Y-40395000D03*
%TD*%
D13*
%TO.C,LED4*%
X157435000Y-38200000D03*
D12*
X158435000Y-38200000D03*
D11*
X159460000Y-38200000D03*
D10*
X160585000Y-38200000D03*
%TD*%
%TO.C,LED1*%
X141640000Y-38210000D03*
D11*
X140515000Y-38210000D03*
D12*
X139490000Y-38210000D03*
D13*
X138490000Y-38210000D03*
%TD*%
D26*
%TO.C,R1*%
X132635000Y-43942000D03*
X130810000Y-43942000D03*
%TD*%
D13*
%TO.C,LED5*%
X163705000Y-38190000D03*
D12*
X164705000Y-38190000D03*
D11*
X165730000Y-38190000D03*
D10*
X166855000Y-38190000D03*
%TD*%
D13*
%TO.C,LED3*%
X151040000Y-38210000D03*
D12*
X152040000Y-38210000D03*
D11*
X153065000Y-38210000D03*
D10*
X154190000Y-38210000D03*
%TD*%
M02*
