%TF.GenerationSoftware,KiCad,Pcbnew,8.0.2-1*%
%TF.CreationDate,2024-08-22T14:08:19+02:00*%
%TF.ProjectId,Wiccon_social_bat,57696363-6f6e-45f7-936f-6369616c5f62,rev?*%
%TF.SameCoordinates,Original*%
%TF.FileFunction,Soldermask,Bot*%
%TF.FilePolarity,Negative*%
%FSLAX46Y46*%
G04 Gerber Fmt 4.6, Leading zero omitted, Abs format (unit mm)*
G04 Created by KiCad (PCBNEW 8.0.2-1) date 2024-08-22 14:08:19*
%MOMM*%
%LPD*%
G01*
G04 APERTURE LIST*
G04 Aperture macros list*
%AMRoundRect*
0 Rectangle with rounded corners*
0 $1 Rounding radius*
0 $2 $3 $4 $5 $6 $7 $8 $9 X,Y pos of 4 corners*
0 Add a 4 corners polygon primitive as box body*
4,1,4,$2,$3,$4,$5,$6,$7,$8,$9,$2,$3,0*
0 Add four circle primitives for the rounded corners*
1,1,$1+$1,$2,$3*
1,1,$1+$1,$4,$5*
1,1,$1+$1,$6,$7*
1,1,$1+$1,$8,$9*
0 Add four rect primitives between the rounded corners*
20,1,$1+$1,$2,$3,$4,$5,0*
20,1,$1+$1,$4,$5,$6,$7,0*
20,1,$1+$1,$6,$7,$8,$9,0*
20,1,$1+$1,$8,$9,$2,$3,0*%
%AMFreePoly0*
4,1,13,0.275000,-0.600000,-0.275000,-0.600000,-0.275000,-0.350000,-0.675000,-0.350000,-0.710355,-0.335355,-0.725000,-0.300000,-0.725000,0.180000,-0.710355,0.215355,-0.675000,0.230000,-0.275000,0.230000,-0.275000,0.600000,0.275000,0.600000,0.275000,-0.600000,0.275000,-0.600000,$1*%
%AMFreePoly1*
4,1,13,0.275000,0.230000,0.675000,0.230000,0.710355,0.215355,0.725000,0.180000,0.725000,-0.300000,0.710355,-0.335355,0.675000,-0.350000,0.275000,-0.350000,0.275000,-0.600000,-0.275000,-0.600000,-0.275000,0.600000,0.275000,0.600000,0.275000,0.230000,0.275000,0.230000,$1*%
%AMFreePoly2*
4,1,14,0.085355,0.385355,0.100000,0.350000,0.100000,-0.350000,0.085355,-0.385355,0.050000,-0.400000,-0.050000,-0.400000,-0.085355,-0.385355,-0.100000,-0.350000,-0.100000,0.299289,-0.085355,0.334644,-0.034644,0.385355,0.000711,0.400000,0.050000,0.400000,0.085355,0.385355,0.085355,0.385355,$1*%
%AMFreePoly3*
4,1,14,0.034644,0.385355,0.085355,0.334644,0.100000,0.299289,0.100000,-0.350000,0.085355,-0.385355,0.050000,-0.400000,-0.050000,-0.400000,-0.085355,-0.385355,-0.100000,-0.350000,-0.100000,0.350000,-0.085355,0.385355,-0.050000,0.400000,-0.000711,0.400000,0.034644,0.385355,0.034644,0.385355,$1*%
%AMFreePoly4*
4,1,14,0.385355,0.085355,0.400000,0.050000,0.400000,-0.050000,0.385355,-0.085355,0.350000,-0.100000,-0.299289,-0.100000,-0.334644,-0.085355,-0.385355,-0.034644,-0.400000,0.000711,-0.400000,0.050000,-0.385355,0.085355,-0.350000,0.100000,0.350000,0.100000,0.385355,0.085355,0.385355,0.085355,$1*%
%AMFreePoly5*
4,1,14,0.385355,0.085355,0.400000,0.050000,0.400000,-0.050000,0.385355,-0.085355,0.350000,-0.100000,-0.350000,-0.100000,-0.385355,-0.085355,-0.400000,-0.050000,-0.400000,-0.000711,-0.385355,0.034644,-0.334644,0.085355,-0.299289,0.100000,0.350000,0.100000,0.385355,0.085355,0.385355,0.085355,$1*%
%AMFreePoly6*
4,1,14,0.085355,0.385355,0.100000,0.350000,0.100000,-0.299289,0.085355,-0.334644,0.034644,-0.385355,-0.000711,-0.400000,-0.050000,-0.400000,-0.085355,-0.385355,-0.100000,-0.350000,-0.100000,0.350000,-0.085355,0.385355,-0.050000,0.400000,0.050000,0.400000,0.085355,0.385355,0.085355,0.385355,$1*%
%AMFreePoly7*
4,1,14,0.085355,0.385355,0.100000,0.350000,0.100000,-0.350000,0.085355,-0.385355,0.050000,-0.400000,0.000711,-0.400000,-0.034644,-0.385355,-0.085355,-0.334644,-0.100000,-0.299289,-0.100000,0.350000,-0.085355,0.385355,-0.050000,0.400000,0.050000,0.400000,0.085355,0.385355,0.085355,0.385355,$1*%
%AMFreePoly8*
4,1,14,0.334644,0.085355,0.385355,0.034644,0.400000,-0.000711,0.400000,-0.050000,0.385355,-0.085355,0.350000,-0.100000,-0.350000,-0.100000,-0.385355,-0.085355,-0.400000,-0.050000,-0.400000,0.050000,-0.385355,0.085355,-0.350000,0.100000,0.299289,0.100000,0.334644,0.085355,0.334644,0.085355,$1*%
%AMFreePoly9*
4,1,14,0.385355,0.085355,0.400000,0.050000,0.400000,0.000711,0.385355,-0.034644,0.334644,-0.085355,0.299289,-0.100000,-0.350000,-0.100000,-0.385355,-0.085355,-0.400000,-0.050000,-0.400000,0.050000,-0.385355,0.085355,-0.350000,0.100000,0.350000,0.100000,0.385355,0.085355,0.385355,0.085355,$1*%
G04 Aperture macros list end*
%ADD10C,0.000000*%
%ADD11FreePoly0,180.000000*%
%ADD12R,0.700000X1.200000*%
%ADD13R,0.450000X1.200000*%
%ADD14FreePoly1,180.000000*%
%ADD15O,1.700000X1.700000*%
%ADD16R,1.700000X1.700000*%
%ADD17RoundRect,0.237500X-0.300000X-0.237500X0.300000X-0.237500X0.300000X0.237500X-0.300000X0.237500X0*%
%ADD18FreePoly2,0.000000*%
%ADD19RoundRect,0.050000X-0.050000X-0.350000X0.050000X-0.350000X0.050000X0.350000X-0.050000X0.350000X0*%
%ADD20FreePoly3,0.000000*%
%ADD21FreePoly4,0.000000*%
%ADD22RoundRect,0.050000X-0.350000X-0.050000X0.350000X-0.050000X0.350000X0.050000X-0.350000X0.050000X0*%
%ADD23FreePoly5,0.000000*%
%ADD24FreePoly6,0.000000*%
%ADD25FreePoly7,0.000000*%
%ADD26FreePoly8,0.000000*%
%ADD27FreePoly9,0.000000*%
%ADD28RoundRect,0.237500X-0.250000X-0.237500X0.250000X-0.237500X0.250000X0.237500X-0.250000X0.237500X0*%
%ADD29R,1.000000X1.000000*%
G04 APERTURE END LIST*
D10*
%TO.C,TP17*%
G36*
X144489659Y-43902179D02*
G01*
X144498640Y-43925235D01*
X144560734Y-44081734D01*
X144648590Y-44318960D01*
X144650481Y-44322364D01*
X144653381Y-44327029D01*
X144656659Y-44332072D01*
X144660442Y-44337241D01*
X144665233Y-44343167D01*
X144669015Y-44346949D01*
X144673554Y-44350984D01*
X144677462Y-44353884D01*
X144681623Y-44356657D01*
X144686666Y-44359809D01*
X144692213Y-44362331D01*
X144698139Y-44364600D01*
X144704191Y-44366618D01*
X144709612Y-44368004D01*
X144714908Y-44369139D01*
X144720329Y-44370022D01*
X144728287Y-44370985D01*
X144735293Y-44371461D01*
X144742095Y-44371733D01*
X144751414Y-44371870D01*
X144759984Y-44371802D01*
X144772500Y-44371325D01*
X144782634Y-44370645D01*
X144793925Y-44369625D01*
X144843891Y-44365446D01*
X144866966Y-44363480D01*
X144877957Y-44362461D01*
X144885381Y-44361879D01*
X144891350Y-44361442D01*
X144897391Y-44361130D01*
X144946987Y-44358335D01*
X144968916Y-44357126D01*
X144978357Y-44356572D01*
X144987248Y-44356096D01*
X144992158Y-44355830D01*
X144996018Y-44355682D01*
X144999715Y-44355564D01*
X145009140Y-44355300D01*
X145015819Y-44355095D01*
X145020174Y-44354963D01*
X145033817Y-44354584D01*
X145038405Y-44354462D01*
X145041394Y-44354340D01*
X145045443Y-44354236D01*
X145049266Y-44354114D01*
X145052238Y-44354062D01*
X145116757Y-44352772D01*
X145128430Y-44352613D01*
X145150508Y-44352613D01*
X145162420Y-44352534D01*
X145175761Y-44352454D01*
X145201838Y-44352181D01*
X145209120Y-44352330D01*
X145215477Y-44352390D01*
X145220730Y-44352509D01*
X145242206Y-44352849D01*
X145252936Y-44353005D01*
X145262276Y-44353203D01*
X145268115Y-44353274D01*
X145273622Y-44353416D01*
X145279936Y-44353511D01*
X145288280Y-44353655D01*
X145296418Y-44353749D01*
X145301744Y-44353861D01*
X145306732Y-44353955D01*
X145313806Y-44354212D01*
X145318583Y-44354393D01*
X145326594Y-44354656D01*
X145331125Y-44354836D01*
X145340326Y-44355178D01*
X145343823Y-44355303D01*
X145353875Y-44355650D01*
X145360842Y-44355885D01*
X145366530Y-44356119D01*
X145372943Y-44356353D01*
X145377054Y-44356544D01*
X145380405Y-44356594D01*
X145383302Y-44356720D01*
X145386829Y-44356796D01*
X145391187Y-44356972D01*
X145394865Y-44357098D01*
X145398921Y-44357274D01*
X145402826Y-44357400D01*
X145406428Y-44357552D01*
X145415077Y-44357959D01*
X145419472Y-44358140D01*
X145424979Y-44358450D01*
X145435060Y-44358982D01*
X145442593Y-44359386D01*
X145449454Y-44359688D01*
X145478210Y-44361279D01*
X145483228Y-44361572D01*
X145487145Y-44361763D01*
X145490329Y-44361939D01*
X145502644Y-44362551D01*
X145512457Y-44363068D01*
X145520591Y-44363584D01*
X145527864Y-44364057D01*
X145534965Y-44364531D01*
X145567878Y-44366793D01*
X145579085Y-44367516D01*
X145589448Y-44368239D01*
X145600012Y-44368922D01*
X145608689Y-44369524D01*
X145618007Y-44370247D01*
X145631840Y-44371198D01*
X145641808Y-44371555D01*
X145646152Y-44371615D01*
X145650674Y-44371644D01*
X145655226Y-44371585D01*
X145659154Y-44371525D01*
X145662397Y-44371257D01*
X145666116Y-44370990D01*
X145669746Y-44370692D01*
X145672186Y-44370365D01*
X145679820Y-44369215D01*
X145682616Y-44368606D01*
X145685882Y-44367886D01*
X145688677Y-44367139D01*
X145692358Y-44366004D01*
X145695292Y-44365035D01*
X145698697Y-44363679D01*
X145708947Y-44358487D01*
X145712884Y-44355943D01*
X145716336Y-44353460D01*
X145720274Y-44350128D01*
X145724180Y-44346373D01*
X145726755Y-44343556D01*
X145729904Y-44339862D01*
X145733736Y-44334533D01*
X145736160Y-44330915D01*
X145738412Y-44327297D01*
X145740529Y-44323611D01*
X145742850Y-44319447D01*
X145745376Y-44314020D01*
X145747253Y-44310026D01*
X145748447Y-44307261D01*
X145749920Y-44303708D01*
X145752003Y-44298534D01*
X145754215Y-44292970D01*
X145756135Y-44287894D01*
X145758055Y-44283143D01*
X145759845Y-44278359D01*
X145766255Y-44261774D01*
X145769960Y-44252410D01*
X145772158Y-44246628D01*
X145780623Y-44224857D01*
X145782417Y-44220161D01*
X145784078Y-44215908D01*
X145785186Y-44213094D01*
X145792042Y-44195490D01*
X145793564Y-44191390D01*
X145794865Y-44188173D01*
X145795848Y-44185669D01*
X145796805Y-44183017D01*
X145797591Y-44181028D01*
X145801477Y-44170801D01*
X145804068Y-44164195D01*
X145806788Y-44157459D01*
X145808472Y-44152828D01*
X145809929Y-44149330D01*
X145873998Y-43984052D01*
X145899609Y-43917710D01*
X145915629Y-43876765D01*
X145916440Y-43878794D01*
X145929253Y-43910698D01*
X145934771Y-43924575D01*
X145938240Y-43933330D01*
X145957354Y-43980897D01*
X145962204Y-43992979D01*
X145989823Y-44062037D01*
X146022941Y-44144693D01*
X146025237Y-44150418D01*
X146057381Y-44230645D01*
X146060146Y-44237525D01*
X146061474Y-44240878D01*
X146083839Y-44297005D01*
X146088833Y-44309732D01*
X146092236Y-44318438D01*
X146116202Y-44378804D01*
X146118255Y-44383912D01*
X146125850Y-44403098D01*
X146128033Y-44408558D01*
X146132364Y-44419475D01*
X146133456Y-44422248D01*
X146134610Y-44425121D01*
X146135263Y-44426752D01*
X146192088Y-44572664D01*
X146228093Y-44667498D01*
X146275438Y-44801960D01*
X146302186Y-44879631D01*
X146312216Y-44910236D01*
X146325190Y-44950496D01*
X146335741Y-44984295D01*
X146341106Y-45002178D01*
X146345219Y-45016663D01*
X146348774Y-45028139D01*
X146360083Y-45068087D01*
X146366687Y-45092619D01*
X146370228Y-45106529D01*
X146372567Y-45115824D01*
X146373480Y-45120621D01*
X146374365Y-45125433D01*
X146375273Y-45130041D01*
X146378962Y-45151870D01*
X146380948Y-45163500D01*
X146382934Y-45178818D01*
X146384068Y-45194703D01*
X146385203Y-45214559D01*
X146385486Y-45232145D01*
X146384635Y-45254554D01*
X146383784Y-45269305D01*
X146381186Y-45291660D01*
X146377783Y-45314509D01*
X146375838Y-45329823D01*
X146370247Y-45352186D01*
X146362469Y-45382084D01*
X146353475Y-45407364D01*
X146344481Y-45431428D01*
X146334646Y-45453226D01*
X146317033Y-45487447D01*
X146294386Y-45527707D01*
X146249597Y-45591117D01*
X146176122Y-45680696D01*
X146126804Y-45739073D01*
X146072205Y-45802548D01*
X146083811Y-45821971D01*
X146111724Y-45868109D01*
X146128076Y-45895105D01*
X146141429Y-45916973D01*
X146229134Y-46061677D01*
X146278621Y-46142657D01*
X146301645Y-46181030D01*
X146431233Y-46390514D01*
X146433164Y-46393563D01*
X146435094Y-46396306D01*
X146436822Y-46398135D01*
X146439972Y-46401184D01*
X146442817Y-46403724D01*
X146446272Y-46406264D01*
X146450032Y-46408805D01*
X146455316Y-46411650D01*
X146459685Y-46414089D01*
X146463648Y-46415918D01*
X146469542Y-46418153D01*
X146474521Y-46420084D01*
X146479093Y-46421506D01*
X146485190Y-46423234D01*
X146489510Y-46424403D01*
X146492851Y-46425145D01*
X146497584Y-46426073D01*
X146501759Y-46426537D01*
X146506770Y-46427001D01*
X146511688Y-46427372D01*
X146517163Y-46427558D01*
X146522731Y-46427743D01*
X146528484Y-46428022D01*
X146533959Y-46428207D01*
X146537857Y-46428207D01*
X146542311Y-46428300D01*
X146547229Y-46428486D01*
X146550199Y-46428764D01*
X146576274Y-46430806D01*
X146581138Y-46431148D01*
X146584329Y-46431470D01*
X146589775Y-46432050D01*
X146596865Y-46432856D01*
X146627667Y-46436768D01*
X146639286Y-46438509D01*
X146648141Y-46439840D01*
X146662730Y-46442706D01*
X146676602Y-46445368D01*
X146687248Y-46447722D01*
X146703957Y-46451568D01*
X146713000Y-46453688D01*
X146724413Y-46456807D01*
X146736637Y-46460112D01*
X146746740Y-46463106D01*
X146757203Y-46466367D01*
X146772735Y-46471269D01*
X146785171Y-46475810D01*
X146803748Y-46482518D01*
X146811849Y-46485769D01*
X146825351Y-46491367D01*
X146833919Y-46494846D01*
X146841390Y-46498215D01*
X146848750Y-46501621D01*
X146855305Y-46504587D01*
X146868491Y-46510879D01*
X146876818Y-46515142D01*
X146884500Y-46518958D01*
X146891489Y-46522576D01*
X146897982Y-46526194D01*
X146905020Y-46530159D01*
X146911116Y-46533579D01*
X146919143Y-46538041D01*
X146929882Y-46544619D01*
X146936460Y-46548646D01*
X146942635Y-46552405D01*
X146950756Y-46557573D01*
X146959414Y-46563479D01*
X146970959Y-46571265D01*
X146978745Y-46576702D01*
X147006337Y-46597496D01*
X147032997Y-46618824D01*
X147053125Y-46634953D01*
X147118261Y-46687339D01*
X147143202Y-46709313D01*
X147229688Y-46785969D01*
X147242603Y-46798470D01*
X147255766Y-46811302D01*
X147281016Y-46835973D01*
X147297740Y-46852448D01*
X147323172Y-46877439D01*
X147337014Y-46890906D01*
X147349640Y-46904654D01*
X147364075Y-46920518D01*
X147379178Y-46936920D01*
X147396979Y-46956220D01*
X147411642Y-46972174D01*
X147422669Y-46984256D01*
X147429321Y-46991363D01*
X147434013Y-46996442D01*
X147436701Y-46999554D01*
X147439208Y-47002574D01*
X147441948Y-47005859D01*
X147443816Y-47008133D01*
X147447185Y-47012223D01*
X147449591Y-47015105D01*
X147451169Y-47017036D01*
X147454355Y-47020910D01*
X147457210Y-47024387D01*
X147459991Y-47027626D01*
X147464494Y-47033097D01*
X147467290Y-47036504D01*
X147485750Y-47058743D01*
X147491915Y-47066200D01*
X147498191Y-47073805D01*
X147507611Y-47085105D01*
X147513139Y-47091862D01*
X147517746Y-47097389D01*
X147520637Y-47100895D01*
X147616219Y-47230377D01*
X147699508Y-47356881D01*
X147785154Y-47506959D01*
X147821369Y-47577467D01*
X147842843Y-47622978D01*
X147895621Y-47743373D01*
X147918848Y-47803576D01*
X147940031Y-47858577D01*
X147949507Y-47887007D01*
X147977056Y-47971215D01*
X147984957Y-47994041D01*
X147992156Y-48021257D01*
X148005752Y-48071063D01*
X148011979Y-48093574D01*
X148016864Y-48111008D01*
X148023209Y-48134719D01*
X148025092Y-48143162D01*
X148027235Y-48152515D01*
X148029017Y-48161045D01*
X148030213Y-48166194D01*
X148030742Y-48168616D01*
X148032857Y-48178259D01*
X148033869Y-48182555D01*
X148034817Y-48186967D01*
X148035449Y-48189722D01*
X148037249Y-48197894D01*
X148037783Y-48200252D01*
X148038134Y-48201725D01*
X148038404Y-48203003D01*
X148038658Y-48204095D01*
X148040256Y-48211239D01*
X148040567Y-48212619D01*
X148040774Y-48213603D01*
X148041018Y-48214669D01*
X148041219Y-48215512D01*
X148041392Y-48216304D01*
X148041503Y-48216840D01*
X148059689Y-48306289D01*
X148070428Y-48364212D01*
X148079540Y-48422786D01*
X148083216Y-48444941D01*
X148086401Y-48467767D01*
X148090117Y-48498025D01*
X148094629Y-48533591D01*
X148099406Y-48575262D01*
X148102326Y-48603132D01*
X148103656Y-48621597D01*
X148104660Y-48644793D01*
X148105129Y-48655157D01*
X148105474Y-48663418D01*
X148105731Y-48687033D01*
X148103445Y-48821283D01*
X148101577Y-48874354D01*
X148100829Y-48903320D01*
X148100082Y-48952654D01*
X148099923Y-48978053D01*
X148103204Y-48974282D01*
X148106424Y-48970573D01*
X148107953Y-48968821D01*
X148146080Y-48924806D01*
X148155167Y-48914204D01*
X148162654Y-48905549D01*
X148180860Y-48883596D01*
X148187972Y-48874538D01*
X148195295Y-48865141D01*
X148207812Y-48848258D01*
X148215331Y-48837393D01*
X148220058Y-48830400D01*
X148225019Y-48823107D01*
X148228214Y-48818188D01*
X148230642Y-48814322D01*
X148233453Y-48809786D01*
X148234922Y-48807422D01*
X148238145Y-48802281D01*
X148241340Y-48797008D01*
X148244382Y-48792003D01*
X148247038Y-48787230D01*
X148249887Y-48782341D01*
X148252273Y-48778221D01*
X148254198Y-48774834D01*
X148259430Y-48765175D01*
X148261021Y-48762173D01*
X148262871Y-48758581D01*
X148264235Y-48755943D01*
X148269873Y-48745202D01*
X148270784Y-48743308D01*
X148271196Y-48742446D01*
X148271670Y-48741438D01*
X148271986Y-48740794D01*
X148272738Y-48739179D01*
X148273394Y-48737783D01*
X148274244Y-48735998D01*
X148278787Y-48726441D01*
X148281186Y-48721304D01*
X148283970Y-48715103D01*
X148285464Y-48711527D01*
X148289329Y-48702456D01*
X148290422Y-48699831D01*
X148291354Y-48697691D01*
X148292520Y-48694943D01*
X148293469Y-48692505D01*
X148294538Y-48689572D01*
X148295498Y-48686859D01*
X148298066Y-48679664D01*
X148299262Y-48676398D01*
X148304169Y-48662759D01*
X148307244Y-48654090D01*
X148311524Y-48642053D01*
X148311898Y-48640655D01*
X148312853Y-48637264D01*
X148316683Y-48623265D01*
X148318383Y-48617007D01*
X148319779Y-48611747D01*
X148320409Y-48609498D01*
X148320894Y-48607683D01*
X148324692Y-48593790D01*
X148325329Y-48591411D01*
X148325731Y-48589869D01*
X148330368Y-48565698D01*
X148335682Y-48539267D01*
X148337080Y-48528919D01*
X148338199Y-48518011D01*
X148339318Y-48507943D01*
X148340357Y-48498936D01*
X148341088Y-48492469D01*
X148341632Y-48487833D01*
X148341953Y-48484992D01*
X148342614Y-48471187D01*
X148342843Y-48466194D01*
X148343170Y-48458376D01*
X148343504Y-48452130D01*
X148343614Y-48449806D01*
X148343988Y-48442299D01*
X148344090Y-48440095D01*
X148344157Y-48438582D01*
X148344451Y-48432337D01*
X148344431Y-48430678D01*
X148344396Y-48429033D01*
X148344178Y-48415358D01*
X148344075Y-48409898D01*
X148344040Y-48406594D01*
X148343771Y-48390036D01*
X148343721Y-48384949D01*
X148343622Y-48378282D01*
X148343128Y-48371960D01*
X148342239Y-48360700D01*
X148341850Y-48355848D01*
X148341511Y-48351416D01*
X148341285Y-48348183D01*
X148341068Y-48345598D01*
X148340954Y-48343853D01*
X148340410Y-48336724D01*
X148339721Y-48327500D01*
X148331314Y-48265702D01*
X148311677Y-48167059D01*
X148294122Y-48101900D01*
X148280436Y-48055783D01*
X148257526Y-47989136D01*
X148236699Y-47934688D01*
X148202391Y-47843463D01*
X148186022Y-47800558D01*
X148176890Y-47776608D01*
X148128996Y-47650552D01*
X148108554Y-47596914D01*
X148071472Y-47498838D01*
X148051511Y-47445552D01*
X148040516Y-47416626D01*
X147943629Y-47161553D01*
X147936390Y-47140380D01*
X147928428Y-47115770D01*
X147919018Y-47086455D01*
X147910735Y-47058451D01*
X147905123Y-47038245D01*
X147898668Y-47017197D01*
X147893897Y-46995588D01*
X147887162Y-46967243D01*
X147880707Y-46941705D01*
X147875094Y-46915606D01*
X147870885Y-46893435D01*
X147866675Y-46873510D01*
X147861904Y-46846288D01*
X147853255Y-46783246D01*
X147843608Y-46717861D01*
X147838249Y-46663196D01*
X147836105Y-46602099D01*
X147830746Y-46534571D01*
X147830746Y-46454181D01*
X147832890Y-46384509D01*
X147838249Y-46320196D01*
X147850040Y-46256956D01*
X147874693Y-46172278D01*
X147911136Y-46098318D01*
X147931895Y-46066081D01*
X147952826Y-46040320D01*
X147971610Y-46021000D01*
X147993614Y-46000606D01*
X148019375Y-45982358D01*
X148042989Y-45967868D01*
X148073580Y-45953914D01*
X148096121Y-45945327D01*
X148122955Y-45937277D01*
X148151400Y-45931373D01*
X148184674Y-45928153D01*
X148210700Y-45926833D01*
X148227091Y-45926833D01*
X148240204Y-45927578D01*
X148253912Y-45928621D01*
X148262704Y-45929515D01*
X148274028Y-45930707D01*
X148290270Y-45932793D01*
X148305469Y-45934730D01*
X148323498Y-45938008D01*
X148345551Y-45942330D01*
X148362389Y-45945906D01*
X148401311Y-45955416D01*
X148426732Y-45962119D01*
X148461668Y-45972862D01*
X148479259Y-45978856D01*
X148488210Y-45981930D01*
X148533488Y-45998605D01*
X148556567Y-46008477D01*
X148566578Y-46013551D01*
X148578743Y-46021198D01*
X148584721Y-46025470D01*
X148590158Y-46029820D01*
X148594229Y-46033389D01*
X148600664Y-46039725D01*
X148604708Y-46043991D01*
X148608640Y-46048816D01*
X148611512Y-46052720D01*
X148615523Y-46058588D01*
X148618925Y-46064311D01*
X148621400Y-46069106D01*
X148623835Y-46074740D01*
X148625386Y-46078652D01*
X148626245Y-46081110D01*
X148627143Y-46083900D01*
X148628043Y-46087085D01*
X148628907Y-46090253D01*
X148629569Y-46093363D01*
X148630166Y-46096335D01*
X148630504Y-46098243D01*
X148630582Y-46098848D01*
X148630856Y-46100935D01*
X148630990Y-46102052D01*
X148631079Y-46102778D01*
X148631329Y-46104609D01*
X148631441Y-46105441D01*
X148631502Y-46106457D01*
X148631812Y-46112226D01*
X148631812Y-46122371D01*
X148631175Y-46129771D01*
X148629508Y-46140210D01*
X148628456Y-46145183D01*
X148627591Y-46148508D01*
X148626677Y-46152066D01*
X148626328Y-46153263D01*
X148623718Y-46161184D01*
X148621126Y-46167959D01*
X148620164Y-46170413D01*
X148615262Y-46180782D01*
X148608741Y-46192798D01*
X148602220Y-46203303D01*
X148594914Y-46213688D01*
X148587527Y-46223244D01*
X148586449Y-46224612D01*
X148585623Y-46225639D01*
X148566159Y-46249118D01*
X148542924Y-46275715D01*
X148514962Y-46305041D01*
X148511535Y-46308345D01*
X148504026Y-46315809D01*
X148499035Y-46320685D01*
X148484661Y-46334433D01*
X148476857Y-46341473D01*
X148454861Y-46361114D01*
X148425069Y-46386290D01*
X148404846Y-46402695D01*
X148392210Y-46412844D01*
X148377984Y-46425776D01*
X148358843Y-46444141D01*
X148335823Y-46468972D01*
X148322373Y-46485526D01*
X148310992Y-46501045D01*
X148297283Y-46520444D01*
X148279763Y-46551350D01*
X148269607Y-46571098D01*
X148260649Y-46591558D01*
X148255592Y-46604791D01*
X148250197Y-46619373D01*
X148246067Y-46632607D01*
X148242106Y-46646936D01*
X148239324Y-46656460D01*
X148236796Y-46667814D01*
X148234224Y-46679327D01*
X148233428Y-46683553D01*
X148232226Y-46690745D01*
X148231280Y-46696611D01*
X148230730Y-46699831D01*
X148230452Y-46701694D01*
X148230182Y-46703278D01*
X148228786Y-46712003D01*
X148228577Y-46713651D01*
X148228367Y-46716047D01*
X148227918Y-46719641D01*
X148225905Y-46738707D01*
X148225166Y-46749666D01*
X148224551Y-46765428D01*
X148224058Y-46779465D01*
X148223689Y-46791409D01*
X148224598Y-46824022D01*
X148227631Y-46859350D01*
X148230486Y-46891466D01*
X148233236Y-46911272D01*
X148234467Y-46920503D01*
X148235821Y-46930308D01*
X148236969Y-46936995D01*
X148244565Y-46982877D01*
X148261112Y-47049064D01*
X148284898Y-47127661D01*
X148310752Y-47202121D01*
X148330401Y-47248658D01*
X148353153Y-47300367D01*
X148375904Y-47350007D01*
X148407964Y-47414125D01*
X148426428Y-47450335D01*
X148445034Y-47484866D01*
X148460791Y-47514704D01*
X148469507Y-47531345D01*
X148474832Y-47541577D01*
X148484341Y-47559965D01*
X148501198Y-47592404D01*
X148506051Y-47601800D01*
X148508006Y-47605536D01*
X148514754Y-47618559D01*
X148517667Y-47624158D01*
X148519585Y-47627890D01*
X148521260Y-47631103D01*
X148522736Y-47633975D01*
X148527189Y-47642541D01*
X148528415Y-47644871D01*
X148536098Y-47659729D01*
X148538145Y-47663766D01*
X148539592Y-47666828D01*
X148542522Y-47672987D01*
X148544392Y-47676912D01*
X148546139Y-47680611D01*
X148550975Y-47690696D01*
X148552639Y-47694193D01*
X148553747Y-47696510D01*
X148554330Y-47697775D01*
X148556956Y-47703282D01*
X148559789Y-47709148D01*
X148561668Y-47713135D01*
X148562101Y-47713989D01*
X148586810Y-47766830D01*
X148602924Y-47804343D01*
X148617454Y-47837365D01*
X148627345Y-47861707D01*
X148630359Y-47869280D01*
X148639962Y-47892703D01*
X148643683Y-47901915D01*
X148646134Y-47907905D01*
X148648629Y-47914530D01*
X148650944Y-47921020D01*
X148667426Y-47966025D01*
X148670635Y-47974797D01*
X148672074Y-47978706D01*
X148676496Y-47990931D01*
X148677929Y-47995201D01*
X148679333Y-47999670D01*
X148680679Y-48003968D01*
X148682759Y-48011035D01*
X148693220Y-48041942D01*
X148705583Y-48081408D01*
X148712002Y-48107085D01*
X148718621Y-48130776D01*
X148720171Y-48136589D01*
X148721666Y-48142015D01*
X148723438Y-48148991D01*
X148724853Y-48153804D01*
X148725673Y-48156953D01*
X148726558Y-48160122D01*
X148726935Y-48161693D01*
X148727172Y-48162727D01*
X148727375Y-48163697D01*
X148729152Y-48171784D01*
X148729667Y-48174077D01*
X148729812Y-48174825D01*
X148731192Y-48181128D01*
X148731608Y-48183067D01*
X148731890Y-48184327D01*
X148733991Y-48193890D01*
X148734379Y-48195636D01*
X148735647Y-48201488D01*
X148736766Y-48206588D01*
X148737914Y-48211722D01*
X148738805Y-48215839D01*
X148740011Y-48221450D01*
X148740540Y-48223775D01*
X148740763Y-48224893D01*
X148741031Y-48226043D01*
X148741271Y-48227137D01*
X148746641Y-48253285D01*
X148749194Y-48268021D01*
X148751166Y-48280437D01*
X148752791Y-48290996D01*
X148759216Y-48330947D01*
X148759930Y-48334338D01*
X148762340Y-48357004D01*
X148765106Y-48383150D01*
X148766802Y-48399570D01*
X148768122Y-48412152D01*
X148769318Y-48423096D01*
X148769485Y-48428166D01*
X148770655Y-48452628D01*
X148773218Y-48513942D01*
X148772881Y-48534863D01*
X148771531Y-48608083D01*
X148764783Y-48696487D01*
X148752101Y-48777817D01*
X148744957Y-48815920D01*
X148730076Y-48884221D01*
X148716437Y-48933470D01*
X148699768Y-48981205D01*
X148681963Y-49028181D01*
X148671166Y-49052238D01*
X148630734Y-49141734D01*
X148613207Y-49174490D01*
X148593239Y-49214547D01*
X148582531Y-49233059D01*
X148576723Y-49242859D01*
X148569373Y-49255291D01*
X148565698Y-49261507D01*
X148526744Y-49325675D01*
X148491205Y-49378273D01*
X148463342Y-49418362D01*
X148442445Y-49445941D01*
X148431996Y-49459730D01*
X148426772Y-49466625D01*
X148403150Y-49494982D01*
X148376027Y-49528001D01*
X148354447Y-49552176D01*
X148343657Y-49564264D01*
X148320519Y-49590999D01*
X148293144Y-49618921D01*
X148263396Y-49649764D01*
X148254773Y-49657931D01*
X148244318Y-49667146D01*
X148230340Y-49681842D01*
X148208118Y-49702988D01*
X148173709Y-49733096D01*
X148121379Y-49776824D01*
X148048619Y-49834171D01*
X147951845Y-49901913D01*
X147866610Y-49955059D01*
X147786868Y-50003109D01*
X147695880Y-50048091D01*
X147619204Y-50084896D01*
X147543551Y-50114543D01*
X147415759Y-50164638D01*
X147314548Y-50194286D01*
X147164852Y-50236647D01*
X146996481Y-50269941D01*
X146776743Y-50304186D01*
X146464129Y-50335233D01*
X146170531Y-50350509D01*
X145992843Y-50352476D01*
X145857784Y-50351589D01*
X145795911Y-50349280D01*
X145689183Y-50345218D01*
X145555260Y-50331477D01*
X145520658Y-50323204D01*
X145511102Y-50318636D01*
X145507426Y-50313840D01*
X145490831Y-49990889D01*
X145474161Y-49672334D01*
X145442816Y-49066064D01*
X145423169Y-48943221D01*
X145408383Y-48863100D01*
X145372379Y-48700167D01*
X145342568Y-48585198D01*
X145305238Y-48470791D01*
X145277315Y-48396361D01*
X145247830Y-48324676D01*
X145140023Y-48116967D01*
X145080657Y-48030201D01*
X144943981Y-47823194D01*
X144822974Y-47625714D01*
X144764666Y-47525440D01*
X144688215Y-47385202D01*
X144583620Y-47170744D01*
X144522863Y-47018093D01*
X144505992Y-46965408D01*
X144478780Y-46875476D01*
X144439630Y-46716976D01*
X144419112Y-46606179D01*
X144406236Y-46528432D01*
X144396860Y-46461757D01*
X144389635Y-46410173D01*
X144371570Y-46251734D01*
X144357354Y-46102459D01*
X144341476Y-45932294D01*
X144336296Y-45875339D01*
X144333068Y-45852541D01*
X144327419Y-45830954D01*
X144320559Y-45812797D01*
X144314252Y-45798395D01*
X144310947Y-45791630D01*
X144306476Y-45782890D01*
X144301183Y-45773948D01*
X144296256Y-45766222D01*
X144290618Y-45758317D01*
X144284017Y-45749689D01*
X144276916Y-45741681D01*
X144268665Y-45733430D01*
X144258731Y-45723416D01*
X144227508Y-45691761D01*
X144223586Y-45687750D01*
X144216278Y-45679417D01*
X144209147Y-45671351D01*
X144187449Y-45646662D01*
X144182125Y-45640586D01*
X144168472Y-45622817D01*
X144148315Y-45596788D01*
X144147270Y-45595516D01*
X144146102Y-45593947D01*
X144138691Y-45582915D01*
X144126664Y-45564968D01*
X144119655Y-45554484D01*
X144113186Y-45544970D01*
X144107535Y-45535187D01*
X144100629Y-45523625D01*
X144093933Y-45511696D01*
X144090381Y-45505033D01*
X144084503Y-45494161D01*
X144073000Y-45470992D01*
X144065259Y-45453716D01*
X144057329Y-45434931D01*
X144040978Y-45391734D01*
X144027080Y-45339556D01*
X144020924Y-45308548D01*
X144016740Y-45284396D01*
X144013698Y-45259104D01*
X144011088Y-45223682D01*
X144010665Y-45193744D01*
X144010803Y-45176003D01*
X144011698Y-45151872D01*
X144012594Y-45140024D01*
X144013489Y-45129898D01*
X144015599Y-45108221D01*
X144017626Y-45094031D01*
X144021004Y-45072545D01*
X144024788Y-45052680D01*
X144029234Y-45031109D01*
X144036784Y-45000460D01*
X144043102Y-44977147D01*
X144046147Y-44967223D01*
X144055419Y-44939213D01*
X144069608Y-44900542D01*
X144080877Y-44870891D01*
X144096883Y-44829990D01*
X144115511Y-44782829D01*
X144134185Y-44735247D01*
X144151256Y-44692033D01*
X144159452Y-44671292D01*
X144165422Y-44656079D01*
X144174203Y-44633599D01*
X144179040Y-44621079D01*
X144193785Y-44582913D01*
X144201807Y-44562148D01*
X144209829Y-44541384D01*
X144217851Y-44520620D01*
X144221212Y-44511919D01*
X144224574Y-44503217D01*
X144229234Y-44491155D01*
X144232596Y-44482453D01*
X144237256Y-44470390D01*
X144240617Y-44461689D01*
X144243979Y-44452987D01*
X144248639Y-44440925D01*
X144252001Y-44432223D01*
X144256661Y-44420161D01*
X144260023Y-44411459D01*
X144267709Y-44391562D01*
X144294017Y-44323021D01*
X144298752Y-44310691D01*
X144301989Y-44302161D01*
X144309969Y-44281564D01*
X144311635Y-44277160D01*
X144313276Y-44272898D01*
X144321300Y-44252064D01*
X144324675Y-44243475D01*
X144326048Y-44239954D01*
X144329305Y-44231258D01*
X144332673Y-44222536D01*
X144337346Y-44210539D01*
X144339050Y-44206133D01*
X144340685Y-44201807D01*
X144344075Y-44193145D01*
X144348724Y-44180976D01*
X144352130Y-44172376D01*
X144360151Y-44151659D01*
X144368098Y-44130975D01*
X144371644Y-44122031D01*
X144387592Y-44080810D01*
X144403211Y-44042700D01*
X144410372Y-44021460D01*
X144421636Y-43992673D01*
X144433200Y-43962324D01*
X144445072Y-43931407D01*
X144453423Y-43909583D01*
X144456294Y-43904348D01*
X144468885Y-43890074D01*
X144479800Y-43876753D01*
X144489659Y-43902179D01*
G37*
G36*
X138149852Y-43911087D02*
G01*
X138158833Y-43934143D01*
X138220927Y-44090642D01*
X138308783Y-44327868D01*
X138310674Y-44331272D01*
X138313574Y-44335937D01*
X138316852Y-44340980D01*
X138320635Y-44346149D01*
X138325426Y-44352075D01*
X138329208Y-44355857D01*
X138333747Y-44359892D01*
X138337655Y-44362792D01*
X138341816Y-44365565D01*
X138346859Y-44368717D01*
X138352406Y-44371239D01*
X138358332Y-44373508D01*
X138364384Y-44375526D01*
X138369805Y-44376912D01*
X138375101Y-44378047D01*
X138380522Y-44378930D01*
X138388480Y-44379893D01*
X138395486Y-44380369D01*
X138402288Y-44380641D01*
X138411607Y-44380778D01*
X138420177Y-44380710D01*
X138432693Y-44380233D01*
X138442827Y-44379553D01*
X138454118Y-44378533D01*
X138504084Y-44374354D01*
X138527159Y-44372388D01*
X138538150Y-44371369D01*
X138545574Y-44370787D01*
X138551543Y-44370350D01*
X138557584Y-44370038D01*
X138607180Y-44367243D01*
X138629109Y-44366034D01*
X138638550Y-44365480D01*
X138647441Y-44365004D01*
X138652351Y-44364738D01*
X138656211Y-44364590D01*
X138659908Y-44364472D01*
X138669333Y-44364208D01*
X138676012Y-44364003D01*
X138680367Y-44363871D01*
X138694010Y-44363492D01*
X138698598Y-44363370D01*
X138701587Y-44363248D01*
X138705636Y-44363144D01*
X138709459Y-44363022D01*
X138712431Y-44362970D01*
X138776950Y-44361680D01*
X138788623Y-44361521D01*
X138810701Y-44361521D01*
X138822613Y-44361442D01*
X138835954Y-44361362D01*
X138862031Y-44361089D01*
X138869313Y-44361238D01*
X138875670Y-44361298D01*
X138880923Y-44361417D01*
X138902399Y-44361757D01*
X138913129Y-44361913D01*
X138922469Y-44362111D01*
X138928308Y-44362182D01*
X138933815Y-44362324D01*
X138940129Y-44362419D01*
X138948473Y-44362563D01*
X138956611Y-44362657D01*
X138961937Y-44362769D01*
X138966925Y-44362863D01*
X138973999Y-44363120D01*
X138978776Y-44363301D01*
X138986787Y-44363564D01*
X138991318Y-44363744D01*
X139000519Y-44364086D01*
X139004016Y-44364211D01*
X139014068Y-44364558D01*
X139021035Y-44364793D01*
X139026723Y-44365027D01*
X139033136Y-44365261D01*
X139037247Y-44365452D01*
X139040598Y-44365502D01*
X139043495Y-44365628D01*
X139047022Y-44365704D01*
X139051380Y-44365880D01*
X139055058Y-44366006D01*
X139059114Y-44366182D01*
X139063019Y-44366308D01*
X139066621Y-44366460D01*
X139075270Y-44366867D01*
X139079665Y-44367048D01*
X139085172Y-44367358D01*
X139095253Y-44367890D01*
X139102786Y-44368294D01*
X139109647Y-44368596D01*
X139138403Y-44370187D01*
X139143421Y-44370480D01*
X139147338Y-44370671D01*
X139150522Y-44370847D01*
X139162837Y-44371459D01*
X139172650Y-44371976D01*
X139180784Y-44372492D01*
X139188057Y-44372965D01*
X139195158Y-44373439D01*
X139228071Y-44375701D01*
X139239278Y-44376424D01*
X139249641Y-44377147D01*
X139260205Y-44377830D01*
X139268882Y-44378432D01*
X139278200Y-44379155D01*
X139292033Y-44380106D01*
X139302001Y-44380463D01*
X139306345Y-44380523D01*
X139310867Y-44380552D01*
X139315419Y-44380493D01*
X139319347Y-44380433D01*
X139322590Y-44380165D01*
X139326309Y-44379898D01*
X139329939Y-44379600D01*
X139332379Y-44379273D01*
X139340013Y-44378123D01*
X139342809Y-44377514D01*
X139346075Y-44376794D01*
X139348870Y-44376047D01*
X139352551Y-44374912D01*
X139355485Y-44373943D01*
X139358890Y-44372587D01*
X139369140Y-44367395D01*
X139373077Y-44364851D01*
X139376529Y-44362368D01*
X139380467Y-44359036D01*
X139384373Y-44355281D01*
X139386948Y-44352464D01*
X139390097Y-44348770D01*
X139393929Y-44343441D01*
X139396353Y-44339823D01*
X139398605Y-44336205D01*
X139400722Y-44332519D01*
X139403043Y-44328355D01*
X139405569Y-44322928D01*
X139407446Y-44318934D01*
X139408640Y-44316169D01*
X139410113Y-44312616D01*
X139412196Y-44307442D01*
X139414408Y-44301878D01*
X139416328Y-44296802D01*
X139418248Y-44292051D01*
X139420038Y-44287267D01*
X139426448Y-44270682D01*
X139430153Y-44261318D01*
X139432351Y-44255536D01*
X139440816Y-44233765D01*
X139442610Y-44229069D01*
X139444271Y-44224816D01*
X139445379Y-44222002D01*
X139452235Y-44204398D01*
X139453757Y-44200298D01*
X139455058Y-44197081D01*
X139456041Y-44194577D01*
X139456998Y-44191925D01*
X139457784Y-44189936D01*
X139461670Y-44179709D01*
X139464261Y-44173103D01*
X139466981Y-44166367D01*
X139468665Y-44161736D01*
X139470122Y-44158238D01*
X139534191Y-43992960D01*
X139559802Y-43926618D01*
X139575822Y-43885673D01*
X139576633Y-43887702D01*
X139589446Y-43919606D01*
X139594964Y-43933483D01*
X139598433Y-43942238D01*
X139617547Y-43989805D01*
X139622397Y-44001887D01*
X139650016Y-44070945D01*
X139683134Y-44153601D01*
X139685430Y-44159326D01*
X139717574Y-44239553D01*
X139720339Y-44246433D01*
X139721667Y-44249786D01*
X139744032Y-44305913D01*
X139749026Y-44318640D01*
X139752429Y-44327346D01*
X139776395Y-44387712D01*
X139778448Y-44392820D01*
X139786043Y-44412006D01*
X139788226Y-44417466D01*
X139792557Y-44428383D01*
X139793649Y-44431156D01*
X139794803Y-44434029D01*
X139795456Y-44435660D01*
X139852281Y-44581572D01*
X139888286Y-44676406D01*
X139935631Y-44810868D01*
X139962379Y-44888539D01*
X139972409Y-44919144D01*
X139985383Y-44959404D01*
X139995934Y-44993203D01*
X140001299Y-45011086D01*
X140005412Y-45025571D01*
X140008967Y-45037047D01*
X140020276Y-45076995D01*
X140026880Y-45101527D01*
X140030421Y-45115437D01*
X140032760Y-45124732D01*
X140033673Y-45129529D01*
X140034558Y-45134341D01*
X140035466Y-45138949D01*
X140039155Y-45160778D01*
X140041141Y-45172408D01*
X140043127Y-45187726D01*
X140044261Y-45203611D01*
X140045396Y-45223467D01*
X140045679Y-45241053D01*
X140044828Y-45263462D01*
X140043977Y-45278213D01*
X140041379Y-45300568D01*
X140037976Y-45323417D01*
X140036031Y-45338731D01*
X140030440Y-45361094D01*
X140022662Y-45390992D01*
X140013668Y-45416272D01*
X140004674Y-45440336D01*
X139994839Y-45462134D01*
X139977226Y-45496355D01*
X139954579Y-45536615D01*
X139909790Y-45600025D01*
X139836315Y-45689604D01*
X139786997Y-45747981D01*
X139732398Y-45811456D01*
X139744004Y-45830879D01*
X139771917Y-45877017D01*
X139788269Y-45904013D01*
X139801622Y-45925881D01*
X139889327Y-46070585D01*
X139938814Y-46151565D01*
X139961838Y-46189938D01*
X140091426Y-46399422D01*
X140093357Y-46402471D01*
X140095287Y-46405214D01*
X140097015Y-46407043D01*
X140100165Y-46410092D01*
X140103010Y-46412632D01*
X140106465Y-46415172D01*
X140110225Y-46417713D01*
X140115509Y-46420558D01*
X140119878Y-46422997D01*
X140123841Y-46424826D01*
X140129735Y-46427061D01*
X140134714Y-46428992D01*
X140139286Y-46430414D01*
X140145383Y-46432142D01*
X140149703Y-46433311D01*
X140153044Y-46434053D01*
X140157777Y-46434981D01*
X140161952Y-46435445D01*
X140166963Y-46435909D01*
X140171881Y-46436280D01*
X140177356Y-46436466D01*
X140182924Y-46436651D01*
X140188677Y-46436930D01*
X140194152Y-46437115D01*
X140198050Y-46437115D01*
X140202504Y-46437208D01*
X140207422Y-46437394D01*
X140210392Y-46437672D01*
X140236467Y-46439714D01*
X140241331Y-46440056D01*
X140244522Y-46440378D01*
X140249968Y-46440958D01*
X140257058Y-46441764D01*
X140287860Y-46445676D01*
X140299479Y-46447417D01*
X140308334Y-46448748D01*
X140322923Y-46451614D01*
X140336795Y-46454276D01*
X140347441Y-46456630D01*
X140364150Y-46460476D01*
X140373193Y-46462596D01*
X140384606Y-46465715D01*
X140396830Y-46469020D01*
X140406933Y-46472014D01*
X140417396Y-46475275D01*
X140432928Y-46480177D01*
X140445364Y-46484718D01*
X140463941Y-46491426D01*
X140472042Y-46494677D01*
X140485544Y-46500275D01*
X140494112Y-46503754D01*
X140501583Y-46507123D01*
X140508943Y-46510529D01*
X140515498Y-46513495D01*
X140528684Y-46519787D01*
X140537011Y-46524050D01*
X140544693Y-46527866D01*
X140551682Y-46531484D01*
X140558175Y-46535102D01*
X140565213Y-46539067D01*
X140571309Y-46542487D01*
X140579336Y-46546949D01*
X140590075Y-46553527D01*
X140596653Y-46557554D01*
X140602828Y-46561313D01*
X140610949Y-46566481D01*
X140619607Y-46572387D01*
X140631152Y-46580173D01*
X140638938Y-46585610D01*
X140666530Y-46606404D01*
X140693190Y-46627732D01*
X140713318Y-46643861D01*
X140778454Y-46696247D01*
X140803395Y-46718221D01*
X140889881Y-46794877D01*
X140902796Y-46807378D01*
X140915959Y-46820210D01*
X140941209Y-46844881D01*
X140957933Y-46861356D01*
X140983365Y-46886347D01*
X140997207Y-46899814D01*
X141009833Y-46913562D01*
X141024268Y-46929426D01*
X141039371Y-46945828D01*
X141057172Y-46965128D01*
X141071835Y-46981082D01*
X141082862Y-46993164D01*
X141089514Y-47000271D01*
X141094206Y-47005350D01*
X141096894Y-47008462D01*
X141099401Y-47011482D01*
X141102141Y-47014767D01*
X141104009Y-47017041D01*
X141107378Y-47021131D01*
X141109784Y-47024013D01*
X141111362Y-47025944D01*
X141114548Y-47029818D01*
X141117403Y-47033295D01*
X141120184Y-47036534D01*
X141124687Y-47042005D01*
X141127483Y-47045412D01*
X141145943Y-47067651D01*
X141152108Y-47075108D01*
X141158384Y-47082713D01*
X141167804Y-47094013D01*
X141173332Y-47100770D01*
X141177939Y-47106297D01*
X141180830Y-47109803D01*
X141276412Y-47239285D01*
X141359701Y-47365789D01*
X141445347Y-47515867D01*
X141481562Y-47586375D01*
X141503036Y-47631886D01*
X141555814Y-47752281D01*
X141579041Y-47812484D01*
X141600224Y-47867485D01*
X141609700Y-47895915D01*
X141637249Y-47980123D01*
X141645150Y-48002949D01*
X141652349Y-48030165D01*
X141665945Y-48079971D01*
X141672172Y-48102482D01*
X141677057Y-48119916D01*
X141683402Y-48143627D01*
X141685285Y-48152070D01*
X141687428Y-48161423D01*
X141689210Y-48169953D01*
X141690406Y-48175102D01*
X141690935Y-48177524D01*
X141693050Y-48187167D01*
X141694062Y-48191463D01*
X141695010Y-48195875D01*
X141695642Y-48198630D01*
X141697442Y-48206802D01*
X141697976Y-48209160D01*
X141698327Y-48210633D01*
X141698597Y-48211911D01*
X141698851Y-48213003D01*
X141700449Y-48220147D01*
X141700760Y-48221527D01*
X141700967Y-48222511D01*
X141701211Y-48223577D01*
X141701412Y-48224420D01*
X141701585Y-48225212D01*
X141701696Y-48225748D01*
X141719882Y-48315197D01*
X141730621Y-48373120D01*
X141739733Y-48431694D01*
X141743409Y-48453849D01*
X141746594Y-48476675D01*
X141750310Y-48506933D01*
X141754822Y-48542499D01*
X141759599Y-48584170D01*
X141762519Y-48612040D01*
X141763849Y-48630505D01*
X141764853Y-48653701D01*
X141765322Y-48664065D01*
X141765667Y-48672326D01*
X141765924Y-48695941D01*
X141763638Y-48830191D01*
X141761770Y-48883262D01*
X141761022Y-48912228D01*
X141760275Y-48961562D01*
X141760116Y-48986961D01*
X141763397Y-48983190D01*
X141766617Y-48979481D01*
X141768146Y-48977729D01*
X141806273Y-48933714D01*
X141815360Y-48923112D01*
X141822847Y-48914457D01*
X141841053Y-48892504D01*
X141848165Y-48883446D01*
X141855488Y-48874049D01*
X141868005Y-48857166D01*
X141875524Y-48846301D01*
X141880251Y-48839308D01*
X141885212Y-48832015D01*
X141888407Y-48827096D01*
X141890835Y-48823230D01*
X141893646Y-48818694D01*
X141895115Y-48816330D01*
X141898338Y-48811189D01*
X141901533Y-48805916D01*
X141904575Y-48800911D01*
X141907231Y-48796138D01*
X141910080Y-48791249D01*
X141912466Y-48787129D01*
X141914391Y-48783742D01*
X141919623Y-48774083D01*
X141921214Y-48771081D01*
X141923064Y-48767489D01*
X141924428Y-48764851D01*
X141930066Y-48754110D01*
X141930977Y-48752216D01*
X141931389Y-48751354D01*
X141931863Y-48750346D01*
X141932179Y-48749702D01*
X141932931Y-48748087D01*
X141933587Y-48746691D01*
X141934437Y-48744906D01*
X141938980Y-48735349D01*
X141941379Y-48730212D01*
X141944163Y-48724011D01*
X141945657Y-48720435D01*
X141949522Y-48711364D01*
X141950615Y-48708739D01*
X141951547Y-48706599D01*
X141952713Y-48703851D01*
X141953662Y-48701413D01*
X141954731Y-48698480D01*
X141955691Y-48695767D01*
X141958259Y-48688572D01*
X141959455Y-48685306D01*
X141964362Y-48671667D01*
X141967437Y-48662998D01*
X141971717Y-48650961D01*
X141972091Y-48649563D01*
X141973046Y-48646172D01*
X141976876Y-48632173D01*
X141978576Y-48625915D01*
X141979972Y-48620655D01*
X141980602Y-48618406D01*
X141981087Y-48616591D01*
X141984885Y-48602698D01*
X141985522Y-48600319D01*
X141985924Y-48598777D01*
X141990561Y-48574606D01*
X141995875Y-48548175D01*
X141997273Y-48537827D01*
X141998392Y-48526919D01*
X141999511Y-48516851D01*
X142000550Y-48507844D01*
X142001281Y-48501377D01*
X142001825Y-48496741D01*
X142002146Y-48493900D01*
X142002807Y-48480095D01*
X142003036Y-48475102D01*
X142003363Y-48467284D01*
X142003697Y-48461038D01*
X142003807Y-48458714D01*
X142004181Y-48451207D01*
X142004283Y-48449003D01*
X142004350Y-48447490D01*
X142004644Y-48441245D01*
X142004624Y-48439586D01*
X142004589Y-48437941D01*
X142004371Y-48424266D01*
X142004268Y-48418806D01*
X142004233Y-48415502D01*
X142003964Y-48398944D01*
X142003914Y-48393857D01*
X142003815Y-48387190D01*
X142003321Y-48380868D01*
X142002432Y-48369608D01*
X142002043Y-48364756D01*
X142001704Y-48360324D01*
X142001478Y-48357091D01*
X142001261Y-48354506D01*
X142001147Y-48352761D01*
X142000603Y-48345632D01*
X141999914Y-48336408D01*
X141991507Y-48274610D01*
X141971870Y-48175967D01*
X141954315Y-48110808D01*
X141940629Y-48064691D01*
X141917719Y-47998044D01*
X141896892Y-47943596D01*
X141862584Y-47852371D01*
X141846215Y-47809466D01*
X141837083Y-47785516D01*
X141789189Y-47659460D01*
X141768747Y-47605822D01*
X141731665Y-47507746D01*
X141711704Y-47454460D01*
X141700709Y-47425534D01*
X141603822Y-47170461D01*
X141596583Y-47149288D01*
X141588621Y-47124678D01*
X141579211Y-47095363D01*
X141570928Y-47067359D01*
X141565316Y-47047153D01*
X141558861Y-47026105D01*
X141554090Y-47004496D01*
X141547355Y-46976151D01*
X141540900Y-46950613D01*
X141535287Y-46924514D01*
X141531078Y-46902343D01*
X141526868Y-46882418D01*
X141522097Y-46855196D01*
X141513448Y-46792154D01*
X141503801Y-46726769D01*
X141498442Y-46672104D01*
X141496298Y-46611007D01*
X141490939Y-46543479D01*
X141490939Y-46463089D01*
X141493083Y-46393417D01*
X141498442Y-46329104D01*
X141510233Y-46265864D01*
X141534886Y-46181186D01*
X141571329Y-46107226D01*
X141592088Y-46074989D01*
X141613019Y-46049228D01*
X141631803Y-46029908D01*
X141653807Y-46009514D01*
X141679568Y-45991266D01*
X141703182Y-45976776D01*
X141733773Y-45962822D01*
X141756314Y-45954235D01*
X141783148Y-45946185D01*
X141811593Y-45940281D01*
X141844867Y-45937061D01*
X141870893Y-45935741D01*
X141887284Y-45935741D01*
X141900397Y-45936486D01*
X141914105Y-45937529D01*
X141922897Y-45938423D01*
X141934221Y-45939615D01*
X141950463Y-45941701D01*
X141965662Y-45943638D01*
X141983691Y-45946916D01*
X142005744Y-45951238D01*
X142022582Y-45954814D01*
X142061504Y-45964324D01*
X142086925Y-45971027D01*
X142121861Y-45981770D01*
X142139452Y-45987764D01*
X142148403Y-45990838D01*
X142193681Y-46007513D01*
X142216760Y-46017385D01*
X142226771Y-46022459D01*
X142238936Y-46030106D01*
X142244914Y-46034378D01*
X142250351Y-46038728D01*
X142254422Y-46042297D01*
X142260857Y-46048633D01*
X142264901Y-46052899D01*
X142268833Y-46057724D01*
X142271705Y-46061628D01*
X142275716Y-46067496D01*
X142279118Y-46073219D01*
X142281593Y-46078014D01*
X142284028Y-46083648D01*
X142285579Y-46087560D01*
X142286438Y-46090018D01*
X142287336Y-46092808D01*
X142288236Y-46095993D01*
X142289100Y-46099161D01*
X142289762Y-46102271D01*
X142290359Y-46105243D01*
X142290697Y-46107151D01*
X142290775Y-46107756D01*
X142291049Y-46109843D01*
X142291183Y-46110960D01*
X142291272Y-46111686D01*
X142291522Y-46113517D01*
X142291634Y-46114349D01*
X142291695Y-46115365D01*
X142292005Y-46121134D01*
X142292005Y-46131279D01*
X142291368Y-46138679D01*
X142289701Y-46149118D01*
X142288649Y-46154091D01*
X142287784Y-46157416D01*
X142286870Y-46160974D01*
X142286521Y-46162171D01*
X142283911Y-46170092D01*
X142281319Y-46176867D01*
X142280357Y-46179321D01*
X142275455Y-46189690D01*
X142268934Y-46201706D01*
X142262413Y-46212211D01*
X142255107Y-46222596D01*
X142247720Y-46232152D01*
X142246642Y-46233520D01*
X142245816Y-46234547D01*
X142226352Y-46258026D01*
X142203117Y-46284623D01*
X142175155Y-46313949D01*
X142171728Y-46317253D01*
X142164219Y-46324717D01*
X142159228Y-46329593D01*
X142144854Y-46343341D01*
X142137050Y-46350381D01*
X142115054Y-46370022D01*
X142085262Y-46395198D01*
X142065039Y-46411603D01*
X142052403Y-46421752D01*
X142038177Y-46434684D01*
X142019036Y-46453049D01*
X141996016Y-46477880D01*
X141982566Y-46494434D01*
X141971185Y-46509953D01*
X141957476Y-46529352D01*
X141939956Y-46560258D01*
X141929800Y-46580006D01*
X141920842Y-46600466D01*
X141915785Y-46613699D01*
X141910390Y-46628281D01*
X141906260Y-46641515D01*
X141902299Y-46655844D01*
X141899517Y-46665368D01*
X141896989Y-46676722D01*
X141894417Y-46688235D01*
X141893621Y-46692461D01*
X141892419Y-46699653D01*
X141891473Y-46705519D01*
X141890923Y-46708739D01*
X141890645Y-46710602D01*
X141890375Y-46712186D01*
X141888979Y-46720911D01*
X141888770Y-46722559D01*
X141888560Y-46724955D01*
X141888111Y-46728549D01*
X141886098Y-46747615D01*
X141885359Y-46758574D01*
X141884744Y-46774336D01*
X141884251Y-46788373D01*
X141883882Y-46800317D01*
X141884791Y-46832930D01*
X141887824Y-46868258D01*
X141890679Y-46900374D01*
X141893429Y-46920180D01*
X141894660Y-46929411D01*
X141896014Y-46939216D01*
X141897162Y-46945903D01*
X141904758Y-46991785D01*
X141921305Y-47057972D01*
X141945091Y-47136569D01*
X141970945Y-47211029D01*
X141990594Y-47257566D01*
X142013346Y-47309275D01*
X142036097Y-47358915D01*
X142068157Y-47423033D01*
X142086621Y-47459243D01*
X142105227Y-47493774D01*
X142120984Y-47523612D01*
X142129700Y-47540253D01*
X142135025Y-47550485D01*
X142144534Y-47568873D01*
X142161391Y-47601312D01*
X142166244Y-47610708D01*
X142168199Y-47614444D01*
X142174947Y-47627467D01*
X142177860Y-47633066D01*
X142179778Y-47636798D01*
X142181453Y-47640011D01*
X142182929Y-47642883D01*
X142187382Y-47651449D01*
X142188608Y-47653779D01*
X142196291Y-47668637D01*
X142198338Y-47672674D01*
X142199785Y-47675736D01*
X142202715Y-47681895D01*
X142204585Y-47685820D01*
X142206332Y-47689519D01*
X142211168Y-47699604D01*
X142212832Y-47703101D01*
X142213940Y-47705418D01*
X142214523Y-47706683D01*
X142217149Y-47712190D01*
X142219982Y-47718056D01*
X142221861Y-47722043D01*
X142222294Y-47722897D01*
X142247003Y-47775738D01*
X142263117Y-47813251D01*
X142277647Y-47846273D01*
X142287538Y-47870615D01*
X142290552Y-47878188D01*
X142300155Y-47901611D01*
X142303876Y-47910823D01*
X142306327Y-47916813D01*
X142308822Y-47923438D01*
X142311137Y-47929928D01*
X142327619Y-47974933D01*
X142330828Y-47983705D01*
X142332267Y-47987614D01*
X142336689Y-47999839D01*
X142338122Y-48004109D01*
X142339526Y-48008578D01*
X142340872Y-48012876D01*
X142342952Y-48019943D01*
X142353413Y-48050850D01*
X142365776Y-48090316D01*
X142372195Y-48115993D01*
X142378814Y-48139684D01*
X142380364Y-48145497D01*
X142381859Y-48150923D01*
X142383631Y-48157899D01*
X142385046Y-48162712D01*
X142385866Y-48165861D01*
X142386751Y-48169030D01*
X142387128Y-48170601D01*
X142387365Y-48171635D01*
X142387568Y-48172605D01*
X142389345Y-48180692D01*
X142389860Y-48182985D01*
X142390005Y-48183733D01*
X142391385Y-48190036D01*
X142391801Y-48191975D01*
X142392083Y-48193235D01*
X142394184Y-48202798D01*
X142394572Y-48204544D01*
X142395840Y-48210396D01*
X142396959Y-48215496D01*
X142398107Y-48220630D01*
X142398998Y-48224747D01*
X142400204Y-48230358D01*
X142400733Y-48232683D01*
X142400956Y-48233801D01*
X142401224Y-48234951D01*
X142401464Y-48236045D01*
X142406834Y-48262193D01*
X142409387Y-48276929D01*
X142411359Y-48289345D01*
X142412984Y-48299904D01*
X142419409Y-48339855D01*
X142420123Y-48343246D01*
X142422533Y-48365912D01*
X142425299Y-48392058D01*
X142426995Y-48408478D01*
X142428315Y-48421060D01*
X142429511Y-48432004D01*
X142429678Y-48437074D01*
X142430848Y-48461536D01*
X142433411Y-48522850D01*
X142433074Y-48543771D01*
X142431724Y-48616991D01*
X142424976Y-48705395D01*
X142412294Y-48786725D01*
X142405150Y-48824828D01*
X142390269Y-48893129D01*
X142376630Y-48942378D01*
X142359961Y-48990113D01*
X142342156Y-49037089D01*
X142331359Y-49061146D01*
X142290927Y-49150642D01*
X142273400Y-49183398D01*
X142253432Y-49223455D01*
X142242724Y-49241967D01*
X142236916Y-49251767D01*
X142229566Y-49264199D01*
X142225891Y-49270415D01*
X142186937Y-49334583D01*
X142151398Y-49387181D01*
X142123535Y-49427270D01*
X142102638Y-49454849D01*
X142092189Y-49468638D01*
X142086965Y-49475533D01*
X142063343Y-49503890D01*
X142036220Y-49536909D01*
X142014640Y-49561084D01*
X142003850Y-49573172D01*
X141980712Y-49599907D01*
X141953337Y-49627829D01*
X141923589Y-49658672D01*
X141914966Y-49666839D01*
X141904511Y-49676054D01*
X141890533Y-49690750D01*
X141868311Y-49711896D01*
X141833902Y-49742004D01*
X141781572Y-49785732D01*
X141708812Y-49843079D01*
X141612038Y-49910821D01*
X141526803Y-49963967D01*
X141447061Y-50012017D01*
X141356073Y-50056999D01*
X141279397Y-50093804D01*
X141203744Y-50123451D01*
X141075952Y-50173546D01*
X140974741Y-50203194D01*
X140825045Y-50245555D01*
X140656674Y-50278849D01*
X140436936Y-50313094D01*
X140124322Y-50344141D01*
X139830724Y-50359417D01*
X139653036Y-50361384D01*
X139517977Y-50360497D01*
X139456104Y-50358188D01*
X139349376Y-50354126D01*
X139215453Y-50340385D01*
X139180851Y-50332112D01*
X139171295Y-50327544D01*
X139167619Y-50322748D01*
X139151024Y-49999797D01*
X139134354Y-49681242D01*
X139103009Y-49074972D01*
X139083362Y-48952129D01*
X139068576Y-48872008D01*
X139032572Y-48709075D01*
X139002761Y-48594106D01*
X138965431Y-48479699D01*
X138937508Y-48405269D01*
X138908023Y-48333584D01*
X138800216Y-48125875D01*
X138740850Y-48039109D01*
X138604174Y-47832102D01*
X138483167Y-47634622D01*
X138424859Y-47534348D01*
X138348408Y-47394110D01*
X138243813Y-47179652D01*
X138183056Y-47027001D01*
X138166185Y-46974316D01*
X138138973Y-46884384D01*
X138099823Y-46725884D01*
X138079305Y-46615087D01*
X138066429Y-46537340D01*
X138057053Y-46470665D01*
X138049828Y-46419081D01*
X138031763Y-46260642D01*
X138017547Y-46111367D01*
X138001669Y-45941202D01*
X137996489Y-45884247D01*
X137993261Y-45861449D01*
X137987612Y-45839862D01*
X137980752Y-45821705D01*
X137974445Y-45807303D01*
X137971140Y-45800538D01*
X137966669Y-45791798D01*
X137961376Y-45782856D01*
X137956449Y-45775130D01*
X137950811Y-45767225D01*
X137944210Y-45758597D01*
X137937109Y-45750589D01*
X137928858Y-45742338D01*
X137918924Y-45732324D01*
X137887701Y-45700669D01*
X137883779Y-45696658D01*
X137876471Y-45688325D01*
X137869340Y-45680259D01*
X137847642Y-45655570D01*
X137842318Y-45649494D01*
X137828665Y-45631725D01*
X137808508Y-45605696D01*
X137807463Y-45604424D01*
X137806295Y-45602855D01*
X137798884Y-45591823D01*
X137786857Y-45573876D01*
X137779848Y-45563392D01*
X137773379Y-45553878D01*
X137767728Y-45544095D01*
X137760822Y-45532533D01*
X137754126Y-45520604D01*
X137750574Y-45513941D01*
X137744696Y-45503069D01*
X137733193Y-45479900D01*
X137725452Y-45462624D01*
X137717522Y-45443839D01*
X137701171Y-45400642D01*
X137687273Y-45348464D01*
X137681117Y-45317456D01*
X137676933Y-45293304D01*
X137673891Y-45268012D01*
X137671281Y-45232590D01*
X137670858Y-45202652D01*
X137670996Y-45184911D01*
X137671891Y-45160780D01*
X137672787Y-45148932D01*
X137673682Y-45138806D01*
X137675792Y-45117129D01*
X137677819Y-45102939D01*
X137681197Y-45081453D01*
X137684981Y-45061588D01*
X137689427Y-45040017D01*
X137696977Y-45009368D01*
X137703295Y-44986055D01*
X137706340Y-44976131D01*
X137715612Y-44948121D01*
X137729801Y-44909450D01*
X137741070Y-44879799D01*
X137757076Y-44838898D01*
X137775704Y-44791737D01*
X137794378Y-44744155D01*
X137811449Y-44700941D01*
X137819645Y-44680200D01*
X137825615Y-44664987D01*
X137834396Y-44642507D01*
X137839233Y-44629987D01*
X137853978Y-44591821D01*
X137862000Y-44571056D01*
X137870022Y-44550292D01*
X137878044Y-44529528D01*
X137881405Y-44520827D01*
X137884767Y-44512125D01*
X137889427Y-44500063D01*
X137892789Y-44491361D01*
X137897449Y-44479298D01*
X137900810Y-44470597D01*
X137904172Y-44461895D01*
X137908832Y-44449833D01*
X137912194Y-44441131D01*
X137916854Y-44429069D01*
X137920216Y-44420367D01*
X137927902Y-44400470D01*
X137954210Y-44331929D01*
X137958945Y-44319599D01*
X137962182Y-44311069D01*
X137970162Y-44290472D01*
X137971828Y-44286068D01*
X137973469Y-44281806D01*
X137981493Y-44260972D01*
X137984868Y-44252383D01*
X137986241Y-44248862D01*
X137989498Y-44240166D01*
X137992866Y-44231444D01*
X137997539Y-44219447D01*
X137999243Y-44215041D01*
X138000878Y-44210715D01*
X138004268Y-44202053D01*
X138008917Y-44189884D01*
X138012323Y-44181284D01*
X138020344Y-44160567D01*
X138028291Y-44139883D01*
X138031837Y-44130939D01*
X138047785Y-44089718D01*
X138063404Y-44051608D01*
X138070565Y-44030368D01*
X138081829Y-44001581D01*
X138093393Y-43971232D01*
X138105265Y-43940315D01*
X138113616Y-43918491D01*
X138116487Y-43913256D01*
X138129078Y-43898982D01*
X138139993Y-43885661D01*
X138149852Y-43911087D01*
G37*
G36*
X150845023Y-43905606D02*
G01*
X150854004Y-43928662D01*
X150916098Y-44085161D01*
X151003954Y-44322387D01*
X151005845Y-44325791D01*
X151008745Y-44330456D01*
X151012023Y-44335499D01*
X151015806Y-44340668D01*
X151020597Y-44346594D01*
X151024379Y-44350376D01*
X151028918Y-44354411D01*
X151032826Y-44357311D01*
X151036987Y-44360084D01*
X151042030Y-44363236D01*
X151047577Y-44365758D01*
X151053503Y-44368027D01*
X151059555Y-44370045D01*
X151064976Y-44371431D01*
X151070272Y-44372566D01*
X151075693Y-44373449D01*
X151083651Y-44374412D01*
X151090657Y-44374888D01*
X151097459Y-44375160D01*
X151106778Y-44375297D01*
X151115348Y-44375229D01*
X151127864Y-44374752D01*
X151137998Y-44374072D01*
X151149289Y-44373052D01*
X151199255Y-44368873D01*
X151222330Y-44366907D01*
X151233321Y-44365888D01*
X151240745Y-44365306D01*
X151246714Y-44364869D01*
X151252755Y-44364557D01*
X151302351Y-44361762D01*
X151324280Y-44360553D01*
X151333721Y-44359999D01*
X151342612Y-44359523D01*
X151347522Y-44359257D01*
X151351382Y-44359109D01*
X151355079Y-44358991D01*
X151364504Y-44358727D01*
X151371183Y-44358522D01*
X151375538Y-44358390D01*
X151389181Y-44358011D01*
X151393769Y-44357889D01*
X151396758Y-44357767D01*
X151400807Y-44357663D01*
X151404630Y-44357541D01*
X151407602Y-44357489D01*
X151472121Y-44356199D01*
X151483794Y-44356040D01*
X151505872Y-44356040D01*
X151517784Y-44355961D01*
X151531125Y-44355881D01*
X151557202Y-44355608D01*
X151564484Y-44355757D01*
X151570841Y-44355817D01*
X151576094Y-44355936D01*
X151597570Y-44356276D01*
X151608300Y-44356432D01*
X151617640Y-44356630D01*
X151623479Y-44356701D01*
X151628986Y-44356843D01*
X151635300Y-44356938D01*
X151643644Y-44357082D01*
X151651782Y-44357176D01*
X151657108Y-44357288D01*
X151662096Y-44357382D01*
X151669170Y-44357639D01*
X151673947Y-44357820D01*
X151681958Y-44358083D01*
X151686489Y-44358263D01*
X151695690Y-44358605D01*
X151699187Y-44358730D01*
X151709239Y-44359077D01*
X151716206Y-44359312D01*
X151721894Y-44359546D01*
X151728307Y-44359780D01*
X151732418Y-44359971D01*
X151735769Y-44360021D01*
X151738666Y-44360147D01*
X151742193Y-44360223D01*
X151746551Y-44360399D01*
X151750229Y-44360525D01*
X151754285Y-44360701D01*
X151758190Y-44360827D01*
X151761792Y-44360979D01*
X151770441Y-44361386D01*
X151774836Y-44361567D01*
X151780343Y-44361877D01*
X151790424Y-44362409D01*
X151797957Y-44362813D01*
X151804818Y-44363115D01*
X151833574Y-44364706D01*
X151838592Y-44364999D01*
X151842509Y-44365190D01*
X151845693Y-44365366D01*
X151858008Y-44365978D01*
X151867821Y-44366495D01*
X151875955Y-44367011D01*
X151883228Y-44367484D01*
X151890329Y-44367958D01*
X151923242Y-44370220D01*
X151934449Y-44370943D01*
X151944812Y-44371666D01*
X151955376Y-44372349D01*
X151964053Y-44372951D01*
X151973371Y-44373674D01*
X151987204Y-44374625D01*
X151997172Y-44374982D01*
X152001516Y-44375042D01*
X152006038Y-44375071D01*
X152010590Y-44375012D01*
X152014518Y-44374952D01*
X152017761Y-44374684D01*
X152021480Y-44374417D01*
X152025110Y-44374119D01*
X152027550Y-44373792D01*
X152035184Y-44372642D01*
X152037980Y-44372033D01*
X152041246Y-44371313D01*
X152044041Y-44370566D01*
X152047722Y-44369431D01*
X152050656Y-44368462D01*
X152054061Y-44367106D01*
X152064311Y-44361914D01*
X152068248Y-44359370D01*
X152071700Y-44356887D01*
X152075638Y-44353555D01*
X152079544Y-44349800D01*
X152082119Y-44346983D01*
X152085268Y-44343289D01*
X152089100Y-44337960D01*
X152091524Y-44334342D01*
X152093776Y-44330724D01*
X152095893Y-44327038D01*
X152098214Y-44322874D01*
X152100740Y-44317447D01*
X152102617Y-44313453D01*
X152103811Y-44310688D01*
X152105284Y-44307135D01*
X152107367Y-44301961D01*
X152109579Y-44296397D01*
X152111499Y-44291321D01*
X152113419Y-44286570D01*
X152115209Y-44281786D01*
X152121619Y-44265201D01*
X152125324Y-44255837D01*
X152127522Y-44250055D01*
X152135987Y-44228284D01*
X152137781Y-44223588D01*
X152139442Y-44219335D01*
X152140550Y-44216521D01*
X152147406Y-44198917D01*
X152148928Y-44194817D01*
X152150229Y-44191600D01*
X152151212Y-44189096D01*
X152152169Y-44186444D01*
X152152955Y-44184455D01*
X152156841Y-44174228D01*
X152159432Y-44167622D01*
X152162152Y-44160886D01*
X152163836Y-44156255D01*
X152165293Y-44152757D01*
X152229362Y-43987479D01*
X152254973Y-43921137D01*
X152270993Y-43880192D01*
X152271804Y-43882221D01*
X152284617Y-43914125D01*
X152290135Y-43928002D01*
X152293604Y-43936757D01*
X152312718Y-43984324D01*
X152317568Y-43996406D01*
X152345187Y-44065464D01*
X152378305Y-44148120D01*
X152380601Y-44153845D01*
X152412745Y-44234072D01*
X152415510Y-44240952D01*
X152416838Y-44244305D01*
X152439203Y-44300432D01*
X152444197Y-44313159D01*
X152447600Y-44321865D01*
X152471566Y-44382231D01*
X152473619Y-44387339D01*
X152481214Y-44406525D01*
X152483397Y-44411985D01*
X152487728Y-44422902D01*
X152488820Y-44425675D01*
X152489974Y-44428548D01*
X152490627Y-44430179D01*
X152547452Y-44576091D01*
X152583457Y-44670925D01*
X152630802Y-44805387D01*
X152657550Y-44883058D01*
X152667580Y-44913663D01*
X152680554Y-44953923D01*
X152691105Y-44987722D01*
X152696470Y-45005605D01*
X152700583Y-45020090D01*
X152704138Y-45031566D01*
X152715447Y-45071514D01*
X152722051Y-45096046D01*
X152725592Y-45109956D01*
X152727931Y-45119251D01*
X152728844Y-45124048D01*
X152729729Y-45128860D01*
X152730637Y-45133468D01*
X152734326Y-45155297D01*
X152736312Y-45166927D01*
X152738298Y-45182245D01*
X152739432Y-45198130D01*
X152740567Y-45217986D01*
X152740850Y-45235572D01*
X152739999Y-45257981D01*
X152739148Y-45272732D01*
X152736550Y-45295087D01*
X152733147Y-45317936D01*
X152731202Y-45333250D01*
X152725611Y-45355613D01*
X152717833Y-45385511D01*
X152708839Y-45410791D01*
X152699845Y-45434855D01*
X152690010Y-45456653D01*
X152672397Y-45490874D01*
X152649750Y-45531134D01*
X152604961Y-45594544D01*
X152531486Y-45684123D01*
X152482168Y-45742500D01*
X152427569Y-45805975D01*
X152439175Y-45825398D01*
X152467088Y-45871536D01*
X152483440Y-45898532D01*
X152496793Y-45920400D01*
X152584498Y-46065104D01*
X152633985Y-46146084D01*
X152657009Y-46184457D01*
X152786597Y-46393941D01*
X152788528Y-46396990D01*
X152790458Y-46399733D01*
X152792186Y-46401562D01*
X152795336Y-46404611D01*
X152798181Y-46407151D01*
X152801636Y-46409691D01*
X152805396Y-46412232D01*
X152810680Y-46415077D01*
X152815049Y-46417516D01*
X152819012Y-46419345D01*
X152824906Y-46421580D01*
X152829885Y-46423511D01*
X152834457Y-46424933D01*
X152840554Y-46426661D01*
X152844874Y-46427830D01*
X152848215Y-46428572D01*
X152852948Y-46429500D01*
X152857123Y-46429964D01*
X152862134Y-46430428D01*
X152867052Y-46430799D01*
X152872527Y-46430985D01*
X152878095Y-46431170D01*
X152883848Y-46431449D01*
X152889323Y-46431634D01*
X152893221Y-46431634D01*
X152897675Y-46431727D01*
X152902593Y-46431913D01*
X152905563Y-46432191D01*
X152931638Y-46434233D01*
X152936502Y-46434575D01*
X152939693Y-46434897D01*
X152945139Y-46435477D01*
X152952229Y-46436283D01*
X152983031Y-46440195D01*
X152994650Y-46441936D01*
X153003505Y-46443267D01*
X153018094Y-46446133D01*
X153031966Y-46448795D01*
X153042612Y-46451149D01*
X153059321Y-46454995D01*
X153068364Y-46457115D01*
X153079777Y-46460234D01*
X153092001Y-46463539D01*
X153102104Y-46466533D01*
X153112567Y-46469794D01*
X153128099Y-46474696D01*
X153140535Y-46479237D01*
X153159112Y-46485945D01*
X153167213Y-46489196D01*
X153180715Y-46494794D01*
X153189283Y-46498273D01*
X153196754Y-46501642D01*
X153204114Y-46505048D01*
X153210669Y-46508014D01*
X153223855Y-46514306D01*
X153232182Y-46518569D01*
X153239864Y-46522385D01*
X153246853Y-46526003D01*
X153253346Y-46529621D01*
X153260384Y-46533586D01*
X153266480Y-46537006D01*
X153274507Y-46541468D01*
X153285246Y-46548046D01*
X153291824Y-46552073D01*
X153297999Y-46555832D01*
X153306120Y-46561000D01*
X153314778Y-46566906D01*
X153326323Y-46574692D01*
X153334109Y-46580129D01*
X153361701Y-46600923D01*
X153388361Y-46622251D01*
X153408489Y-46638380D01*
X153473625Y-46690766D01*
X153498566Y-46712740D01*
X153585052Y-46789396D01*
X153597967Y-46801897D01*
X153611130Y-46814729D01*
X153636380Y-46839400D01*
X153653104Y-46855875D01*
X153678536Y-46880866D01*
X153692378Y-46894333D01*
X153705004Y-46908081D01*
X153719439Y-46923945D01*
X153734542Y-46940347D01*
X153752343Y-46959647D01*
X153767006Y-46975601D01*
X153778033Y-46987683D01*
X153784685Y-46994790D01*
X153789377Y-46999869D01*
X153792065Y-47002981D01*
X153794572Y-47006001D01*
X153797312Y-47009286D01*
X153799180Y-47011560D01*
X153802549Y-47015650D01*
X153804955Y-47018532D01*
X153806533Y-47020463D01*
X153809719Y-47024337D01*
X153812574Y-47027814D01*
X153815355Y-47031053D01*
X153819858Y-47036524D01*
X153822654Y-47039931D01*
X153841114Y-47062170D01*
X153847279Y-47069627D01*
X153853555Y-47077232D01*
X153862975Y-47088532D01*
X153868503Y-47095289D01*
X153873110Y-47100816D01*
X153876001Y-47104322D01*
X153971583Y-47233804D01*
X154054872Y-47360308D01*
X154140518Y-47510386D01*
X154176733Y-47580894D01*
X154198207Y-47626405D01*
X154250985Y-47746800D01*
X154274212Y-47807003D01*
X154295395Y-47862004D01*
X154304871Y-47890434D01*
X154332420Y-47974642D01*
X154340321Y-47997468D01*
X154347520Y-48024684D01*
X154361116Y-48074490D01*
X154367343Y-48097001D01*
X154372228Y-48114435D01*
X154378573Y-48138146D01*
X154380456Y-48146589D01*
X154382599Y-48155942D01*
X154384381Y-48164472D01*
X154385577Y-48169621D01*
X154386106Y-48172043D01*
X154388221Y-48181686D01*
X154389233Y-48185982D01*
X154390181Y-48190394D01*
X154390813Y-48193149D01*
X154392613Y-48201321D01*
X154393147Y-48203679D01*
X154393498Y-48205152D01*
X154393768Y-48206430D01*
X154394022Y-48207522D01*
X154395620Y-48214666D01*
X154395931Y-48216046D01*
X154396138Y-48217030D01*
X154396382Y-48218096D01*
X154396583Y-48218939D01*
X154396756Y-48219731D01*
X154396867Y-48220267D01*
X154415053Y-48309716D01*
X154425792Y-48367639D01*
X154434904Y-48426213D01*
X154438580Y-48448368D01*
X154441765Y-48471194D01*
X154445481Y-48501452D01*
X154449993Y-48537018D01*
X154454770Y-48578689D01*
X154457690Y-48606559D01*
X154459020Y-48625024D01*
X154460024Y-48648220D01*
X154460493Y-48658584D01*
X154460838Y-48666845D01*
X154461095Y-48690460D01*
X154458809Y-48824710D01*
X154456941Y-48877781D01*
X154456193Y-48906747D01*
X154455446Y-48956081D01*
X154455287Y-48981480D01*
X154458568Y-48977709D01*
X154461788Y-48974000D01*
X154463317Y-48972248D01*
X154501444Y-48928233D01*
X154510531Y-48917631D01*
X154518018Y-48908976D01*
X154536224Y-48887023D01*
X154543336Y-48877965D01*
X154550659Y-48868568D01*
X154563176Y-48851685D01*
X154570695Y-48840820D01*
X154575422Y-48833827D01*
X154580383Y-48826534D01*
X154583578Y-48821615D01*
X154586006Y-48817749D01*
X154588817Y-48813213D01*
X154590286Y-48810849D01*
X154593509Y-48805708D01*
X154596704Y-48800435D01*
X154599746Y-48795430D01*
X154602402Y-48790657D01*
X154605251Y-48785768D01*
X154607637Y-48781648D01*
X154609562Y-48778261D01*
X154614794Y-48768602D01*
X154616385Y-48765600D01*
X154618235Y-48762008D01*
X154619599Y-48759370D01*
X154625237Y-48748629D01*
X154626148Y-48746735D01*
X154626560Y-48745873D01*
X154627034Y-48744865D01*
X154627350Y-48744221D01*
X154628102Y-48742606D01*
X154628758Y-48741210D01*
X154629608Y-48739425D01*
X154634151Y-48729868D01*
X154636550Y-48724731D01*
X154639334Y-48718530D01*
X154640828Y-48714954D01*
X154644693Y-48705883D01*
X154645786Y-48703258D01*
X154646718Y-48701118D01*
X154647884Y-48698370D01*
X154648833Y-48695932D01*
X154649902Y-48692999D01*
X154650862Y-48690286D01*
X154653430Y-48683091D01*
X154654626Y-48679825D01*
X154659533Y-48666186D01*
X154662608Y-48657517D01*
X154666888Y-48645480D01*
X154667262Y-48644082D01*
X154668217Y-48640691D01*
X154672047Y-48626692D01*
X154673747Y-48620434D01*
X154675143Y-48615174D01*
X154675773Y-48612925D01*
X154676258Y-48611110D01*
X154680056Y-48597217D01*
X154680693Y-48594838D01*
X154681095Y-48593296D01*
X154685732Y-48569125D01*
X154691046Y-48542694D01*
X154692444Y-48532346D01*
X154693563Y-48521438D01*
X154694682Y-48511370D01*
X154695721Y-48502363D01*
X154696452Y-48495896D01*
X154696996Y-48491260D01*
X154697317Y-48488419D01*
X154697978Y-48474614D01*
X154698207Y-48469621D01*
X154698534Y-48461803D01*
X154698868Y-48455557D01*
X154698978Y-48453233D01*
X154699352Y-48445726D01*
X154699454Y-48443522D01*
X154699521Y-48442009D01*
X154699815Y-48435764D01*
X154699795Y-48434105D01*
X154699760Y-48432460D01*
X154699542Y-48418785D01*
X154699439Y-48413325D01*
X154699404Y-48410021D01*
X154699135Y-48393463D01*
X154699085Y-48388376D01*
X154698986Y-48381709D01*
X154698492Y-48375387D01*
X154697603Y-48364127D01*
X154697214Y-48359275D01*
X154696875Y-48354843D01*
X154696649Y-48351610D01*
X154696432Y-48349025D01*
X154696318Y-48347280D01*
X154695774Y-48340151D01*
X154695085Y-48330927D01*
X154686678Y-48269129D01*
X154667041Y-48170486D01*
X154649486Y-48105327D01*
X154635800Y-48059210D01*
X154612890Y-47992563D01*
X154592063Y-47938115D01*
X154557755Y-47846890D01*
X154541386Y-47803985D01*
X154532254Y-47780035D01*
X154484360Y-47653979D01*
X154463918Y-47600341D01*
X154426836Y-47502265D01*
X154406875Y-47448979D01*
X154395880Y-47420053D01*
X154298993Y-47164980D01*
X154291754Y-47143807D01*
X154283792Y-47119197D01*
X154274382Y-47089882D01*
X154266099Y-47061878D01*
X154260487Y-47041672D01*
X154254032Y-47020624D01*
X154249261Y-46999015D01*
X154242526Y-46970670D01*
X154236071Y-46945132D01*
X154230458Y-46919033D01*
X154226249Y-46896862D01*
X154222039Y-46876937D01*
X154217268Y-46849715D01*
X154208619Y-46786673D01*
X154198972Y-46721288D01*
X154193613Y-46666623D01*
X154191469Y-46605526D01*
X154186110Y-46537998D01*
X154186110Y-46457608D01*
X154188254Y-46387936D01*
X154193613Y-46323623D01*
X154205404Y-46260383D01*
X154230057Y-46175705D01*
X154266500Y-46101745D01*
X154287259Y-46069508D01*
X154308190Y-46043747D01*
X154326974Y-46024427D01*
X154348978Y-46004033D01*
X154374739Y-45985785D01*
X154398353Y-45971295D01*
X154428944Y-45957341D01*
X154451485Y-45948754D01*
X154478319Y-45940704D01*
X154506764Y-45934800D01*
X154540038Y-45931580D01*
X154566064Y-45930260D01*
X154582455Y-45930260D01*
X154595568Y-45931005D01*
X154609276Y-45932048D01*
X154618068Y-45932942D01*
X154629392Y-45934134D01*
X154645634Y-45936220D01*
X154660833Y-45938157D01*
X154678862Y-45941435D01*
X154700915Y-45945757D01*
X154717753Y-45949333D01*
X154756675Y-45958843D01*
X154782096Y-45965546D01*
X154817032Y-45976289D01*
X154834623Y-45982283D01*
X154843574Y-45985357D01*
X154888852Y-46002032D01*
X154911931Y-46011904D01*
X154921942Y-46016978D01*
X154934107Y-46024625D01*
X154940085Y-46028897D01*
X154945522Y-46033247D01*
X154949593Y-46036816D01*
X154956028Y-46043152D01*
X154960072Y-46047418D01*
X154964004Y-46052243D01*
X154966876Y-46056147D01*
X154970887Y-46062015D01*
X154974289Y-46067738D01*
X154976764Y-46072533D01*
X154979199Y-46078167D01*
X154980750Y-46082079D01*
X154981609Y-46084537D01*
X154982507Y-46087327D01*
X154983407Y-46090512D01*
X154984271Y-46093680D01*
X154984933Y-46096790D01*
X154985530Y-46099762D01*
X154985868Y-46101670D01*
X154985946Y-46102275D01*
X154986220Y-46104362D01*
X154986354Y-46105479D01*
X154986443Y-46106205D01*
X154986693Y-46108036D01*
X154986805Y-46108868D01*
X154986866Y-46109884D01*
X154987176Y-46115653D01*
X154987176Y-46125798D01*
X154986539Y-46133198D01*
X154984872Y-46143637D01*
X154983820Y-46148610D01*
X154982955Y-46151935D01*
X154982041Y-46155493D01*
X154981692Y-46156690D01*
X154979082Y-46164611D01*
X154976490Y-46171386D01*
X154975528Y-46173840D01*
X154970626Y-46184209D01*
X154964105Y-46196225D01*
X154957584Y-46206730D01*
X154950278Y-46217115D01*
X154942891Y-46226671D01*
X154941813Y-46228039D01*
X154940987Y-46229066D01*
X154921523Y-46252545D01*
X154898288Y-46279142D01*
X154870326Y-46308468D01*
X154866899Y-46311772D01*
X154859390Y-46319236D01*
X154854399Y-46324112D01*
X154840025Y-46337860D01*
X154832221Y-46344900D01*
X154810225Y-46364541D01*
X154780433Y-46389717D01*
X154760210Y-46406122D01*
X154747574Y-46416271D01*
X154733348Y-46429203D01*
X154714207Y-46447568D01*
X154691187Y-46472399D01*
X154677737Y-46488953D01*
X154666356Y-46504472D01*
X154652647Y-46523871D01*
X154635127Y-46554777D01*
X154624971Y-46574525D01*
X154616013Y-46594985D01*
X154610956Y-46608218D01*
X154605561Y-46622800D01*
X154601431Y-46636034D01*
X154597470Y-46650363D01*
X154594688Y-46659887D01*
X154592160Y-46671241D01*
X154589588Y-46682754D01*
X154588792Y-46686980D01*
X154587590Y-46694172D01*
X154586644Y-46700038D01*
X154586094Y-46703258D01*
X154585816Y-46705121D01*
X154585546Y-46706705D01*
X154584150Y-46715430D01*
X154583941Y-46717078D01*
X154583731Y-46719474D01*
X154583282Y-46723068D01*
X154581269Y-46742134D01*
X154580530Y-46753093D01*
X154579915Y-46768855D01*
X154579422Y-46782892D01*
X154579053Y-46794836D01*
X154579962Y-46827449D01*
X154582995Y-46862777D01*
X154585850Y-46894893D01*
X154588600Y-46914699D01*
X154589831Y-46923930D01*
X154591185Y-46933735D01*
X154592333Y-46940422D01*
X154599929Y-46986304D01*
X154616476Y-47052491D01*
X154640262Y-47131088D01*
X154666116Y-47205548D01*
X154685765Y-47252085D01*
X154708517Y-47303794D01*
X154731268Y-47353434D01*
X154763328Y-47417552D01*
X154781792Y-47453762D01*
X154800398Y-47488293D01*
X154816155Y-47518131D01*
X154824871Y-47534772D01*
X154830196Y-47545004D01*
X154839705Y-47563392D01*
X154856562Y-47595831D01*
X154861415Y-47605227D01*
X154863370Y-47608963D01*
X154870118Y-47621986D01*
X154873031Y-47627585D01*
X154874949Y-47631317D01*
X154876624Y-47634530D01*
X154878100Y-47637402D01*
X154882553Y-47645968D01*
X154883779Y-47648298D01*
X154891462Y-47663156D01*
X154893509Y-47667193D01*
X154894956Y-47670255D01*
X154897886Y-47676414D01*
X154899756Y-47680339D01*
X154901503Y-47684038D01*
X154906339Y-47694123D01*
X154908003Y-47697620D01*
X154909111Y-47699937D01*
X154909694Y-47701202D01*
X154912320Y-47706709D01*
X154915153Y-47712575D01*
X154917032Y-47716562D01*
X154917465Y-47717416D01*
X154942174Y-47770257D01*
X154958288Y-47807770D01*
X154972818Y-47840792D01*
X154982709Y-47865134D01*
X154985723Y-47872707D01*
X154995326Y-47896130D01*
X154999047Y-47905342D01*
X155001498Y-47911332D01*
X155003993Y-47917957D01*
X155006308Y-47924447D01*
X155022790Y-47969452D01*
X155025999Y-47978224D01*
X155027438Y-47982133D01*
X155031860Y-47994358D01*
X155033293Y-47998628D01*
X155034697Y-48003097D01*
X155036043Y-48007395D01*
X155038123Y-48014462D01*
X155048584Y-48045369D01*
X155060947Y-48084835D01*
X155067366Y-48110512D01*
X155073985Y-48134203D01*
X155075535Y-48140016D01*
X155077030Y-48145442D01*
X155078802Y-48152418D01*
X155080217Y-48157231D01*
X155081037Y-48160380D01*
X155081922Y-48163549D01*
X155082299Y-48165120D01*
X155082536Y-48166154D01*
X155082739Y-48167124D01*
X155084516Y-48175211D01*
X155085031Y-48177504D01*
X155085176Y-48178252D01*
X155086556Y-48184555D01*
X155086972Y-48186494D01*
X155087254Y-48187754D01*
X155089355Y-48197317D01*
X155089743Y-48199063D01*
X155091011Y-48204915D01*
X155092130Y-48210015D01*
X155093278Y-48215149D01*
X155094169Y-48219266D01*
X155095375Y-48224877D01*
X155095904Y-48227202D01*
X155096127Y-48228320D01*
X155096395Y-48229470D01*
X155096635Y-48230564D01*
X155102005Y-48256712D01*
X155104558Y-48271448D01*
X155106530Y-48283864D01*
X155108155Y-48294423D01*
X155114580Y-48334374D01*
X155115294Y-48337765D01*
X155117704Y-48360431D01*
X155120470Y-48386577D01*
X155122166Y-48402997D01*
X155123486Y-48415579D01*
X155124682Y-48426523D01*
X155124849Y-48431593D01*
X155126019Y-48456055D01*
X155128582Y-48517369D01*
X155128245Y-48538290D01*
X155126895Y-48611510D01*
X155120147Y-48699914D01*
X155107465Y-48781244D01*
X155100321Y-48819347D01*
X155085440Y-48887648D01*
X155071801Y-48936897D01*
X155055132Y-48984632D01*
X155037327Y-49031608D01*
X155026530Y-49055665D01*
X154986098Y-49145161D01*
X154968571Y-49177917D01*
X154948603Y-49217974D01*
X154937895Y-49236486D01*
X154932087Y-49246286D01*
X154924737Y-49258718D01*
X154921062Y-49264934D01*
X154882108Y-49329102D01*
X154846569Y-49381700D01*
X154818706Y-49421789D01*
X154797809Y-49449368D01*
X154787360Y-49463157D01*
X154782136Y-49470052D01*
X154758514Y-49498409D01*
X154731391Y-49531428D01*
X154709811Y-49555603D01*
X154699021Y-49567691D01*
X154675883Y-49594426D01*
X154648508Y-49622348D01*
X154618760Y-49653191D01*
X154610137Y-49661358D01*
X154599682Y-49670573D01*
X154585704Y-49685269D01*
X154563482Y-49706415D01*
X154529073Y-49736523D01*
X154476743Y-49780251D01*
X154403983Y-49837598D01*
X154307209Y-49905340D01*
X154221974Y-49958486D01*
X154142232Y-50006536D01*
X154051244Y-50051518D01*
X153974568Y-50088323D01*
X153898915Y-50117970D01*
X153771123Y-50168065D01*
X153669912Y-50197713D01*
X153520216Y-50240074D01*
X153351845Y-50273368D01*
X153132107Y-50307613D01*
X152819493Y-50338660D01*
X152525895Y-50353936D01*
X152348207Y-50355903D01*
X152213148Y-50355016D01*
X152151275Y-50352707D01*
X152044547Y-50348645D01*
X151910624Y-50334904D01*
X151876022Y-50326631D01*
X151866466Y-50322063D01*
X151862790Y-50317267D01*
X151846195Y-49994316D01*
X151829525Y-49675761D01*
X151798180Y-49069491D01*
X151778533Y-48946648D01*
X151763747Y-48866527D01*
X151727743Y-48703594D01*
X151697932Y-48588625D01*
X151660602Y-48474218D01*
X151632679Y-48399788D01*
X151603194Y-48328103D01*
X151495387Y-48120394D01*
X151436021Y-48033628D01*
X151299345Y-47826621D01*
X151178338Y-47629141D01*
X151120030Y-47528867D01*
X151043579Y-47388629D01*
X150938984Y-47174171D01*
X150878227Y-47021520D01*
X150861356Y-46968835D01*
X150834144Y-46878903D01*
X150794994Y-46720403D01*
X150774476Y-46609606D01*
X150761600Y-46531859D01*
X150752224Y-46465184D01*
X150744999Y-46413600D01*
X150726934Y-46255161D01*
X150712718Y-46105886D01*
X150696840Y-45935721D01*
X150691660Y-45878766D01*
X150688432Y-45855968D01*
X150682783Y-45834381D01*
X150675923Y-45816224D01*
X150669616Y-45801822D01*
X150666311Y-45795057D01*
X150661840Y-45786317D01*
X150656547Y-45777375D01*
X150651620Y-45769649D01*
X150645982Y-45761744D01*
X150639381Y-45753116D01*
X150632280Y-45745108D01*
X150624029Y-45736857D01*
X150614095Y-45726843D01*
X150582872Y-45695188D01*
X150578950Y-45691177D01*
X150571642Y-45682844D01*
X150564511Y-45674778D01*
X150542813Y-45650089D01*
X150537489Y-45644013D01*
X150523836Y-45626244D01*
X150503679Y-45600215D01*
X150502634Y-45598943D01*
X150501466Y-45597374D01*
X150494055Y-45586342D01*
X150482028Y-45568395D01*
X150475019Y-45557911D01*
X150468550Y-45548397D01*
X150462899Y-45538614D01*
X150455993Y-45527052D01*
X150449297Y-45515123D01*
X150445745Y-45508460D01*
X150439867Y-45497588D01*
X150428364Y-45474419D01*
X150420623Y-45457143D01*
X150412693Y-45438358D01*
X150396342Y-45395161D01*
X150382444Y-45342983D01*
X150376288Y-45311975D01*
X150372104Y-45287823D01*
X150369062Y-45262531D01*
X150366452Y-45227109D01*
X150366029Y-45197171D01*
X150366167Y-45179430D01*
X150367062Y-45155299D01*
X150367958Y-45143451D01*
X150368853Y-45133325D01*
X150370963Y-45111648D01*
X150372990Y-45097458D01*
X150376368Y-45075972D01*
X150380152Y-45056107D01*
X150384598Y-45034536D01*
X150392148Y-45003887D01*
X150398466Y-44980574D01*
X150401511Y-44970650D01*
X150410783Y-44942640D01*
X150424972Y-44903969D01*
X150436241Y-44874318D01*
X150452247Y-44833417D01*
X150470875Y-44786256D01*
X150489549Y-44738674D01*
X150506620Y-44695460D01*
X150514816Y-44674719D01*
X150520786Y-44659506D01*
X150529567Y-44637026D01*
X150534404Y-44624506D01*
X150549149Y-44586340D01*
X150557171Y-44565575D01*
X150565193Y-44544811D01*
X150573215Y-44524047D01*
X150576576Y-44515346D01*
X150579938Y-44506644D01*
X150584598Y-44494582D01*
X150587960Y-44485880D01*
X150592620Y-44473817D01*
X150595981Y-44465116D01*
X150599343Y-44456414D01*
X150604003Y-44444352D01*
X150607365Y-44435650D01*
X150612025Y-44423588D01*
X150615387Y-44414886D01*
X150623073Y-44394989D01*
X150649381Y-44326448D01*
X150654116Y-44314118D01*
X150657353Y-44305588D01*
X150665333Y-44284991D01*
X150666999Y-44280587D01*
X150668640Y-44276325D01*
X150676664Y-44255491D01*
X150680039Y-44246902D01*
X150681412Y-44243381D01*
X150684669Y-44234685D01*
X150688037Y-44225963D01*
X150692710Y-44213966D01*
X150694414Y-44209560D01*
X150696049Y-44205234D01*
X150699439Y-44196572D01*
X150704088Y-44184403D01*
X150707494Y-44175803D01*
X150715515Y-44155086D01*
X150723462Y-44134402D01*
X150727008Y-44125458D01*
X150742956Y-44084237D01*
X150758575Y-44046127D01*
X150765736Y-44024887D01*
X150777000Y-43996100D01*
X150788564Y-43965751D01*
X150800436Y-43934834D01*
X150808787Y-43913010D01*
X150811658Y-43907775D01*
X150824249Y-43893501D01*
X150835164Y-43880180D01*
X150845023Y-43905606D01*
G37*
G36*
X157210074Y-43929657D02*
G01*
X157219055Y-43952713D01*
X157281149Y-44109212D01*
X157369005Y-44346438D01*
X157370896Y-44349842D01*
X157373796Y-44354507D01*
X157377074Y-44359550D01*
X157380857Y-44364719D01*
X157385648Y-44370645D01*
X157389430Y-44374427D01*
X157393969Y-44378462D01*
X157397877Y-44381362D01*
X157402038Y-44384135D01*
X157407081Y-44387287D01*
X157412628Y-44389809D01*
X157418554Y-44392078D01*
X157424606Y-44394096D01*
X157430027Y-44395482D01*
X157435323Y-44396617D01*
X157440744Y-44397500D01*
X157448702Y-44398463D01*
X157455708Y-44398939D01*
X157462510Y-44399211D01*
X157471829Y-44399348D01*
X157480399Y-44399280D01*
X157492915Y-44398803D01*
X157503049Y-44398123D01*
X157514340Y-44397103D01*
X157564306Y-44392924D01*
X157587381Y-44390958D01*
X157598372Y-44389939D01*
X157605796Y-44389357D01*
X157611765Y-44388920D01*
X157617806Y-44388608D01*
X157667402Y-44385813D01*
X157689331Y-44384604D01*
X157698772Y-44384050D01*
X157707663Y-44383574D01*
X157712573Y-44383308D01*
X157716433Y-44383160D01*
X157720130Y-44383042D01*
X157729555Y-44382778D01*
X157736234Y-44382573D01*
X157740589Y-44382441D01*
X157754232Y-44382062D01*
X157758820Y-44381940D01*
X157761809Y-44381818D01*
X157765858Y-44381714D01*
X157769681Y-44381592D01*
X157772653Y-44381540D01*
X157837172Y-44380250D01*
X157848845Y-44380091D01*
X157870923Y-44380091D01*
X157882835Y-44380012D01*
X157896176Y-44379932D01*
X157922253Y-44379659D01*
X157929535Y-44379808D01*
X157935892Y-44379868D01*
X157941145Y-44379987D01*
X157962621Y-44380327D01*
X157973351Y-44380483D01*
X157982691Y-44380681D01*
X157988530Y-44380752D01*
X157994037Y-44380894D01*
X158000351Y-44380989D01*
X158008695Y-44381133D01*
X158016833Y-44381227D01*
X158022159Y-44381339D01*
X158027147Y-44381433D01*
X158034221Y-44381690D01*
X158038998Y-44381871D01*
X158047009Y-44382134D01*
X158051540Y-44382314D01*
X158060741Y-44382656D01*
X158064238Y-44382781D01*
X158074290Y-44383128D01*
X158081257Y-44383363D01*
X158086945Y-44383597D01*
X158093358Y-44383831D01*
X158097469Y-44384022D01*
X158100820Y-44384072D01*
X158103717Y-44384198D01*
X158107244Y-44384274D01*
X158111602Y-44384450D01*
X158115280Y-44384576D01*
X158119336Y-44384752D01*
X158123241Y-44384878D01*
X158126843Y-44385030D01*
X158135492Y-44385437D01*
X158139887Y-44385618D01*
X158145394Y-44385928D01*
X158155475Y-44386460D01*
X158163008Y-44386864D01*
X158169869Y-44387166D01*
X158198625Y-44388757D01*
X158203643Y-44389050D01*
X158207560Y-44389241D01*
X158210744Y-44389417D01*
X158223059Y-44390029D01*
X158232872Y-44390546D01*
X158241006Y-44391062D01*
X158248279Y-44391535D01*
X158255380Y-44392009D01*
X158288293Y-44394271D01*
X158299500Y-44394994D01*
X158309863Y-44395717D01*
X158320427Y-44396400D01*
X158329104Y-44397002D01*
X158338422Y-44397725D01*
X158352255Y-44398676D01*
X158362223Y-44399033D01*
X158366567Y-44399093D01*
X158371089Y-44399122D01*
X158375641Y-44399063D01*
X158379569Y-44399003D01*
X158382812Y-44398735D01*
X158386531Y-44398468D01*
X158390161Y-44398170D01*
X158392601Y-44397843D01*
X158400235Y-44396693D01*
X158403031Y-44396084D01*
X158406297Y-44395364D01*
X158409092Y-44394617D01*
X158412773Y-44393482D01*
X158415707Y-44392513D01*
X158419112Y-44391157D01*
X158429362Y-44385965D01*
X158433299Y-44383421D01*
X158436751Y-44380938D01*
X158440689Y-44377606D01*
X158444595Y-44373851D01*
X158447170Y-44371034D01*
X158450319Y-44367340D01*
X158454151Y-44362011D01*
X158456575Y-44358393D01*
X158458827Y-44354775D01*
X158460944Y-44351089D01*
X158463265Y-44346925D01*
X158465791Y-44341498D01*
X158467668Y-44337504D01*
X158468862Y-44334739D01*
X158470335Y-44331186D01*
X158472418Y-44326012D01*
X158474630Y-44320448D01*
X158476550Y-44315372D01*
X158478470Y-44310621D01*
X158480260Y-44305837D01*
X158486670Y-44289252D01*
X158490375Y-44279888D01*
X158492573Y-44274106D01*
X158501038Y-44252335D01*
X158502832Y-44247639D01*
X158504493Y-44243386D01*
X158505601Y-44240572D01*
X158512457Y-44222968D01*
X158513979Y-44218868D01*
X158515280Y-44215651D01*
X158516263Y-44213147D01*
X158517220Y-44210495D01*
X158518006Y-44208506D01*
X158521892Y-44198279D01*
X158524483Y-44191673D01*
X158527203Y-44184937D01*
X158528887Y-44180306D01*
X158530344Y-44176808D01*
X158594413Y-44011530D01*
X158620024Y-43945188D01*
X158636044Y-43904243D01*
X158636855Y-43906272D01*
X158649668Y-43938176D01*
X158655186Y-43952053D01*
X158658655Y-43960808D01*
X158677769Y-44008375D01*
X158682619Y-44020457D01*
X158710238Y-44089515D01*
X158743356Y-44172171D01*
X158745652Y-44177896D01*
X158777796Y-44258123D01*
X158780561Y-44265003D01*
X158781889Y-44268356D01*
X158804254Y-44324483D01*
X158809248Y-44337210D01*
X158812651Y-44345916D01*
X158836617Y-44406282D01*
X158838670Y-44411390D01*
X158846265Y-44430576D01*
X158848448Y-44436036D01*
X158852779Y-44446953D01*
X158853871Y-44449726D01*
X158855025Y-44452599D01*
X158855678Y-44454230D01*
X158912503Y-44600142D01*
X158948508Y-44694976D01*
X158995853Y-44829438D01*
X159022601Y-44907109D01*
X159032631Y-44937714D01*
X159045605Y-44977974D01*
X159056156Y-45011773D01*
X159061521Y-45029656D01*
X159065634Y-45044141D01*
X159069189Y-45055617D01*
X159080498Y-45095565D01*
X159087102Y-45120097D01*
X159090643Y-45134007D01*
X159092982Y-45143302D01*
X159093895Y-45148099D01*
X159094780Y-45152911D01*
X159095688Y-45157519D01*
X159099377Y-45179348D01*
X159101363Y-45190978D01*
X159103349Y-45206296D01*
X159104483Y-45222181D01*
X159105618Y-45242037D01*
X159105901Y-45259623D01*
X159105050Y-45282032D01*
X159104199Y-45296783D01*
X159101601Y-45319138D01*
X159098198Y-45341987D01*
X159096253Y-45357301D01*
X159090662Y-45379664D01*
X159082884Y-45409562D01*
X159073890Y-45434842D01*
X159064896Y-45458906D01*
X159055061Y-45480704D01*
X159037448Y-45514925D01*
X159014801Y-45555185D01*
X158970012Y-45618595D01*
X158896537Y-45708174D01*
X158847219Y-45766551D01*
X158792620Y-45830026D01*
X158804226Y-45849449D01*
X158832139Y-45895587D01*
X158848491Y-45922583D01*
X158861844Y-45944451D01*
X158949549Y-46089155D01*
X158999036Y-46170135D01*
X159022060Y-46208508D01*
X159151648Y-46417992D01*
X159153579Y-46421041D01*
X159155509Y-46423784D01*
X159157237Y-46425613D01*
X159160387Y-46428662D01*
X159163232Y-46431202D01*
X159166687Y-46433742D01*
X159170447Y-46436283D01*
X159175731Y-46439128D01*
X159180100Y-46441567D01*
X159184063Y-46443396D01*
X159189957Y-46445631D01*
X159194936Y-46447562D01*
X159199508Y-46448984D01*
X159205605Y-46450712D01*
X159209925Y-46451881D01*
X159213266Y-46452623D01*
X159217999Y-46453551D01*
X159222174Y-46454015D01*
X159227185Y-46454479D01*
X159232103Y-46454850D01*
X159237578Y-46455036D01*
X159243146Y-46455221D01*
X159248899Y-46455500D01*
X159254374Y-46455685D01*
X159258272Y-46455685D01*
X159262726Y-46455778D01*
X159267644Y-46455964D01*
X159270614Y-46456242D01*
X159296689Y-46458284D01*
X159301553Y-46458626D01*
X159304744Y-46458948D01*
X159310190Y-46459528D01*
X159317280Y-46460334D01*
X159348082Y-46464246D01*
X159359701Y-46465987D01*
X159368556Y-46467318D01*
X159383145Y-46470184D01*
X159397017Y-46472846D01*
X159407663Y-46475200D01*
X159424372Y-46479046D01*
X159433415Y-46481166D01*
X159444828Y-46484285D01*
X159457052Y-46487590D01*
X159467155Y-46490584D01*
X159477618Y-46493845D01*
X159493150Y-46498747D01*
X159505586Y-46503288D01*
X159524163Y-46509996D01*
X159532264Y-46513247D01*
X159545766Y-46518845D01*
X159554334Y-46522324D01*
X159561805Y-46525693D01*
X159569165Y-46529099D01*
X159575720Y-46532065D01*
X159588906Y-46538357D01*
X159597233Y-46542620D01*
X159604915Y-46546436D01*
X159611904Y-46550054D01*
X159618397Y-46553672D01*
X159625435Y-46557637D01*
X159631531Y-46561057D01*
X159639558Y-46565519D01*
X159650297Y-46572097D01*
X159656875Y-46576124D01*
X159663050Y-46579883D01*
X159671171Y-46585051D01*
X159679829Y-46590957D01*
X159691374Y-46598743D01*
X159699160Y-46604180D01*
X159726752Y-46624974D01*
X159753412Y-46646302D01*
X159773540Y-46662431D01*
X159838676Y-46714817D01*
X159863617Y-46736791D01*
X159950103Y-46813447D01*
X159963018Y-46825948D01*
X159976181Y-46838780D01*
X160001431Y-46863451D01*
X160018155Y-46879926D01*
X160043587Y-46904917D01*
X160057429Y-46918384D01*
X160070055Y-46932132D01*
X160084490Y-46947996D01*
X160099593Y-46964398D01*
X160117394Y-46983698D01*
X160132057Y-46999652D01*
X160143084Y-47011734D01*
X160149736Y-47018841D01*
X160154428Y-47023920D01*
X160157116Y-47027032D01*
X160159623Y-47030052D01*
X160162363Y-47033337D01*
X160164231Y-47035611D01*
X160167600Y-47039701D01*
X160170006Y-47042583D01*
X160171584Y-47044514D01*
X160174770Y-47048388D01*
X160177625Y-47051865D01*
X160180406Y-47055104D01*
X160184909Y-47060575D01*
X160187705Y-47063982D01*
X160206165Y-47086221D01*
X160212330Y-47093678D01*
X160218606Y-47101283D01*
X160228026Y-47112583D01*
X160233554Y-47119340D01*
X160238161Y-47124867D01*
X160241052Y-47128373D01*
X160336634Y-47257855D01*
X160419923Y-47384359D01*
X160505569Y-47534437D01*
X160541784Y-47604945D01*
X160563258Y-47650456D01*
X160616036Y-47770851D01*
X160639263Y-47831054D01*
X160660446Y-47886055D01*
X160669922Y-47914485D01*
X160697471Y-47998693D01*
X160705372Y-48021519D01*
X160712571Y-48048735D01*
X160726167Y-48098541D01*
X160732394Y-48121052D01*
X160737279Y-48138486D01*
X160743624Y-48162197D01*
X160745507Y-48170640D01*
X160747650Y-48179993D01*
X160749432Y-48188523D01*
X160750628Y-48193672D01*
X160751157Y-48196094D01*
X160753272Y-48205737D01*
X160754284Y-48210033D01*
X160755232Y-48214445D01*
X160755864Y-48217200D01*
X160757664Y-48225372D01*
X160758198Y-48227730D01*
X160758549Y-48229203D01*
X160758819Y-48230481D01*
X160759073Y-48231573D01*
X160760671Y-48238717D01*
X160760982Y-48240097D01*
X160761189Y-48241081D01*
X160761433Y-48242147D01*
X160761634Y-48242990D01*
X160761807Y-48243782D01*
X160761918Y-48244318D01*
X160780104Y-48333767D01*
X160790843Y-48391690D01*
X160799955Y-48450264D01*
X160803631Y-48472419D01*
X160806816Y-48495245D01*
X160810532Y-48525503D01*
X160815044Y-48561069D01*
X160819821Y-48602740D01*
X160822741Y-48630610D01*
X160824071Y-48649075D01*
X160825075Y-48672271D01*
X160825544Y-48682635D01*
X160825889Y-48690896D01*
X160826146Y-48714511D01*
X160823860Y-48848761D01*
X160821992Y-48901832D01*
X160821244Y-48930798D01*
X160820497Y-48980132D01*
X160820338Y-49005531D01*
X160823619Y-49001760D01*
X160826839Y-48998051D01*
X160828368Y-48996299D01*
X160866495Y-48952284D01*
X160875582Y-48941682D01*
X160883069Y-48933027D01*
X160901275Y-48911074D01*
X160908387Y-48902016D01*
X160915710Y-48892619D01*
X160928227Y-48875736D01*
X160935746Y-48864871D01*
X160940473Y-48857878D01*
X160945434Y-48850585D01*
X160948629Y-48845666D01*
X160951057Y-48841800D01*
X160953868Y-48837264D01*
X160955337Y-48834900D01*
X160958560Y-48829759D01*
X160961755Y-48824486D01*
X160964797Y-48819481D01*
X160967453Y-48814708D01*
X160970302Y-48809819D01*
X160972688Y-48805699D01*
X160974613Y-48802312D01*
X160979845Y-48792653D01*
X160981436Y-48789651D01*
X160983286Y-48786059D01*
X160984650Y-48783421D01*
X160990288Y-48772680D01*
X160991199Y-48770786D01*
X160991611Y-48769924D01*
X160992085Y-48768916D01*
X160992401Y-48768272D01*
X160993153Y-48766657D01*
X160993809Y-48765261D01*
X160994659Y-48763476D01*
X160999202Y-48753919D01*
X161001601Y-48748782D01*
X161004385Y-48742581D01*
X161005879Y-48739005D01*
X161009744Y-48729934D01*
X161010837Y-48727309D01*
X161011769Y-48725169D01*
X161012935Y-48722421D01*
X161013884Y-48719983D01*
X161014953Y-48717050D01*
X161015913Y-48714337D01*
X161018481Y-48707142D01*
X161019677Y-48703876D01*
X161024584Y-48690237D01*
X161027659Y-48681568D01*
X161031939Y-48669531D01*
X161032313Y-48668133D01*
X161033268Y-48664742D01*
X161037098Y-48650743D01*
X161038798Y-48644485D01*
X161040194Y-48639225D01*
X161040824Y-48636976D01*
X161041309Y-48635161D01*
X161045107Y-48621268D01*
X161045744Y-48618889D01*
X161046146Y-48617347D01*
X161050783Y-48593176D01*
X161056097Y-48566745D01*
X161057495Y-48556397D01*
X161058614Y-48545489D01*
X161059733Y-48535421D01*
X161060772Y-48526414D01*
X161061503Y-48519947D01*
X161062047Y-48515311D01*
X161062368Y-48512470D01*
X161063029Y-48498665D01*
X161063258Y-48493672D01*
X161063585Y-48485854D01*
X161063919Y-48479608D01*
X161064029Y-48477284D01*
X161064403Y-48469777D01*
X161064505Y-48467573D01*
X161064572Y-48466060D01*
X161064866Y-48459815D01*
X161064846Y-48458156D01*
X161064811Y-48456511D01*
X161064593Y-48442836D01*
X161064490Y-48437376D01*
X161064455Y-48434072D01*
X161064186Y-48417514D01*
X161064136Y-48412427D01*
X161064037Y-48405760D01*
X161063543Y-48399438D01*
X161062654Y-48388178D01*
X161062265Y-48383326D01*
X161061926Y-48378894D01*
X161061700Y-48375661D01*
X161061483Y-48373076D01*
X161061369Y-48371331D01*
X161060825Y-48364202D01*
X161060136Y-48354978D01*
X161051729Y-48293180D01*
X161032092Y-48194537D01*
X161014537Y-48129378D01*
X161000851Y-48083261D01*
X160977941Y-48016614D01*
X160957114Y-47962166D01*
X160922806Y-47870941D01*
X160906437Y-47828036D01*
X160897305Y-47804086D01*
X160849411Y-47678030D01*
X160828969Y-47624392D01*
X160791887Y-47526316D01*
X160771926Y-47473030D01*
X160760931Y-47444104D01*
X160664044Y-47189031D01*
X160656805Y-47167858D01*
X160648843Y-47143248D01*
X160639433Y-47113933D01*
X160631150Y-47085929D01*
X160625538Y-47065723D01*
X160619083Y-47044675D01*
X160614312Y-47023066D01*
X160607577Y-46994721D01*
X160601122Y-46969183D01*
X160595509Y-46943084D01*
X160591300Y-46920913D01*
X160587090Y-46900988D01*
X160582319Y-46873766D01*
X160573670Y-46810724D01*
X160564023Y-46745339D01*
X160558664Y-46690674D01*
X160556520Y-46629577D01*
X160551161Y-46562049D01*
X160551161Y-46481659D01*
X160553305Y-46411987D01*
X160558664Y-46347674D01*
X160570455Y-46284434D01*
X160595108Y-46199756D01*
X160631551Y-46125796D01*
X160652310Y-46093559D01*
X160673241Y-46067798D01*
X160692025Y-46048478D01*
X160714029Y-46028084D01*
X160739790Y-46009836D01*
X160763404Y-45995346D01*
X160793995Y-45981392D01*
X160816536Y-45972805D01*
X160843370Y-45964755D01*
X160871815Y-45958851D01*
X160905089Y-45955631D01*
X160931115Y-45954311D01*
X160947506Y-45954311D01*
X160960619Y-45955056D01*
X160974327Y-45956099D01*
X160983119Y-45956993D01*
X160994443Y-45958185D01*
X161010685Y-45960271D01*
X161025884Y-45962208D01*
X161043913Y-45965486D01*
X161065966Y-45969808D01*
X161082804Y-45973384D01*
X161121726Y-45982894D01*
X161147147Y-45989597D01*
X161182083Y-46000340D01*
X161199674Y-46006334D01*
X161208625Y-46009408D01*
X161253903Y-46026083D01*
X161276982Y-46035955D01*
X161286993Y-46041029D01*
X161299158Y-46048676D01*
X161305136Y-46052948D01*
X161310573Y-46057298D01*
X161314644Y-46060867D01*
X161321079Y-46067203D01*
X161325123Y-46071469D01*
X161329055Y-46076294D01*
X161331927Y-46080198D01*
X161335938Y-46086066D01*
X161339340Y-46091789D01*
X161341815Y-46096584D01*
X161344250Y-46102218D01*
X161345801Y-46106130D01*
X161346660Y-46108588D01*
X161347558Y-46111378D01*
X161348458Y-46114563D01*
X161349322Y-46117731D01*
X161349984Y-46120841D01*
X161350581Y-46123813D01*
X161350919Y-46125721D01*
X161350997Y-46126326D01*
X161351271Y-46128413D01*
X161351405Y-46129530D01*
X161351494Y-46130256D01*
X161351744Y-46132087D01*
X161351856Y-46132919D01*
X161351917Y-46133935D01*
X161352227Y-46139704D01*
X161352227Y-46149849D01*
X161351590Y-46157249D01*
X161349923Y-46167688D01*
X161348871Y-46172661D01*
X161348006Y-46175986D01*
X161347092Y-46179544D01*
X161346743Y-46180741D01*
X161344133Y-46188662D01*
X161341541Y-46195437D01*
X161340579Y-46197891D01*
X161335677Y-46208260D01*
X161329156Y-46220276D01*
X161322635Y-46230781D01*
X161315329Y-46241166D01*
X161307942Y-46250722D01*
X161306864Y-46252090D01*
X161306038Y-46253117D01*
X161286574Y-46276596D01*
X161263339Y-46303193D01*
X161235377Y-46332519D01*
X161231950Y-46335823D01*
X161224441Y-46343287D01*
X161219450Y-46348163D01*
X161205076Y-46361911D01*
X161197272Y-46368951D01*
X161175276Y-46388592D01*
X161145484Y-46413768D01*
X161125261Y-46430173D01*
X161112625Y-46440322D01*
X161098399Y-46453254D01*
X161079258Y-46471619D01*
X161056238Y-46496450D01*
X161042788Y-46513004D01*
X161031407Y-46528523D01*
X161017698Y-46547922D01*
X161000178Y-46578828D01*
X160990022Y-46598576D01*
X160981064Y-46619036D01*
X160976007Y-46632269D01*
X160970612Y-46646851D01*
X160966482Y-46660085D01*
X160962521Y-46674414D01*
X160959739Y-46683938D01*
X160957211Y-46695292D01*
X160954639Y-46706805D01*
X160953843Y-46711031D01*
X160952641Y-46718223D01*
X160951695Y-46724089D01*
X160951145Y-46727309D01*
X160950867Y-46729172D01*
X160950597Y-46730756D01*
X160949201Y-46739481D01*
X160948992Y-46741129D01*
X160948782Y-46743525D01*
X160948333Y-46747119D01*
X160946320Y-46766185D01*
X160945581Y-46777144D01*
X160944966Y-46792906D01*
X160944473Y-46806943D01*
X160944104Y-46818887D01*
X160945013Y-46851500D01*
X160948046Y-46886828D01*
X160950901Y-46918944D01*
X160953651Y-46938750D01*
X160954882Y-46947981D01*
X160956236Y-46957786D01*
X160957384Y-46964473D01*
X160964980Y-47010355D01*
X160981527Y-47076542D01*
X161005313Y-47155139D01*
X161031167Y-47229599D01*
X161050816Y-47276136D01*
X161073568Y-47327845D01*
X161096319Y-47377485D01*
X161128379Y-47441603D01*
X161146843Y-47477813D01*
X161165449Y-47512344D01*
X161181206Y-47542182D01*
X161189922Y-47558823D01*
X161195247Y-47569055D01*
X161204756Y-47587443D01*
X161221613Y-47619882D01*
X161226466Y-47629278D01*
X161228421Y-47633014D01*
X161235169Y-47646037D01*
X161238082Y-47651636D01*
X161240000Y-47655368D01*
X161241675Y-47658581D01*
X161243151Y-47661453D01*
X161247604Y-47670019D01*
X161248830Y-47672349D01*
X161256513Y-47687207D01*
X161258560Y-47691244D01*
X161260007Y-47694306D01*
X161262937Y-47700465D01*
X161264807Y-47704390D01*
X161266554Y-47708089D01*
X161271390Y-47718174D01*
X161273054Y-47721671D01*
X161274162Y-47723988D01*
X161274745Y-47725253D01*
X161277371Y-47730760D01*
X161280204Y-47736626D01*
X161282083Y-47740613D01*
X161282516Y-47741467D01*
X161307225Y-47794308D01*
X161323339Y-47831821D01*
X161337869Y-47864843D01*
X161347760Y-47889185D01*
X161350774Y-47896758D01*
X161360377Y-47920181D01*
X161364098Y-47929393D01*
X161366549Y-47935383D01*
X161369044Y-47942008D01*
X161371359Y-47948498D01*
X161387841Y-47993503D01*
X161391050Y-48002275D01*
X161392489Y-48006184D01*
X161396911Y-48018409D01*
X161398344Y-48022679D01*
X161399748Y-48027148D01*
X161401094Y-48031446D01*
X161403174Y-48038513D01*
X161413635Y-48069420D01*
X161425998Y-48108886D01*
X161432417Y-48134563D01*
X161439036Y-48158254D01*
X161440586Y-48164067D01*
X161442081Y-48169493D01*
X161443853Y-48176469D01*
X161445268Y-48181282D01*
X161446088Y-48184431D01*
X161446973Y-48187600D01*
X161447350Y-48189171D01*
X161447587Y-48190205D01*
X161447790Y-48191175D01*
X161449567Y-48199262D01*
X161450082Y-48201555D01*
X161450227Y-48202303D01*
X161451607Y-48208606D01*
X161452023Y-48210545D01*
X161452305Y-48211805D01*
X161454406Y-48221368D01*
X161454794Y-48223114D01*
X161456062Y-48228966D01*
X161457181Y-48234066D01*
X161458329Y-48239200D01*
X161459220Y-48243317D01*
X161460426Y-48248928D01*
X161460955Y-48251253D01*
X161461178Y-48252371D01*
X161461446Y-48253521D01*
X161461686Y-48254615D01*
X161467056Y-48280763D01*
X161469609Y-48295499D01*
X161471581Y-48307915D01*
X161473206Y-48318474D01*
X161479631Y-48358425D01*
X161480345Y-48361816D01*
X161482755Y-48384482D01*
X161485521Y-48410628D01*
X161487217Y-48427048D01*
X161488537Y-48439630D01*
X161489733Y-48450574D01*
X161489900Y-48455644D01*
X161491070Y-48480106D01*
X161493633Y-48541420D01*
X161493296Y-48562341D01*
X161491946Y-48635561D01*
X161485198Y-48723965D01*
X161472516Y-48805295D01*
X161465372Y-48843398D01*
X161450491Y-48911699D01*
X161436852Y-48960948D01*
X161420183Y-49008683D01*
X161402378Y-49055659D01*
X161391581Y-49079716D01*
X161351149Y-49169212D01*
X161333622Y-49201968D01*
X161313654Y-49242025D01*
X161302946Y-49260537D01*
X161297138Y-49270337D01*
X161289788Y-49282769D01*
X161286113Y-49288985D01*
X161247159Y-49353153D01*
X161211620Y-49405751D01*
X161183757Y-49445840D01*
X161162860Y-49473419D01*
X161152411Y-49487208D01*
X161147187Y-49494103D01*
X161123565Y-49522460D01*
X161096442Y-49555479D01*
X161074862Y-49579654D01*
X161064072Y-49591742D01*
X161040934Y-49618477D01*
X161013559Y-49646399D01*
X160983811Y-49677242D01*
X160975188Y-49685409D01*
X160964733Y-49694624D01*
X160950755Y-49709320D01*
X160928533Y-49730466D01*
X160894124Y-49760574D01*
X160841794Y-49804302D01*
X160769034Y-49861649D01*
X160672260Y-49929391D01*
X160587025Y-49982537D01*
X160507283Y-50030587D01*
X160416295Y-50075569D01*
X160339619Y-50112374D01*
X160263966Y-50142021D01*
X160136174Y-50192116D01*
X160034963Y-50221764D01*
X159885267Y-50264125D01*
X159716896Y-50297419D01*
X159497158Y-50331664D01*
X159184544Y-50362711D01*
X158890946Y-50377987D01*
X158713258Y-50379954D01*
X158578199Y-50379067D01*
X158516326Y-50376758D01*
X158409598Y-50372696D01*
X158275675Y-50358955D01*
X158241073Y-50350682D01*
X158231517Y-50346114D01*
X158227841Y-50341318D01*
X158211246Y-50018367D01*
X158194576Y-49699812D01*
X158163231Y-49093542D01*
X158143584Y-48970699D01*
X158128798Y-48890578D01*
X158092794Y-48727645D01*
X158062983Y-48612676D01*
X158025653Y-48498269D01*
X157997730Y-48423839D01*
X157968245Y-48352154D01*
X157860438Y-48144445D01*
X157801072Y-48057679D01*
X157664396Y-47850672D01*
X157543389Y-47653192D01*
X157485081Y-47552918D01*
X157408630Y-47412680D01*
X157304035Y-47198222D01*
X157243278Y-47045571D01*
X157226407Y-46992886D01*
X157199195Y-46902954D01*
X157160045Y-46744454D01*
X157139527Y-46633657D01*
X157126651Y-46555910D01*
X157117275Y-46489235D01*
X157110050Y-46437651D01*
X157091985Y-46279212D01*
X157077769Y-46129937D01*
X157061891Y-45959772D01*
X157056711Y-45902817D01*
X157053483Y-45880019D01*
X157047834Y-45858432D01*
X157040974Y-45840275D01*
X157034667Y-45825873D01*
X157031362Y-45819108D01*
X157026891Y-45810368D01*
X157021598Y-45801426D01*
X157016671Y-45793700D01*
X157011033Y-45785795D01*
X157004432Y-45777167D01*
X156997331Y-45769159D01*
X156989080Y-45760908D01*
X156979146Y-45750894D01*
X156947923Y-45719239D01*
X156944001Y-45715228D01*
X156936693Y-45706895D01*
X156929562Y-45698829D01*
X156907864Y-45674140D01*
X156902540Y-45668064D01*
X156888887Y-45650295D01*
X156868730Y-45624266D01*
X156867685Y-45622994D01*
X156866517Y-45621425D01*
X156859106Y-45610393D01*
X156847079Y-45592446D01*
X156840070Y-45581962D01*
X156833601Y-45572448D01*
X156827950Y-45562665D01*
X156821044Y-45551103D01*
X156814348Y-45539174D01*
X156810796Y-45532511D01*
X156804918Y-45521639D01*
X156793415Y-45498470D01*
X156785674Y-45481194D01*
X156777744Y-45462409D01*
X156761393Y-45419212D01*
X156747495Y-45367034D01*
X156741339Y-45336026D01*
X156737155Y-45311874D01*
X156734113Y-45286582D01*
X156731503Y-45251160D01*
X156731080Y-45221222D01*
X156731218Y-45203481D01*
X156732113Y-45179350D01*
X156733009Y-45167502D01*
X156733904Y-45157376D01*
X156736014Y-45135699D01*
X156738041Y-45121509D01*
X156741419Y-45100023D01*
X156745203Y-45080158D01*
X156749649Y-45058587D01*
X156757199Y-45027938D01*
X156763517Y-45004625D01*
X156766562Y-44994701D01*
X156775834Y-44966691D01*
X156790023Y-44928020D01*
X156801292Y-44898369D01*
X156817298Y-44857468D01*
X156835926Y-44810307D01*
X156854600Y-44762725D01*
X156871671Y-44719511D01*
X156879867Y-44698770D01*
X156885837Y-44683557D01*
X156894618Y-44661077D01*
X156899455Y-44648557D01*
X156914200Y-44610391D01*
X156922222Y-44589626D01*
X156930244Y-44568862D01*
X156938266Y-44548098D01*
X156941627Y-44539397D01*
X156944989Y-44530695D01*
X156949649Y-44518633D01*
X156953011Y-44509931D01*
X156957671Y-44497868D01*
X156961032Y-44489167D01*
X156964394Y-44480465D01*
X156969054Y-44468403D01*
X156972416Y-44459701D01*
X156977076Y-44447639D01*
X156980438Y-44438937D01*
X156988124Y-44419040D01*
X157014432Y-44350499D01*
X157019167Y-44338169D01*
X157022404Y-44329639D01*
X157030384Y-44309042D01*
X157032050Y-44304638D01*
X157033691Y-44300376D01*
X157041715Y-44279542D01*
X157045090Y-44270953D01*
X157046463Y-44267432D01*
X157049720Y-44258736D01*
X157053088Y-44250014D01*
X157057761Y-44238017D01*
X157059465Y-44233611D01*
X157061100Y-44229285D01*
X157064490Y-44220623D01*
X157069139Y-44208454D01*
X157072545Y-44199854D01*
X157080566Y-44179137D01*
X157088513Y-44158453D01*
X157092059Y-44149509D01*
X157108007Y-44108288D01*
X157123626Y-44070178D01*
X157130787Y-44048938D01*
X157142051Y-44020151D01*
X157153615Y-43989802D01*
X157165487Y-43958885D01*
X157173838Y-43937061D01*
X157176709Y-43931826D01*
X157189300Y-43917552D01*
X157200215Y-43904231D01*
X157210074Y-43929657D01*
G37*
G36*
X163550724Y-43914832D02*
G01*
X163559705Y-43937888D01*
X163621799Y-44094387D01*
X163709655Y-44331613D01*
X163711546Y-44335017D01*
X163714446Y-44339682D01*
X163717724Y-44344725D01*
X163721507Y-44349894D01*
X163726298Y-44355820D01*
X163730080Y-44359602D01*
X163734619Y-44363637D01*
X163738527Y-44366537D01*
X163742688Y-44369310D01*
X163747731Y-44372462D01*
X163753278Y-44374984D01*
X163759204Y-44377253D01*
X163765256Y-44379271D01*
X163770677Y-44380657D01*
X163775973Y-44381792D01*
X163781394Y-44382675D01*
X163789352Y-44383638D01*
X163796358Y-44384114D01*
X163803160Y-44384386D01*
X163812479Y-44384523D01*
X163821049Y-44384455D01*
X163833565Y-44383978D01*
X163843699Y-44383298D01*
X163854990Y-44382278D01*
X163904956Y-44378099D01*
X163928031Y-44376133D01*
X163939022Y-44375114D01*
X163946446Y-44374532D01*
X163952415Y-44374095D01*
X163958456Y-44373783D01*
X164008052Y-44370988D01*
X164029981Y-44369779D01*
X164039422Y-44369225D01*
X164048313Y-44368749D01*
X164053223Y-44368483D01*
X164057083Y-44368335D01*
X164060780Y-44368217D01*
X164070205Y-44367953D01*
X164076884Y-44367748D01*
X164081239Y-44367616D01*
X164094882Y-44367237D01*
X164099470Y-44367115D01*
X164102459Y-44366993D01*
X164106508Y-44366889D01*
X164110331Y-44366767D01*
X164113303Y-44366715D01*
X164177822Y-44365425D01*
X164189495Y-44365266D01*
X164211573Y-44365266D01*
X164223485Y-44365187D01*
X164236826Y-44365107D01*
X164262903Y-44364834D01*
X164270185Y-44364983D01*
X164276542Y-44365043D01*
X164281795Y-44365162D01*
X164303271Y-44365502D01*
X164314001Y-44365658D01*
X164323341Y-44365856D01*
X164329180Y-44365927D01*
X164334687Y-44366069D01*
X164341001Y-44366164D01*
X164349345Y-44366308D01*
X164357483Y-44366402D01*
X164362809Y-44366514D01*
X164367797Y-44366608D01*
X164374871Y-44366865D01*
X164379648Y-44367046D01*
X164387659Y-44367309D01*
X164392190Y-44367489D01*
X164401391Y-44367831D01*
X164404888Y-44367956D01*
X164414940Y-44368303D01*
X164421907Y-44368538D01*
X164427595Y-44368772D01*
X164434008Y-44369006D01*
X164438119Y-44369197D01*
X164441470Y-44369247D01*
X164444367Y-44369373D01*
X164447894Y-44369449D01*
X164452252Y-44369625D01*
X164455930Y-44369751D01*
X164459986Y-44369927D01*
X164463891Y-44370053D01*
X164467493Y-44370205D01*
X164476142Y-44370612D01*
X164480537Y-44370793D01*
X164486044Y-44371103D01*
X164496125Y-44371635D01*
X164503658Y-44372039D01*
X164510519Y-44372341D01*
X164539275Y-44373932D01*
X164544293Y-44374225D01*
X164548210Y-44374416D01*
X164551394Y-44374592D01*
X164563709Y-44375204D01*
X164573522Y-44375721D01*
X164581656Y-44376237D01*
X164588929Y-44376710D01*
X164596030Y-44377184D01*
X164628943Y-44379446D01*
X164640150Y-44380169D01*
X164650513Y-44380892D01*
X164661077Y-44381575D01*
X164669754Y-44382177D01*
X164679072Y-44382900D01*
X164692905Y-44383851D01*
X164702873Y-44384208D01*
X164707217Y-44384268D01*
X164711739Y-44384297D01*
X164716291Y-44384238D01*
X164720219Y-44384178D01*
X164723462Y-44383910D01*
X164727181Y-44383643D01*
X164730811Y-44383345D01*
X164733251Y-44383018D01*
X164740885Y-44381868D01*
X164743681Y-44381259D01*
X164746947Y-44380539D01*
X164749742Y-44379792D01*
X164753423Y-44378657D01*
X164756357Y-44377688D01*
X164759762Y-44376332D01*
X164770012Y-44371140D01*
X164773949Y-44368596D01*
X164777401Y-44366113D01*
X164781339Y-44362781D01*
X164785245Y-44359026D01*
X164787820Y-44356209D01*
X164790969Y-44352515D01*
X164794801Y-44347186D01*
X164797225Y-44343568D01*
X164799477Y-44339950D01*
X164801594Y-44336264D01*
X164803915Y-44332100D01*
X164806441Y-44326673D01*
X164808318Y-44322679D01*
X164809512Y-44319914D01*
X164810985Y-44316361D01*
X164813068Y-44311187D01*
X164815280Y-44305623D01*
X164817200Y-44300547D01*
X164819120Y-44295796D01*
X164820910Y-44291012D01*
X164827320Y-44274427D01*
X164831025Y-44265063D01*
X164833223Y-44259281D01*
X164841688Y-44237510D01*
X164843482Y-44232814D01*
X164845143Y-44228561D01*
X164846251Y-44225747D01*
X164853107Y-44208143D01*
X164854629Y-44204043D01*
X164855930Y-44200826D01*
X164856913Y-44198322D01*
X164857870Y-44195670D01*
X164858656Y-44193681D01*
X164862542Y-44183454D01*
X164865133Y-44176848D01*
X164867853Y-44170112D01*
X164869537Y-44165481D01*
X164870994Y-44161983D01*
X164935063Y-43996705D01*
X164960674Y-43930363D01*
X164976694Y-43889418D01*
X164977505Y-43891447D01*
X164990318Y-43923351D01*
X164995836Y-43937228D01*
X164999305Y-43945983D01*
X165018419Y-43993550D01*
X165023269Y-44005632D01*
X165050888Y-44074690D01*
X165084006Y-44157346D01*
X165086302Y-44163071D01*
X165118446Y-44243298D01*
X165121211Y-44250178D01*
X165122539Y-44253531D01*
X165144904Y-44309658D01*
X165149898Y-44322385D01*
X165153301Y-44331091D01*
X165177267Y-44391457D01*
X165179320Y-44396565D01*
X165186915Y-44415751D01*
X165189098Y-44421211D01*
X165193429Y-44432128D01*
X165194521Y-44434901D01*
X165195675Y-44437774D01*
X165196328Y-44439405D01*
X165253153Y-44585317D01*
X165289158Y-44680151D01*
X165336503Y-44814613D01*
X165363251Y-44892284D01*
X165373281Y-44922889D01*
X165386255Y-44963149D01*
X165396806Y-44996948D01*
X165402171Y-45014831D01*
X165406284Y-45029316D01*
X165409839Y-45040792D01*
X165421148Y-45080740D01*
X165427752Y-45105272D01*
X165431293Y-45119182D01*
X165433632Y-45128477D01*
X165434545Y-45133274D01*
X165435430Y-45138086D01*
X165436338Y-45142694D01*
X165440027Y-45164523D01*
X165442013Y-45176153D01*
X165443999Y-45191471D01*
X165445133Y-45207356D01*
X165446268Y-45227212D01*
X165446551Y-45244798D01*
X165445700Y-45267207D01*
X165444849Y-45281958D01*
X165442251Y-45304313D01*
X165438848Y-45327162D01*
X165436903Y-45342476D01*
X165431312Y-45364839D01*
X165423534Y-45394737D01*
X165414540Y-45420017D01*
X165405546Y-45444081D01*
X165395711Y-45465879D01*
X165378098Y-45500100D01*
X165355451Y-45540360D01*
X165310662Y-45603770D01*
X165237187Y-45693349D01*
X165187869Y-45751726D01*
X165133270Y-45815201D01*
X165144876Y-45834624D01*
X165172789Y-45880762D01*
X165189141Y-45907758D01*
X165202494Y-45929626D01*
X165290199Y-46074330D01*
X165339686Y-46155310D01*
X165362710Y-46193683D01*
X165492298Y-46403167D01*
X165494229Y-46406216D01*
X165496159Y-46408959D01*
X165497887Y-46410788D01*
X165501037Y-46413837D01*
X165503882Y-46416377D01*
X165507337Y-46418917D01*
X165511097Y-46421458D01*
X165516381Y-46424303D01*
X165520750Y-46426742D01*
X165524713Y-46428571D01*
X165530607Y-46430806D01*
X165535586Y-46432737D01*
X165540158Y-46434159D01*
X165546255Y-46435887D01*
X165550575Y-46437056D01*
X165553916Y-46437798D01*
X165558649Y-46438726D01*
X165562824Y-46439190D01*
X165567835Y-46439654D01*
X165572753Y-46440025D01*
X165578228Y-46440211D01*
X165583796Y-46440396D01*
X165589549Y-46440675D01*
X165595024Y-46440860D01*
X165598922Y-46440860D01*
X165603376Y-46440953D01*
X165608294Y-46441139D01*
X165611264Y-46441417D01*
X165637339Y-46443459D01*
X165642203Y-46443801D01*
X165645394Y-46444123D01*
X165650840Y-46444703D01*
X165657930Y-46445509D01*
X165688732Y-46449421D01*
X165700351Y-46451162D01*
X165709206Y-46452493D01*
X165723795Y-46455359D01*
X165737667Y-46458021D01*
X165748313Y-46460375D01*
X165765022Y-46464221D01*
X165774065Y-46466341D01*
X165785478Y-46469460D01*
X165797702Y-46472765D01*
X165807805Y-46475759D01*
X165818268Y-46479020D01*
X165833800Y-46483922D01*
X165846236Y-46488463D01*
X165864813Y-46495171D01*
X165872914Y-46498422D01*
X165886416Y-46504020D01*
X165894984Y-46507499D01*
X165902455Y-46510868D01*
X165909815Y-46514274D01*
X165916370Y-46517240D01*
X165929556Y-46523532D01*
X165937883Y-46527795D01*
X165945565Y-46531611D01*
X165952554Y-46535229D01*
X165959047Y-46538847D01*
X165966085Y-46542812D01*
X165972181Y-46546232D01*
X165980208Y-46550694D01*
X165990947Y-46557272D01*
X165997525Y-46561299D01*
X166003700Y-46565058D01*
X166011821Y-46570226D01*
X166020479Y-46576132D01*
X166032024Y-46583918D01*
X166039810Y-46589355D01*
X166067402Y-46610149D01*
X166094062Y-46631477D01*
X166114190Y-46647606D01*
X166179326Y-46699992D01*
X166204267Y-46721966D01*
X166290753Y-46798622D01*
X166303668Y-46811123D01*
X166316831Y-46823955D01*
X166342081Y-46848626D01*
X166358805Y-46865101D01*
X166384237Y-46890092D01*
X166398079Y-46903559D01*
X166410705Y-46917307D01*
X166425140Y-46933171D01*
X166440243Y-46949573D01*
X166458044Y-46968873D01*
X166472707Y-46984827D01*
X166483734Y-46996909D01*
X166490386Y-47004016D01*
X166495078Y-47009095D01*
X166497766Y-47012207D01*
X166500273Y-47015227D01*
X166503013Y-47018512D01*
X166504881Y-47020786D01*
X166508250Y-47024876D01*
X166510656Y-47027758D01*
X166512234Y-47029689D01*
X166515420Y-47033563D01*
X166518275Y-47037040D01*
X166521056Y-47040279D01*
X166525559Y-47045750D01*
X166528355Y-47049157D01*
X166546815Y-47071396D01*
X166552980Y-47078853D01*
X166559256Y-47086458D01*
X166568676Y-47097758D01*
X166574204Y-47104515D01*
X166578811Y-47110042D01*
X166581702Y-47113548D01*
X166677284Y-47243030D01*
X166760573Y-47369534D01*
X166846219Y-47519612D01*
X166882434Y-47590120D01*
X166903908Y-47635631D01*
X166956686Y-47756026D01*
X166979913Y-47816229D01*
X167001096Y-47871230D01*
X167010572Y-47899660D01*
X167038121Y-47983868D01*
X167046022Y-48006694D01*
X167053221Y-48033910D01*
X167066817Y-48083716D01*
X167073044Y-48106227D01*
X167077929Y-48123661D01*
X167084274Y-48147372D01*
X167086157Y-48155815D01*
X167088300Y-48165168D01*
X167090082Y-48173698D01*
X167091278Y-48178847D01*
X167091807Y-48181269D01*
X167093922Y-48190912D01*
X167094934Y-48195208D01*
X167095882Y-48199620D01*
X167096514Y-48202375D01*
X167098314Y-48210547D01*
X167098848Y-48212905D01*
X167099199Y-48214378D01*
X167099469Y-48215656D01*
X167099723Y-48216748D01*
X167101321Y-48223892D01*
X167101632Y-48225272D01*
X167101839Y-48226256D01*
X167102083Y-48227322D01*
X167102284Y-48228165D01*
X167102457Y-48228957D01*
X167102568Y-48229493D01*
X167120754Y-48318942D01*
X167131493Y-48376865D01*
X167140605Y-48435439D01*
X167144281Y-48457594D01*
X167147466Y-48480420D01*
X167151182Y-48510678D01*
X167155694Y-48546244D01*
X167160471Y-48587915D01*
X167163391Y-48615785D01*
X167164721Y-48634250D01*
X167165725Y-48657446D01*
X167166194Y-48667810D01*
X167166539Y-48676071D01*
X167166796Y-48699686D01*
X167164510Y-48833936D01*
X167162642Y-48887007D01*
X167161894Y-48915973D01*
X167161147Y-48965307D01*
X167160988Y-48990706D01*
X167164269Y-48986935D01*
X167167489Y-48983226D01*
X167169018Y-48981474D01*
X167207145Y-48937459D01*
X167216232Y-48926857D01*
X167223719Y-48918202D01*
X167241925Y-48896249D01*
X167249037Y-48887191D01*
X167256360Y-48877794D01*
X167268877Y-48860911D01*
X167276396Y-48850046D01*
X167281123Y-48843053D01*
X167286084Y-48835760D01*
X167289279Y-48830841D01*
X167291707Y-48826975D01*
X167294518Y-48822439D01*
X167295987Y-48820075D01*
X167299210Y-48814934D01*
X167302405Y-48809661D01*
X167305447Y-48804656D01*
X167308103Y-48799883D01*
X167310952Y-48794994D01*
X167313338Y-48790874D01*
X167315263Y-48787487D01*
X167320495Y-48777828D01*
X167322086Y-48774826D01*
X167323936Y-48771234D01*
X167325300Y-48768596D01*
X167330938Y-48757855D01*
X167331849Y-48755961D01*
X167332261Y-48755099D01*
X167332735Y-48754091D01*
X167333051Y-48753447D01*
X167333803Y-48751832D01*
X167334459Y-48750436D01*
X167335309Y-48748651D01*
X167339852Y-48739094D01*
X167342251Y-48733957D01*
X167345035Y-48727756D01*
X167346529Y-48724180D01*
X167350394Y-48715109D01*
X167351487Y-48712484D01*
X167352419Y-48710344D01*
X167353585Y-48707596D01*
X167354534Y-48705158D01*
X167355603Y-48702225D01*
X167356563Y-48699512D01*
X167359131Y-48692317D01*
X167360327Y-48689051D01*
X167365234Y-48675412D01*
X167368309Y-48666743D01*
X167372589Y-48654706D01*
X167372963Y-48653308D01*
X167373918Y-48649917D01*
X167377748Y-48635918D01*
X167379448Y-48629660D01*
X167380844Y-48624400D01*
X167381474Y-48622151D01*
X167381959Y-48620336D01*
X167385757Y-48606443D01*
X167386394Y-48604064D01*
X167386796Y-48602522D01*
X167391433Y-48578351D01*
X167396747Y-48551920D01*
X167398145Y-48541572D01*
X167399264Y-48530664D01*
X167400383Y-48520596D01*
X167401422Y-48511589D01*
X167402153Y-48505122D01*
X167402697Y-48500486D01*
X167403018Y-48497645D01*
X167403679Y-48483840D01*
X167403908Y-48478847D01*
X167404235Y-48471029D01*
X167404569Y-48464783D01*
X167404679Y-48462459D01*
X167405053Y-48454952D01*
X167405155Y-48452748D01*
X167405222Y-48451235D01*
X167405516Y-48444990D01*
X167405496Y-48443331D01*
X167405461Y-48441686D01*
X167405243Y-48428011D01*
X167405140Y-48422551D01*
X167405105Y-48419247D01*
X167404836Y-48402689D01*
X167404786Y-48397602D01*
X167404687Y-48390935D01*
X167404193Y-48384613D01*
X167403304Y-48373353D01*
X167402915Y-48368501D01*
X167402576Y-48364069D01*
X167402350Y-48360836D01*
X167402133Y-48358251D01*
X167402019Y-48356506D01*
X167401475Y-48349377D01*
X167400786Y-48340153D01*
X167392379Y-48278355D01*
X167372742Y-48179712D01*
X167355187Y-48114553D01*
X167341501Y-48068436D01*
X167318591Y-48001789D01*
X167297764Y-47947341D01*
X167263456Y-47856116D01*
X167247087Y-47813211D01*
X167237955Y-47789261D01*
X167190061Y-47663205D01*
X167169619Y-47609567D01*
X167132537Y-47511491D01*
X167112576Y-47458205D01*
X167101581Y-47429279D01*
X167004694Y-47174206D01*
X166997455Y-47153033D01*
X166989493Y-47128423D01*
X166980083Y-47099108D01*
X166971800Y-47071104D01*
X166966188Y-47050898D01*
X166959733Y-47029850D01*
X166954962Y-47008241D01*
X166948227Y-46979896D01*
X166941772Y-46954358D01*
X166936159Y-46928259D01*
X166931950Y-46906088D01*
X166927740Y-46886163D01*
X166922969Y-46858941D01*
X166914320Y-46795899D01*
X166904673Y-46730514D01*
X166899314Y-46675849D01*
X166897170Y-46614752D01*
X166891811Y-46547224D01*
X166891811Y-46466834D01*
X166893955Y-46397162D01*
X166899314Y-46332849D01*
X166911105Y-46269609D01*
X166935758Y-46184931D01*
X166972201Y-46110971D01*
X166992960Y-46078734D01*
X167013891Y-46052973D01*
X167032675Y-46033653D01*
X167054679Y-46013259D01*
X167080440Y-45995011D01*
X167104054Y-45980521D01*
X167134645Y-45966567D01*
X167157186Y-45957980D01*
X167184020Y-45949930D01*
X167212465Y-45944026D01*
X167245739Y-45940806D01*
X167271765Y-45939486D01*
X167288156Y-45939486D01*
X167301269Y-45940231D01*
X167314977Y-45941274D01*
X167323769Y-45942168D01*
X167335093Y-45943360D01*
X167351335Y-45945446D01*
X167366534Y-45947383D01*
X167384563Y-45950661D01*
X167406616Y-45954983D01*
X167423454Y-45958559D01*
X167462376Y-45968069D01*
X167487797Y-45974772D01*
X167522733Y-45985515D01*
X167540324Y-45991509D01*
X167549275Y-45994583D01*
X167594553Y-46011258D01*
X167617632Y-46021130D01*
X167627643Y-46026204D01*
X167639808Y-46033851D01*
X167645786Y-46038123D01*
X167651223Y-46042473D01*
X167655294Y-46046042D01*
X167661729Y-46052378D01*
X167665773Y-46056644D01*
X167669705Y-46061469D01*
X167672577Y-46065373D01*
X167676588Y-46071241D01*
X167679990Y-46076964D01*
X167682465Y-46081759D01*
X167684900Y-46087393D01*
X167686451Y-46091305D01*
X167687310Y-46093763D01*
X167688208Y-46096553D01*
X167689108Y-46099738D01*
X167689972Y-46102906D01*
X167690634Y-46106016D01*
X167691231Y-46108988D01*
X167691569Y-46110896D01*
X167691647Y-46111501D01*
X167691921Y-46113588D01*
X167692055Y-46114705D01*
X167692144Y-46115431D01*
X167692394Y-46117262D01*
X167692506Y-46118094D01*
X167692567Y-46119110D01*
X167692877Y-46124879D01*
X167692877Y-46135024D01*
X167692240Y-46142424D01*
X167690573Y-46152863D01*
X167689521Y-46157836D01*
X167688656Y-46161161D01*
X167687742Y-46164719D01*
X167687393Y-46165916D01*
X167684783Y-46173837D01*
X167682191Y-46180612D01*
X167681229Y-46183066D01*
X167676327Y-46193435D01*
X167669806Y-46205451D01*
X167663285Y-46215956D01*
X167655979Y-46226341D01*
X167648592Y-46235897D01*
X167647514Y-46237265D01*
X167646688Y-46238292D01*
X167627224Y-46261771D01*
X167603989Y-46288368D01*
X167576027Y-46317694D01*
X167572600Y-46320998D01*
X167565091Y-46328462D01*
X167560100Y-46333338D01*
X167545726Y-46347086D01*
X167537922Y-46354126D01*
X167515926Y-46373767D01*
X167486134Y-46398943D01*
X167465911Y-46415348D01*
X167453275Y-46425497D01*
X167439049Y-46438429D01*
X167419908Y-46456794D01*
X167396888Y-46481625D01*
X167383438Y-46498179D01*
X167372057Y-46513698D01*
X167358348Y-46533097D01*
X167340828Y-46564003D01*
X167330672Y-46583751D01*
X167321714Y-46604211D01*
X167316657Y-46617444D01*
X167311262Y-46632026D01*
X167307132Y-46645260D01*
X167303171Y-46659589D01*
X167300389Y-46669113D01*
X167297861Y-46680467D01*
X167295289Y-46691980D01*
X167294493Y-46696206D01*
X167293291Y-46703398D01*
X167292345Y-46709264D01*
X167291795Y-46712484D01*
X167291517Y-46714347D01*
X167291247Y-46715931D01*
X167289851Y-46724656D01*
X167289642Y-46726304D01*
X167289432Y-46728700D01*
X167288983Y-46732294D01*
X167286970Y-46751360D01*
X167286231Y-46762319D01*
X167285616Y-46778081D01*
X167285123Y-46792118D01*
X167284754Y-46804062D01*
X167285663Y-46836675D01*
X167288696Y-46872003D01*
X167291551Y-46904119D01*
X167294301Y-46923925D01*
X167295532Y-46933156D01*
X167296886Y-46942961D01*
X167298034Y-46949648D01*
X167305630Y-46995530D01*
X167322177Y-47061717D01*
X167345963Y-47140314D01*
X167371817Y-47214774D01*
X167391466Y-47261311D01*
X167414218Y-47313020D01*
X167436969Y-47362660D01*
X167469029Y-47426778D01*
X167487493Y-47462988D01*
X167506099Y-47497519D01*
X167521856Y-47527357D01*
X167530572Y-47543998D01*
X167535897Y-47554230D01*
X167545406Y-47572618D01*
X167562263Y-47605057D01*
X167567116Y-47614453D01*
X167569071Y-47618189D01*
X167575819Y-47631212D01*
X167578732Y-47636811D01*
X167580650Y-47640543D01*
X167582325Y-47643756D01*
X167583801Y-47646628D01*
X167588254Y-47655194D01*
X167589480Y-47657524D01*
X167597163Y-47672382D01*
X167599210Y-47676419D01*
X167600657Y-47679481D01*
X167603587Y-47685640D01*
X167605457Y-47689565D01*
X167607204Y-47693264D01*
X167612040Y-47703349D01*
X167613704Y-47706846D01*
X167614812Y-47709163D01*
X167615395Y-47710428D01*
X167618021Y-47715935D01*
X167620854Y-47721801D01*
X167622733Y-47725788D01*
X167623166Y-47726642D01*
X167647875Y-47779483D01*
X167663989Y-47816996D01*
X167678519Y-47850018D01*
X167688410Y-47874360D01*
X167691424Y-47881933D01*
X167701027Y-47905356D01*
X167704748Y-47914568D01*
X167707199Y-47920558D01*
X167709694Y-47927183D01*
X167712009Y-47933673D01*
X167728491Y-47978678D01*
X167731700Y-47987450D01*
X167733139Y-47991359D01*
X167737561Y-48003584D01*
X167738994Y-48007854D01*
X167740398Y-48012323D01*
X167741744Y-48016621D01*
X167743824Y-48023688D01*
X167754285Y-48054595D01*
X167766648Y-48094061D01*
X167773067Y-48119738D01*
X167779686Y-48143429D01*
X167781236Y-48149242D01*
X167782731Y-48154668D01*
X167784503Y-48161644D01*
X167785918Y-48166457D01*
X167786738Y-48169606D01*
X167787623Y-48172775D01*
X167788000Y-48174346D01*
X167788237Y-48175380D01*
X167788440Y-48176350D01*
X167790217Y-48184437D01*
X167790732Y-48186730D01*
X167790877Y-48187478D01*
X167792257Y-48193781D01*
X167792673Y-48195720D01*
X167792955Y-48196980D01*
X167795056Y-48206543D01*
X167795444Y-48208289D01*
X167796712Y-48214141D01*
X167797831Y-48219241D01*
X167798979Y-48224375D01*
X167799870Y-48228492D01*
X167801076Y-48234103D01*
X167801605Y-48236428D01*
X167801828Y-48237546D01*
X167802096Y-48238696D01*
X167802336Y-48239790D01*
X167807706Y-48265938D01*
X167810259Y-48280674D01*
X167812231Y-48293090D01*
X167813856Y-48303649D01*
X167820281Y-48343600D01*
X167820995Y-48346991D01*
X167823405Y-48369657D01*
X167826171Y-48395803D01*
X167827867Y-48412223D01*
X167829187Y-48424805D01*
X167830383Y-48435749D01*
X167830550Y-48440819D01*
X167831720Y-48465281D01*
X167834283Y-48526595D01*
X167833946Y-48547516D01*
X167832596Y-48620736D01*
X167825848Y-48709140D01*
X167813166Y-48790470D01*
X167806022Y-48828573D01*
X167791141Y-48896874D01*
X167777502Y-48946123D01*
X167760833Y-48993858D01*
X167743028Y-49040834D01*
X167732231Y-49064891D01*
X167691799Y-49154387D01*
X167674272Y-49187143D01*
X167654304Y-49227200D01*
X167643596Y-49245712D01*
X167637788Y-49255512D01*
X167630438Y-49267944D01*
X167626763Y-49274160D01*
X167587809Y-49338328D01*
X167552270Y-49390926D01*
X167524407Y-49431015D01*
X167503510Y-49458594D01*
X167493061Y-49472383D01*
X167487837Y-49479278D01*
X167464215Y-49507635D01*
X167437092Y-49540654D01*
X167415512Y-49564829D01*
X167404722Y-49576917D01*
X167381584Y-49603652D01*
X167354209Y-49631574D01*
X167324461Y-49662417D01*
X167315838Y-49670584D01*
X167305383Y-49679799D01*
X167291405Y-49694495D01*
X167269183Y-49715641D01*
X167234774Y-49745749D01*
X167182444Y-49789477D01*
X167109684Y-49846824D01*
X167012910Y-49914566D01*
X166927675Y-49967712D01*
X166847933Y-50015762D01*
X166756945Y-50060744D01*
X166680269Y-50097549D01*
X166604616Y-50127196D01*
X166476824Y-50177291D01*
X166375613Y-50206939D01*
X166225917Y-50249300D01*
X166057546Y-50282594D01*
X165837808Y-50316839D01*
X165525194Y-50347886D01*
X165231596Y-50363162D01*
X165053908Y-50365129D01*
X164918849Y-50364242D01*
X164856976Y-50361933D01*
X164750248Y-50357871D01*
X164616325Y-50344130D01*
X164581723Y-50335857D01*
X164572167Y-50331289D01*
X164568491Y-50326493D01*
X164551896Y-50003542D01*
X164535226Y-49684987D01*
X164503881Y-49078717D01*
X164484234Y-48955874D01*
X164469448Y-48875753D01*
X164433444Y-48712820D01*
X164403633Y-48597851D01*
X164366303Y-48483444D01*
X164338380Y-48409014D01*
X164308895Y-48337329D01*
X164201088Y-48129620D01*
X164141722Y-48042854D01*
X164005046Y-47835847D01*
X163884039Y-47638367D01*
X163825731Y-47538093D01*
X163749280Y-47397855D01*
X163644685Y-47183397D01*
X163583928Y-47030746D01*
X163567057Y-46978061D01*
X163539845Y-46888129D01*
X163500695Y-46729629D01*
X163480177Y-46618832D01*
X163467301Y-46541085D01*
X163457925Y-46474410D01*
X163450700Y-46422826D01*
X163432635Y-46264387D01*
X163418419Y-46115112D01*
X163402541Y-45944947D01*
X163397361Y-45887992D01*
X163394133Y-45865194D01*
X163388484Y-45843607D01*
X163381624Y-45825450D01*
X163375317Y-45811048D01*
X163372012Y-45804283D01*
X163367541Y-45795543D01*
X163362248Y-45786601D01*
X163357321Y-45778875D01*
X163351683Y-45770970D01*
X163345082Y-45762342D01*
X163337981Y-45754334D01*
X163329730Y-45746083D01*
X163319796Y-45736069D01*
X163288573Y-45704414D01*
X163284651Y-45700403D01*
X163277343Y-45692070D01*
X163270212Y-45684004D01*
X163248514Y-45659315D01*
X163243190Y-45653239D01*
X163229537Y-45635470D01*
X163209380Y-45609441D01*
X163208335Y-45608169D01*
X163207167Y-45606600D01*
X163199756Y-45595568D01*
X163187729Y-45577621D01*
X163180720Y-45567137D01*
X163174251Y-45557623D01*
X163168600Y-45547840D01*
X163161694Y-45536278D01*
X163154998Y-45524349D01*
X163151446Y-45517686D01*
X163145568Y-45506814D01*
X163134065Y-45483645D01*
X163126324Y-45466369D01*
X163118394Y-45447584D01*
X163102043Y-45404387D01*
X163088145Y-45352209D01*
X163081989Y-45321201D01*
X163077805Y-45297049D01*
X163074763Y-45271757D01*
X163072153Y-45236335D01*
X163071730Y-45206397D01*
X163071868Y-45188656D01*
X163072763Y-45164525D01*
X163073659Y-45152677D01*
X163074554Y-45142551D01*
X163076664Y-45120874D01*
X163078691Y-45106684D01*
X163082069Y-45085198D01*
X163085853Y-45065333D01*
X163090299Y-45043762D01*
X163097849Y-45013113D01*
X163104167Y-44989800D01*
X163107212Y-44979876D01*
X163116484Y-44951866D01*
X163130673Y-44913195D01*
X163141942Y-44883544D01*
X163157948Y-44842643D01*
X163176576Y-44795482D01*
X163195250Y-44747900D01*
X163212321Y-44704686D01*
X163220517Y-44683945D01*
X163226487Y-44668732D01*
X163235268Y-44646252D01*
X163240105Y-44633732D01*
X163254850Y-44595566D01*
X163262872Y-44574801D01*
X163270894Y-44554037D01*
X163278916Y-44533273D01*
X163282277Y-44524572D01*
X163285639Y-44515870D01*
X163290299Y-44503808D01*
X163293661Y-44495106D01*
X163298321Y-44483043D01*
X163301682Y-44474342D01*
X163305044Y-44465640D01*
X163309704Y-44453578D01*
X163313066Y-44444876D01*
X163317726Y-44432814D01*
X163321088Y-44424112D01*
X163328774Y-44404215D01*
X163355082Y-44335674D01*
X163359817Y-44323344D01*
X163363054Y-44314814D01*
X163371034Y-44294217D01*
X163372700Y-44289813D01*
X163374341Y-44285551D01*
X163382365Y-44264717D01*
X163385740Y-44256128D01*
X163387113Y-44252607D01*
X163390370Y-44243911D01*
X163393738Y-44235189D01*
X163398411Y-44223192D01*
X163400115Y-44218786D01*
X163401750Y-44214460D01*
X163405140Y-44205798D01*
X163409789Y-44193629D01*
X163413195Y-44185029D01*
X163421216Y-44164312D01*
X163429163Y-44143628D01*
X163432709Y-44134684D01*
X163448657Y-44093463D01*
X163464276Y-44055353D01*
X163471437Y-44034113D01*
X163482701Y-44005326D01*
X163494265Y-43974977D01*
X163506137Y-43944060D01*
X163514488Y-43922236D01*
X163517359Y-43917001D01*
X163529950Y-43902727D01*
X163540865Y-43889406D01*
X163550724Y-43914832D01*
G37*
%TD*%
D11*
%TO.C,LED2*%
X147810000Y-38200000D03*
D12*
X146685000Y-38200000D03*
D13*
X145660000Y-38200000D03*
D14*
X144660000Y-38200000D03*
%TD*%
D15*
%TO.C,J1*%
X155448000Y-60198000D03*
X155448000Y-57658000D03*
X152908000Y-60198000D03*
X152908000Y-57658000D03*
X150368000Y-60198000D03*
D16*
X150368000Y-57658000D03*
%TD*%
D17*
%TO.C,C1*%
X132585000Y-45466000D03*
X130860000Y-45466000D03*
%TD*%
D16*
%TO.C,U1*%
X131064000Y-40820000D03*
D18*
X130264000Y-42270000D03*
D19*
X130664000Y-42270000D03*
X131064000Y-42270000D03*
X131464000Y-42270000D03*
D20*
X131864000Y-42270000D03*
D21*
X132514000Y-41620000D03*
D22*
X132514000Y-41220000D03*
X132514000Y-40820000D03*
X132514000Y-40420000D03*
D23*
X132514000Y-40020000D03*
D24*
X131864000Y-39370000D03*
D19*
X131464000Y-39370000D03*
X131064000Y-39370000D03*
X130664000Y-39370000D03*
D25*
X130264000Y-39370000D03*
D26*
X129614000Y-40020000D03*
D22*
X129614000Y-40420000D03*
X129614000Y-40820000D03*
X129614000Y-41220000D03*
D27*
X129614000Y-41620000D03*
%TD*%
D14*
%TO.C,LED4*%
X157435000Y-38200000D03*
D13*
X158435000Y-38200000D03*
D12*
X159460000Y-38200000D03*
D11*
X160585000Y-38200000D03*
%TD*%
%TO.C,LED1*%
X141640000Y-38210000D03*
D12*
X140515000Y-38210000D03*
D13*
X139490000Y-38210000D03*
D14*
X138490000Y-38210000D03*
%TD*%
D28*
%TO.C,R1*%
X132635000Y-43942000D03*
X130810000Y-43942000D03*
%TD*%
D29*
%TO.C,TP5*%
X129286000Y-35804000D03*
%TD*%
D14*
%TO.C,LED5*%
X163705000Y-38190000D03*
D13*
X164705000Y-38190000D03*
D12*
X165730000Y-38190000D03*
D11*
X166855000Y-38190000D03*
%TD*%
D29*
%TO.C,TP7*%
X134366000Y-35834000D03*
%TD*%
%TO.C,TP6*%
X131826000Y-35814000D03*
%TD*%
D14*
%TO.C,LED3*%
X151040000Y-38210000D03*
D13*
X152040000Y-38210000D03*
D12*
X153065000Y-38210000D03*
D11*
X154190000Y-38210000D03*
%TD*%
M02*
