<?xml version="1.0" encoding="UTF-8" standalone="no"?>
<!-- Created with Inkscape (http://www.inkscape.org/) -->

<svg
   width="200.0mm"
   height="200.0mm"
   viewBox="0 0 200.0 200.0"
   version="1.1"
   id="svg1"
   inkscape:version="1.3.2 (091e20ef0f, 2023-11-25, custom)"
   sodipodi:docname="sao_nametag_holder.svg"
   xmlns:inkscape="http://www.inkscape.org/namespaces/inkscape"
   xmlns:sodipodi="http://sodipodi.sourceforge.net/DTD/sodipodi-0.dtd"
   xmlns="http://www.w3.org/2000/svg"
   xmlns:svg="http://www.w3.org/2000/svg">
  <sodipodi:namedview
     id="namedview1"
     pagecolor="#ffffff"
     bordercolor="#000000"
     borderopacity="0.25"
     inkscape:showpageshadow="2"
     inkscape:pageopacity="0.0"
     inkscape:pagecheckerboard="0"
     inkscape:deskcolor="#d1d1d1"
     inkscape:document-units="mm"
     inkscape:zoom="1.5240183"
     inkscape:cx="437.65878"
     inkscape:cy="264.43252"
     inkscape:window-width="1920"
     inkscape:window-height="1008"
     inkscape:window-x="0"
     inkscape:window-y="0"
     inkscape:window-maximized="1"
     inkscape:current-layer="g2"
     showgrid="false" />
  <defs
     id="defs1">
    <clipPath
       clipPathUnits="userSpaceOnUse"
       id="clipPath2">
      <path
         d="M 0,252.423 H 265.694 V 0 H 0 Z"
         transform="matrix(1,0,0,-1,166.8643,136.34811)"
         id="path2" />
    </clipPath>
    <clipPath
       clipPathUnits="userSpaceOnUse"
       id="clipPath4-6">
      <path
         d="M 0,252.423 H 265.694 V 0 H 0 Z"
         transform="translate(-208.1098,-150.07581)"
         id="path4-3" />
    </clipPath>
    <clipPath
       clipPathUnits="userSpaceOnUse"
       id="clipPath7-0">
      <path
         d="M 0,252.423 H 265.694 V 0 H 0 Z"
         transform="translate(-44.860701,-150.07581)"
         id="path7-6" />
    </clipPath>
    <clipPath
       clipPathUnits="userSpaceOnUse"
       id="clipPath9-0">
      <path
         d="M 0,252.423 H 265.694 V 0 H 0 Z"
         transform="translate(-77.889602,-202.43751)"
         id="path9-5" />
    </clipPath>
    <inkscape:path-effect
       effect="mirror_symmetry"
       start_point="51.316952,45.131562"
       end_point="51.316952,-207.29142"
       center_point="51.316952,-81.079929"
       id="path-effect125-7"
       is_visible="true"
       lpeversion="1.2"
       lpesatellites="#path125-4"
       mode="free"
       discard_orig_path="false"
       fuse_paths="false"
       oposite_fuse="false"
       split_items="true"
       split_open="false"
       link_styles="false" />
    <clipPath
       clipPathUnits="userSpaceOnUse"
       id="clipPath13-5">
      <path
         d="M 0,252.423 H 265.694 V 0 H 0 Z"
         transform="translate(-104.36601,-156.92361)"
         id="path13-3" />
    </clipPath>
    <clipPath
       clipPathUnits="userSpaceOnUse"
       id="clipPath15-0">
      <path
         d="M 0,252.423 H 265.694 V 0 H 0 Z"
         transform="translate(-132.8364,-103.30101)"
         id="path15-4" />
    </clipPath>
    <clipPath
       clipPathUnits="userSpaceOnUse"
       id="clipPath17-7">
      <path
         d="M 0,252.423 H 265.694 V 0 H 0 Z"
         transform="translate(-103.27131,-156.046)"
         id="path17-5" />
    </clipPath>
    <clipPath
       clipPathUnits="userSpaceOnUse"
       id="clipPath19-0">
      <path
         d="M 0,252.423 H 265.694 V 0 H 0 Z"
         transform="translate(-70.003402,-88.155805)"
         id="path19-0" />
    </clipPath>
    <inkscape:path-effect
       effect="mirror_symmetry"
       start_point="-81.42,102.17138"
       end_point="-81.416596,-150.25162"
       center_point="-81.418298,-24.04012"
       id="path-effect124-0"
       is_visible="true"
       lpeversion="1.2"
       lpesatellites=""
       mode="free"
       discard_orig_path="false"
       fuse_paths="false"
       oposite_fuse="false"
       split_items="false"
       split_open="false"
       link_styles="true" />
    <clipPath
       clipPathUnits="userSpaceOnUse"
       id="clipPath1">
      <path
         d="M 0,252.423 H 265.694 V 0 H 0 Z"
         transform="translate(-77.889602,-202.43751)"
         id="path1" />
    </clipPath>
    <clipPath
       clipPathUnits="userSpaceOnUse"
       id="clipPath2-7">
      <path
         d="M 0,252.423 H 265.694 V 0 H 0 Z"
         transform="matrix(1,0,0,-1,166.8643,136.34811)"
         id="path2-5" />
    </clipPath>
    <clipPath
       clipPathUnits="userSpaceOnUse"
       id="clipPath9-0-9">
      <path
         d="M 0,252.423 H 265.694 V 0 H 0 Z"
         transform="translate(-77.889602,-202.43751)"
         id="path9-5-1" />
    </clipPath>
    <inkscape:path-effect
       effect="mirror_symmetry"
       start_point="51.316952,45.131562"
       end_point="51.316952,-207.29142"
       center_point="51.316952,-81.079929"
       id="path-effect125-7-2"
       is_visible="true"
       lpeversion="1.2"
       lpesatellites="#path12"
       mode="free"
       discard_orig_path="false"
       fuse_paths="false"
       oposite_fuse="false"
       split_items="true"
       split_open="false"
       link_styles="false" />
    <clipPath
       clipPathUnits="userSpaceOnUse"
       id="clipPath13-5-7">
      <path
         d="M 0,252.423 H 265.694 V 0 H 0 Z"
         transform="translate(-104.36601,-156.92361)"
         id="path13-3-0" />
    </clipPath>
    <clipPath
       clipPathUnits="userSpaceOnUse"
       id="clipPath17-7-6">
      <path
         d="M 0,252.423 H 265.694 V 0 H 0 Z"
         transform="translate(-103.27131,-156.046)"
         id="path17-5-0" />
    </clipPath>
    <clipPath
       clipPathUnits="userSpaceOnUse"
       id="clipPath21-2">
      <path
         d="M 0,252.423 H 265.694 V 0 H 0 Z m -162.84405,-0.002 -265.694,-0.007 0.007,-252.42299909 265.694,0.00716383 z m 0,-2e-4 -265.694,-0.007 0.007,-252.42300184 265.694,0.00716593 z M -2.3521555e-6,252.4232 265.694,252.42336 265.69381,3.6274077e-4 -1.943566e-4,3.6064393e-4 Z M -162.84405,252.4208 l -265.694,-0.007 0.007,-252.42300184 265.694,0.00716593 z M -2.3521555e-6,252.4232 265.694,252.42336 265.69381,3.6274077e-4 -1.943566e-4,3.6064393e-4 Z m 5.3941e-9,-2e-4 L 265.694,252.42316 265.69381,1.5999077e-4 -1.9435119e-4,1.5999393e-4 Z M -162.84405,252.421 l -265.694,-0.007 0.007,-252.42299909 265.694,0.00716383 z m 0,-2e-4 -265.694,-0.007 0.007,-252.42300184 265.694,0.00716593 z M -2.3521555e-6,252.4232 265.694,252.42336 265.69381,3.6274077e-4 -1.943566e-4,3.6064393e-4 Z m 5.3941e-9,-2e-4 L 265.694,252.42316 265.69381,1.5999077e-4 -1.9435119e-4,1.5999393e-4 Z M -162.84405,252.421 l -265.694,-0.007 0.007,-252.42299909 265.694,0.00716383 z M -2.3467614e-6,252.423 265.694,252.42316 265.69381,1.5999077e-4 -1.9435119e-4,1.5999393e-4 Z M -162.84405,252.421 l -265.694,-0.007 0.007,-252.42299909 265.694,0.00716383 z m 0,-2e-4 -265.694,-0.007 0.007,-252.42300184 265.694,0.00716593 z M -2.3521555e-6,252.4232 265.694,252.42336 265.69381,3.6274077e-4 -1.943566e-4,3.6064393e-4 Z"
         transform="translate(-208.1098,-150.07581)"
         id="path21-4" />
    </clipPath>
    <inkscape:path-effect
       effect="mirror_symmetry"
       start_point="-81.42,102.17138"
       end_point="-81.416596,-150.25162"
       center_point="-81.418298,-24.04012"
       id="path-effect124-0-6"
       is_visible="true"
       lpeversion="1.2"
       lpesatellites=""
       mode="free"
       discard_orig_path="false"
       fuse_paths="false"
       oposite_fuse="false"
       split_items="false"
       split_open="false"
       link_styles="true" />
    <clipPath
       clipPathUnits="userSpaceOnUse"
       id="clipPath1-1">
      <path
         d="M 0,252.423 H 265.694 V 0 H 0 Z"
         transform="translate(-77.889602,-202.43751)"
         id="path1-8" />
    </clipPath>
    <inkscape:path-effect
       effect="mirror_symmetry"
       start_point="-81.42,102.17138"
       end_point="-81.416596,-150.25162"
       center_point="-81.418298,-24.04012"
       id="path-effect124-0-7"
       is_visible="true"
       lpeversion="1.2"
       lpesatellites=""
       mode="free"
       discard_orig_path="false"
       fuse_paths="false"
       oposite_fuse="false"
       split_items="false"
       split_open="false"
       link_styles="true" />
  </defs>
  <g
     inkscape:label="[fixed] BG"
     inkscape:groupmode="layer"
     sodipodi:insensitive="true"
     id="g1">
    <rect
       x="0"
       y="0"
       width="200.0"
       height="200.0"
       style="fill:#FFFFFF;fill-opacity:1;stroke:none"
       id="rect1" />
  </g>
  <g
     inkscape:label="Edge.Cuts"
     inkscape:groupmode="layer"
     id="g2">
    <path
       style="display:inline;fill:#ff0000;stroke-width:0.101426"
       d="m 50.435863,31.408555 -0.494258,0.05608 -0.491113,0.124744 -0.489541,0.194977 -0.488492,0.267308 -0.487968,0.340163 -0.489017,0.415638 -0.48954,0.492685 -0.492161,0.570781 -0.494258,0.650974 -0.497927,0.732214 -0.50212,0.816076 -0.506837,0.900461 -0.512602,0.986943 -0.519417,1.075522 -0.526229,1.165149 -0.534092,1.255823 -0.542478,1.349643 -0.737456,1.914659 -0.696049,1.872729 -0.65569,1.832895 -0.619002,1.796205 -0.582837,1.762661 -0.55034,1.730688 -0.518892,1.702385 -0.490065,1.676179 -0.463857,1.653116 -0.4387,1.632151 -0.416687,1.614856 -0.396245,1.599655 -0.3779,1.587075 -0.3627,1.577118 -0.348548,1.570828 -0.337018,1.566111 -0.327583,1.564013 -0.320246,1.565586 -0.315004,1.569781 -0.311859,1.575544 -0.31186,1.585504 -0.312383,1.597034 -0.316052,1.61171 -0.322342,1.629007 -0.329681,1.649447 -0.339638,1.671462 -0.351693,1.697668 -0.36637,1.725447 -0.382617,1.756371 -0.400962,1.789916 -0.421927,1.826604 -0.444989,1.865391 -0.448135,1.880066 -0.427169,1.868542 -0.404106,1.85596 -0.376328,1.84233 -0.346977,1.8287 -0.312907,1.81402 -0.276218,1.79831 -0.236385,1.78205 -0.193405,1.76528 -0.147281,1.74746 -0.09696,1.72859 -0.04455,1.70972 0.01153,1.68929 0.07128,1.66883 0.133654,1.64684 0.19917,1.62481 0.268881,1.60175 0.340687,1.57816 0.416162,1.55301 0.495305,1.52785 0.577072,1.50216 0.66198,1.47492 0.751083,1.44713 0.842283,1.41882 0.937674,1.39001 1.035687,1.36013 1.13737,1.3292 1.241672,1.29775 1.349644,1.26579 1.460759,1.23275 1.575546,1.19869 1.692426,1.16516 0.810834,0.49373 0.894172,0.47801 0.970694,0.46282 1.040929,0.44813 1.10435,0.43293 1.161479,0.41878 1.211797,0.40516 1.254775,0.39152 1.291988,0.37843 1.322914,0.36585 1.345974,0.35326 1.363271,0.34121 1.373754,0.32968 1.377946,0.31815 1.374802,0.30766 1.365368,0.29719 1.349643,0.2867 1.326582,0.27727 1.297754,0.26783 1.261589,0.25892 1.219134,0.25001 1.169866,0.24163 1.114308,0.23428 1.051411,0.22644 0.98275,0.2196 0.907275,0.21281 0.824986,0.20597 0.735883,0.20023 0.640491,0.19497 0.538285,0.18922 0.429265,0.18449 0.313956,0.1803 1.137894,0.7862 1.121121,0.75422 1.103301,0.72279 1.08548,0.69134 1.067136,0.66145 1.048267,0.63053 1.028873,0.60118 1.009481,0.57235 0.989039,0.54301 0.968075,0.51522 0.947633,0.48692 0.92562,0.45967 0.90413,0.43293 0.881068,0.40621 0.858531,0.37999 0.835468,0.35484 0.811359,0.32968 0.787249,0.30504 0.762614,0.28094 0.73693,0.25735 0.712298,0.23428 0.685567,0.21123 0.659359,0.18869 0.632629,0.1672 0.605375,0.1457 0.57707,0.12475 0.549292,0.1043 0.51994,0.0844 0.491637,0.065 0.461762,0.0456 0.431362,0.0267 h 0.07221 l 0.43137,-0.0267 0.46175,-0.0456 0.49164,-0.065 0.51994,-0.0844 0.5493,-0.1043 0.57707,-0.12475 0.60537,-0.1457 0.63262,-0.1672 0.65936,-0.18869 0.68557,-0.21123 0.7123,-0.23428 0.73693,-0.25735 0.76262,-0.28094 0.78725,-0.30504 0.81136,-0.32968 0.83546,-0.35484 0.85853,-0.37999 0.88107,-0.40621 0.90413,-0.43293 0.92563,-0.45967 0.94762,-0.48692 0.96808,-0.51522 0.98904,-0.54301 1.00948,-0.57235 1.02887,-0.60118 1.04827,-0.63053 1.06714,-0.66145 1.08548,-0.69134 1.1033,-0.72279 1.12112,-0.75422 1.13789,-0.7862 0.31395,-0.1803 0.42927,-0.18449 0.53829,-0.18922 0.64049,-0.19497 0.73588,-0.20023 0.82499,-0.20597 0.90727,-0.21281 0.98275,-0.2196 1.05141,-0.22644 1.11431,-0.23428 1.16987,-0.24163 1.21914,-0.25001 1.26158,-0.25892 1.29776,-0.26783 1.32658,-0.27727 1.34964,-0.2867 1.36537,-0.29719 1.3748,-0.30766 1.37794,-0.31815 1.37376,-0.32968 1.36327,-0.34121 1.34598,-0.35326 1.32291,-0.36585 1.29198,-0.37843 1.25479,-0.39152 1.21179,-0.40516 1.16148,-0.41878 1.10435,-0.43293 1.04092,-0.44813 0.9707,-0.46282 0.89417,-0.47801 0.81083,-0.49373 1.69244,-1.16516 1.57554,-1.19869 1.46076,-1.23275 1.34964,-1.26579 1.24167,-1.29775 1.13737,-1.3292 1.03569,-1.36013 0.93767,-1.39001 0.84229,-1.41882 0.75108,-1.44713 0.66198,-1.47492 0.57707,-1.50216 0.49531,-1.52785 0.41616,-1.55301 0.34068,-1.57816 0.26888,-1.60175 0.19918,-1.62481 0.13365,-1.64684 0.0713,-1.66883 0.0116,-1.68929 -0.0445,-1.70972 -0.097,-1.72859 -0.14728,-1.74746 -0.1934,-1.76528 -0.23639,-1.78205 -0.27622,-1.79831 -0.31291,-1.81402 -0.34698,-1.8287 -0.37632,-1.84233 -0.40411,-1.85596 -0.42717,-1.868542 -0.44813,-1.880066 -0.44499,-1.865391 -0.42192,-1.826604 -0.40097,-1.789916 -0.38262,-1.756371 -0.36636,-1.725447 -0.3517,-1.697668 -0.33964,-1.671462 -0.32968,-1.649447 -0.32234,-1.629007 -0.31605,-1.61171 -0.31238,-1.597034 -0.31187,-1.585504 -0.31185,-1.575544 -0.31501,-1.569781 -0.32025,-1.565586 -0.32758,-1.564013 -0.33702,-1.566111 -0.34854,-1.570828 -0.36271,-1.577118 -0.37789,-1.587075 -0.39625,-1.599655 -0.41668,-1.614856 -0.43871,-1.632151 -0.46385,-1.653116 -0.49007,-1.676179 -0.51889,-1.702385 -0.55034,-1.730688 -0.58284,-1.762661 -0.619,-1.796205 -0.65569,-1.832895 -0.69605,-1.872729 -0.73745,-1.914659 -0.54248,-1.349643 -0.53409,-1.255823 -0.52623,-1.165149 -0.51942,-1.075522 -0.5126,-0.986943 -0.50683,-0.900461 -0.50212,-0.816076 -0.49793,-0.732214 -0.49426,-0.650974 -0.49216,-0.570781 -0.48955,-0.492685 -0.48901,-0.415638 -0.48797,-0.340163 -0.48849,-0.267308 -0.48954,-0.194977 -0.49112,-0.124744 -0.49426,-0.05608 -0.49687,0.01153 -0.50108,0.076 -0.50578,0.140468 -0.51156,0.202839 -0.51731,0.263115 -0.52466,0.321818 -0.53253,0.379473 -0.54037,0.435555 -0.55034,0.489016 -0.55978,0.541954 -0.57078,0.592795 -0.58179,0.641539 -0.59436,0.689759 -0.60747,0.735884 -0.62058,0.779911 -0.48011,0.621622 -0.47067,0.627387 -0.46071,0.63263 -0.45181,0.638394 -0.44341,0.643635 -0.43398,0.649926 -0.42612,0.655166 -0.41826,0.661457 -0.4104,0.667746 -0.40253,0.673512 -0.39573,0.6798 -0.3889,0.686615 -0.3821,0.69238 -0.3758,0.699195 -0.36952,0.706007 -0.36374,0.712297 -0.35798,0.719112 -0.35274,0.726448 -0.34802,0.733262 -0.34332,0.740077 -0.33859,0.747414 -0.33439,0.754752 -0.33073,0.76209 -0.32706,0.769952 -0.32339,0.776766 -0.32077,0.785152 -0.31762,0.792489 -0.31501,0.800352 -0.31291,0.808213 -0.31133,0.816599 -0.30925,0.824462 -0.30766,0.832848 -0.15357,0.385238 -0.16563,0.354839 -0.17872,0.327059 -0.19184,0.298756 -0.20389,0.272549 -0.21646,0.246867 -0.22905,0.222757 -0.2411,0.19917 -0.2542,0.176633 -0.26574,0.155668 -0.27884,0.135227 -0.29037,0.115833 -0.30295,0.09749 -0.315,0.08071 -0.32706,0.06447 -0.33859,0.04927 -0.35117,0.03511 -0.36271,0.02201 -0.37475,0.01049 -0.38629,-5.24e-4 -0.39834,-0.011 -0.40987,-0.01886 -0.42192,-0.02725 -0.43294,-0.03407 -0.44447,-0.03984 -0.45652,-0.04456 -0.46752,-0.04769 -0.47854,-0.05084 -0.49058,-0.05189 -0.5016,-0.05293 -0.5126,-0.05189 -0.52362,-0.05085 -0.79458,-0.07443 -0.75422,-0.07024 -0.71649,-0.06657 -0.68243,-0.06342 -0.64993,-0.05975 -0.62109,-0.05608 -0.59385,-0.05242 -0.57026,-0.04979 -0.54876,-0.04613 -0.5299,-0.0435 -0.51417,-0.03983 -0.50055,-0.03774 -0.49058,-0.03407 -0.48221,-0.03197 -0.47696,-0.02935 -0.47434,-0.02621 -0.47435,-0.02411 -0.47748,-0.02201 -0.48273,-0.01939 -0.49059,-0.01729 -0.50159,-0.0152 -0.51522,-0.0131 -0.53095,-0.01101 -0.55034,-0.0094 -0.57131,-0.0079 -0.59594,-0.0063 -0.62267,-0.0042 -0.65202,-0.0031 -0.68399,-0.0016 -0.71964,-5.24e-4 -0.75684,10e-4 -0.42979,0.0021 H 99.998 l -0.429789,-0.0021 -0.756849,-10e-4 -0.719635,5.24e-4 -0.683994,0.0016 -0.652023,0.0031 -0.62267,0.0042 -0.59594,0.0063 -0.571305,0.0079 -0.550339,0.0094 -0.530948,0.01101 -0.515223,0.0131 -0.501596,0.0152 -0.490589,0.01729 -0.482727,0.01939 -0.477485,0.02201 -0.474341,0.02411 -0.474341,0.02621 -0.476961,0.02935 -0.482202,0.03197 -0.49059,0.03407 -0.500547,0.03774 -0.514174,0.03983 -0.529899,0.0435 -0.548768,0.04613 -0.570257,0.04979 -0.593843,0.05242 -0.621099,0.05608 -0.649924,0.05975 -0.682423,0.06342 -0.716489,0.06657 -0.754228,0.07024 -0.794587,0.07443 -0.52361,0.05085 -0.512602,0.05189 -0.501596,0.05293 -0.490588,0.05189 -0.478534,0.05084 -0.467527,0.04769 -0.45652,0.04456 -0.444465,0.03984 -0.432935,0.03407 -0.421927,0.02725 -0.409872,0.01886 -0.398342,0.011 -0.386286,5.24e-4 -0.374755,-0.01049 -0.3627,-0.02201 -0.351169,-0.03511 -0.338591,-0.04927 -0.327059,-0.06447 -0.315004,-0.08071 -0.302949,-0.09749 -0.290371,-0.115833 -0.278838,-0.135227 -0.265736,-0.155668 -0.254204,-0.176633 -0.241102,-0.19917 -0.229046,-0.222757 -0.216467,-0.246867 -0.203888,-0.272549 -0.191833,-0.298756 -0.178729,-0.327058 -0.165627,-0.354839 -0.153571,-0.385238 -0.307666,-0.832848 -0.309239,-0.824462 -0.311335,-0.8166 -0.312908,-0.808213 -0.315003,-0.800352 -0.317625,-0.792489 -0.32077,-0.785152 -0.323391,-0.776766 -0.327059,-0.769952 -0.330728,-0.76209 -0.334397,-0.754752 -0.33859,-0.747414 -0.343307,-0.740077 -0.348025,-0.733262 -0.352742,-0.726448 -0.357983,-0.719112 -0.363748,-0.712297 -0.369514,-0.706007 -0.375804,-0.699195 -0.382093,-0.69238 -0.388908,-0.686615 -0.39583,-0.6798 -0.402534,-0.673512 -0.410396,-0.667746 -0.418259,-0.661457 -0.42612,-0.655166 L 60.957815,40.873879 60.514398,40.230244 60.062595,39.59185 59.601882,38.95922 59.13121,38.331833 58.651104,37.710211 58.03053,36.9303 l -0.60747,-0.735884 -0.594368,-0.689759 -0.581788,-0.641539 -0.570781,-0.592795 -0.559775,-0.541954 -0.550339,-0.489016 -0.540382,-0.435555 -0.53252,-0.379473 -0.524657,-0.321818 -0.517319,-0.263116 -0.511555,-0.202839 -0.505789,-0.140467 -0.50107,-0.076 z"
       id="path13" />
  </g>
  <g
     inkscape:label="B.Cu"
     inkscape:groupmode="layer"
     id="g3"
     style="display:inline" />
  <g
     inkscape:label="B.Mask"
     inkscape:groupmode="layer"
     id="g4"
     style="display:inline" />
  <g
     inkscape:label="B.SilkS"
     inkscape:groupmode="layer"
     id="g5"
     style="display:inline" />
  <g
     inkscape:label="F.Cu"
     inkscape:groupmode="layer"
     id="g6"
     style="display:inline">
    <path
       id="path14-8"
       d="M 0,0 C -0.508,0.692 -0.9,1.225 -1.235,1.681 -0.35,3.704 0.517,5.683 1.474,7.871 2.302,5.971 3.16,4.159 3.875,2.293 4.131,1.626 4.31,0.998 4.947,0.932 3.358,0.461 1.704,0.145 0,0 m -27.089,24.843 c 0,13.774 11.167,24.94 24.941,24.94 5.963,0 11.435,-2.095 15.726,-5.586 0.151,-0.124 0.302,-0.25 0.451,-0.379 0.102,-0.087 0.204,-0.176 0.305,-0.265 0.28,-0.25 0.557,-0.506 0.826,-0.771 0.006,-0.002 0.01,-0.003 0.015,-0.005 0.545,-0.526 1.064,-1.077 1.559,-1.65 -1.374,-0.811 -1.705,-2.056 -2.158,-3.264 -0.295,-0.786 -0.671,-1.64 -1.26,-2.201 -2.021,-1.92 -4.151,-3.725 -6.302,-5.629 -0.548,1.021 -0.185,1.79 0.246,2.538 0.95,1.647 0.8,2.577 -0.568,3.875 -0.219,0.208 -0.333,0.586 -0.378,0.902 -0.085,0.602 0.007,1.239 -0.143,1.817 -0.206,0.79 -0.722,0.851 -1.234,0.221 C 4.837,39.264 4.77,39.115 4.684,38.979 4.419,38.558 4.227,37.866 3.872,37.769 2.988,37.527 2.031,37.527 1.101,37.499 0.923,37.494 0.722,37.793 0.553,37.972 c -0.396,0.42 -0.728,0.922 -1.184,1.256 -0.321,0.235 -0.891,0.442 -1.19,0.307 -0.312,-0.142 -0.61,-0.71 -0.604,-1.087 0.019,-1.311 0.015,-2.657 0.308,-3.923 0.622,-2.691 0.597,-5.237 -0.681,-7.773 -0.646,-1.281 -1.657,-2.103 -2.707,-2.938 -4.454,-3.542 -6.905,-8.092 -6.995,-13.835 -0.018,-1.158 0.014,-2.317 -0.013,-3.475 -0.01,-0.411 -0.055,-0.848 -0.207,-1.223 -0.325,-0.801 -1.082,-0.96 -1.652,-0.321 -1.306,1.463 -2.629,2.919 -3.815,4.477 -1.38,1.811 -1.538,3.85 -0.577,5.915 0.881,1.89 1.87,3.73 2.758,5.617 0.952,2.02 1.692,4.118 1.547,6.394 -0.12,1.867 -1.046,3.301 -2.717,4.158 -1.52,0.779 -3.049,0.631 -4.504,-0.236 -0.272,-0.162 -0.514,-0.388 -0.737,-0.616 -0.455,-0.466 -0.783,-1.021 -0.341,-1.63 0.489,-0.675 1.098,-0.236 1.644,-0.022 0.412,0.162 0.783,0.481 1.204,0.554 1.136,0.199 2.124,-0.473 2.591,-1.693 0.701,-1.828 0.48,-3.609 -0.404,-5.305 -0.935,-1.793 -1.982,-3.527 -2.898,-5.328 -1.382,-2.719 -1.841,-5.488 -0.731,-8.315 -3.582,4.318 -5.737,9.864 -5.737,15.913 m 49.882,0 C 22.793,14.557 16.565,5.728 7.676,1.914 7.237,2.345 6.878,2.756 6.432,3.013 5.472,3.565 5.078,4.396 5.115,5.408 c 0.103,2.856 0.143,5.725 0.464,8.559 0.211,1.859 1.064,3.644 1.273,5.503 0.235,2.092 1.106,3.573 2.508,5.172 2.961,3.378 5.305,7.238 6.75,11.568 0.4,1.198 0.906,2.361 1.413,3.669 1.995,-3.21 2.857,-6.68 3.126,-10.345 0.114,0.005 0.228,0.01 0.342,0.015 0.139,1 0.279,1.999 0.435,3.121 0.222,-0.525 0.418,-1.074 0.592,-1.64 0.505,-1.979 0.775,-4.051 0.775,-6.187 m 0.145,14.856 c 0.901,1.802 3.344,2.595 3.992,2.961 -3.297,1.316 -6.052,7.983 -6.309,13.005 -0.133,-0.103 -1.339,-6.767 -2.704,-9.013 -0.743,-1.222 -1.809,-2.12 -2.507,-2.624 -5.841,5.725 -13.839,9.256 -22.663,9.256 -17.882,0 -32.379,-14.497 -32.379,-32.379 0,-17.883 14.497,-32.38 32.379,-32.38 17.883,0 32.38,14.497 32.38,32.38 0,5.254 -1.253,10.215 -3.474,14.603 0.432,1.702 0.932,3.484 1.285,4.191"
       style="display:inline;fill:#ededed;fill-opacity:1;fill-rule:nonzero;stroke:none"
       transform="matrix(0.88275197,0,0,-0.88275197,105.42433,137.86112)"
       clip-path="none"
       inkscape:label="wiccon_logo" />
  </g>
  <g
     inkscape:label="F.Mask"
     inkscape:groupmode="layer"
     id="g7"
     style="display:inline" />
  <g
     inkscape:label="F.SilkS"
     inkscape:groupmode="layer"
     id="g8"
     style="display:inline">
    <path
       id="path13-7"
       style="fill:#999999;stroke-width:0.1"
       inkscape:label="silkscreen"
       d="m 31.443042,87.129049 -0.135909,0.655257 -0.361218,1.701188 -0.377238,1.731677 -0.395325,1.76475 -0.415995,1.800924 -0.438733,1.839164 -0.441834,1.853634 -0.421163,1.842267 -0.398425,1.82986 -0.371037,1.81643 -0.342098,1.80299 -0.308508,1.78852 -0.272335,1.77302 -0.23306,1.757 -0.190686,1.74046 -0.145211,1.72289 -0.0956,1.70429 -0.04393,1.68568 0.01137,1.66554 0.07028,1.64537 0.131775,1.62368 0.196371,1.60197 0.2651,1.57923 0.335896,1.55598 0.410311,1.53117 0.488343,1.50637 0.568957,1.48104 0.652673,1.45418 0.740524,1.42678 0.83044,1.39888 0.924491,1.37046 1.021127,1.34101 1.121378,1.31051 1.224215,1.27951 1.330668,1.24799 1.440222,1.21543 1.553394,1.18184 1.668632,1.14876 0.799434,0.48679 0.8816,0.47129 0.957048,0.45631 1.026294,0.44183 1.088822,0.42685 1.14515,0.41289 1.194759,0.39946 1.237134,0.38602 1.176672,0.34469 h 98.904533 l 1.17667,-0.34469 1.23713,-0.38602 1.19476,-0.39946 1.14515,-0.41289 1.08882,-0.42685 1.0263,-0.44183 0.95705,-0.45631 0.8816,-0.47129 0.79943,-0.48679 1.66863,-1.14876 1.5534,-1.18184 1.44022,-1.21543 1.33067,-1.24799 1.22421,-1.27951 1.12138,-1.31051 1.02112,-1.34101 0.9245,-1.37046 0.83044,-1.39888 0.74052,-1.42678 0.65267,-1.45418 0.56896,-1.48104 0.48834,-1.50637 0.41031,-1.53117 0.3359,-1.55598 0.2651,-1.57923 0.19637,-1.60197 0.13178,-1.62368 0.0703,-1.64537 0.0114,-1.66554 -0.0439,-1.68568 -0.0956,-1.70429 -0.14521,-1.72289 -0.19069,-1.74046 -0.23306,-1.757 -0.27233,-1.77302 -0.30851,-1.78852 -0.3421,-1.80299 -0.37104,-1.81643 -0.39842,-1.82986 -0.42117,-1.842267 -0.44183,-1.853634 -0.43873,-1.839164 -0.416,-1.800924 -0.39532,-1.76475 -0.37724,-1.731677 -0.36122,-1.701188 -0.13591,-0.655257 z"
       transform="matrix(1.014262,0,0,1.014262,-1.4262776,-1.426202)"
       sodipodi:nodetypes="ccccccccccccccccccccccccccccccccccccccccccccccccccccccccccccccccccccccccccccccccccccccccccccccccc" />
    <path
       id="path5-8"
       d="m 74.393417,78.223074 h -0.86694 v -2.611009 h -4.253089 v -0.86694 h 4.253089 v -2.611034 h 0.86694 z m -5.558606,0 h -0.86694 v -6.088983 h 0.86694 z m 13.320261,0 h -6.292964 v -6.088983 h 6.292964 v 0.866964 h -5.426024 v 4.355079 h 5.426024 z m -0.734358,-2.611009 h -4.253089 v -0.86694 h 4.253089 z m 7.63418,2.611009 h -5.813606 v -6.088983 h 0.86694 v 5.222043 h 4.946666 z m 6.64228,0 h -5.813605 v -6.088983 h 0.86694 v 5.222043 h 4.946665 z m 7.881506,-3.049586 c 0,0.428363 -0.0688,0.826159 -0.20403,1.193313 -0.13001,0.367179 -0.32126,0.691011 -0.57116,0.96893 -0.24473,0.280485 -0.54054,0.49722 -0.88732,0.652771 -0.34169,0.158141 -0.71906,0.234622 -1.13212,0.234622 h -2.029666 c -0.423281,0 -0.805756,-0.07648 -1.152532,-0.234622 -0.341669,-0.155674 -0.632343,-0.372286 -0.877129,-0.652771 -0.244737,-0.277919 -0.436011,-0.601751 -0.571159,-0.96893 -0.130016,-0.367154 -0.193914,-0.76495 -0.193914,-1.193313 0,-0.413067 0.06365,-0.805731 0.193914,-1.17291 0.135197,-0.367179 0.326373,-0.688446 0.571159,-0.968931 0.244737,-0.285591 0.53546,-0.504868 0.877129,-0.66296 0.346776,-0.155427 0.729251,-0.234621 1.152532,-0.234621 h 2.029666 c 0.41306,0 0.79043,0.07895 1.13212,0.234621 0.34678,0.158142 0.64254,0.377369 0.88732,0.66296 0.2499,0.280485 0.44112,0.601752 0.57116,0.968931 0.1352,0.367179 0.20403,0.759843 0.20403,1.17291 z m -0.87715,0 c 0,-0.392664 -0.079,-0.757302 -0.23462,-1.091323 -0.1505,-0.33148 -0.36718,-0.594103 -0.65277,-0.785353 -0.28557,-0.196382 -0.62981,-0.295757 -1.03012,-0.295757 h -2.02966 c -0.402878,0 -0.744548,0.09943 -1.030139,0.295757 -0.285568,0.1912 -0.50741,0.453873 -0.662936,0.785353 -0.158141,0.334021 -0.234621,0.698659 -0.234621,1.091323 0,0.402878 0.07648,0.770057 0.234621,1.101537 0.155428,0.326373 0.377368,0.588996 0.662936,0.785328 0.285591,0.198849 0.627261,0.295781 1.030139,0.295781 h 2.02966 c 0.40031,0 0.74455,-0.09696 1.03012,-0.295781 0.28559,-0.196381 0.50232,-0.458955 0.65277,-0.785328 0.15542,-0.33148 0.23462,-0.698659 0.23462,-1.101537 z m 2.95778,2.427432 c -0.007,0.183553 -0.0407,0.362072 -0.10189,0.530353 -0.0612,0.163076 -0.12237,0.295781 -0.18355,0.397796 -0.056,0.101891 -0.0817,0.15296 -0.0817,0.15296 l -0.56097,-0.0099 c 0,0 0.0197,-0.04071 0.0612,-0.122368 0.0407,-0.08166 0.0765,-0.191201 0.11226,-0.326373 -0.15815,-0.01974 -0.29068,-0.09178 -0.39778,-0.214145 -0.10189,-0.127549 -0.15296,-0.275378 -0.15296,-0.438577 0,-0.175904 0.0612,-0.328914 0.18356,-0.458955 0.12755,-0.127549 0.28559,-0.193914 0.46917,-0.193914 0.1759,0 0.32891,0.06637 0.45895,0.193914 0.12755,0.130016 0.19391,0.29324 0.19391,0.489572 z m 5.35974,0.622154 h -0.86694 v -6.088983 h 0.86694 z m 11.65523,0 h -0.87713 v -1.744069 h -4.85486 v -0.86694 h 4.85486 v -2.61101 h -3.12098 c -0.39523,0 -0.75984,0.09943 -1.09132,0.295757 -0.32638,0.1912 -0.58902,0.453873 -0.78536,0.785353 -0.1912,0.334021 -0.28556,0.698659 -0.28556,1.091323 v 3.049586 h -0.87716 v -3.049586 c 0,-0.413067 0.0765,-0.805731 0.23462,-1.17291 0.15543,-0.367179 0.37226,-0.688446 0.65275,-0.968931 0.27792,-0.285591 0.60175,-0.504868 0.96893,-0.66296 0.37229,-0.155427 0.76749,-0.234621 1.18312,-0.234621 h 3.99812 z m 5.84928,0 h -0.87713 v -3.049586 c 0,-0.392664 -0.0994,-0.757302 -0.29578,-1.091323 -0.1912,-0.33148 -0.45385,-0.594103 -0.78533,-0.785353 -0.32637,-0.196382 -0.69101,-0.295757 -1.09132,-0.295757 h -0.46917 v 5.222019 h -0.86694 v -6.088983 h 1.33611 c 0.55076,0 1.05563,0.137664 1.51969,0.407984 0.46152,0.272837 0.82613,0.629803 1.09132,1.070921 0.26519,-0.441118 0.62726,-0.798084 1.09132,-1.070921 0.46152,-0.270271 0.96893,-0.407984 1.51969,-0.407984 h 1.33611 v 6.088983 h -0.86694 v -5.222019 h -0.46917 c -0.40288,0 -0.76495,0.09943 -1.09132,0.295757 -0.32638,0.1912 -0.589,0.453873 -0.78533,0.785353 -0.19885,0.334021 -0.29581,0.698659 -0.29581,1.091323 z m 0,0"
       style="display:inline;fill:#ffffff;fill-opacity:1;fill-rule:nonzero;stroke:none;stroke-width:0.870337"
       aria-label="HELLO, I AM"
       inkscape:label="Hello I am"
       transform="matrix(1.014262,0,0,1.014262,-1.4262776,-1.426202)" />
  </g>
  <g
     inkscape:label="Dwgs.User"
     inkscape:groupmode="layer"
     id="g9"
     style="display:inline">
    <path
       id="path22-0"
       d="m 93.352316,93.106393 c -2.101059,3.029183 -5.742207,9.689327 -7.006918,13.208077 -0.571159,1.58088 -0.254975,2.47841 0.101891,2.86599 0.204029,0.23462 0.30597,0.20403 0.418174,-0.0511 1.886865,-4.23271 4.722258,-9.230371 6.323556,-12.04536 1.111726,-1.958264 1.142318,-3.202572 0.775139,-3.947119 -0.15296,-0.316184 -0.387557,-0.367179 -0.61194,-0.03059 z m 0.27792,10.750037 c 2.305039,-1.49929 5.20164,-4.599869 5.997182,-7.782062 0.316184,-1.213692 0.152961,-2.162244 -0.591562,-2.835393 -0.367179,-0.336562 -0.724144,-0.285567 -1.111726,0.122368 -2.631412,2.743617 -5.579008,7.425097 -6.537749,11.922967 -0.591538,2.7844 0.356989,4.02873 2.141865,4.0797 2.070467,0.0511 3.957332,-2.09084 4.314297,-2.86598 0.285592,-0.62216 0.387557,-1.19332 0.265189,-1.6013 -0.101891,-0.36718 -0.387582,-0.33656 -0.571184,0 -1.009711,1.98888 -2.814989,3.84515 -4.059297,3.74314 -1.162722,-0.10189 -0.87713,-2.24383 0.15296,-4.78347 z m 0.469169,-1.11171 c 0.183552,-0.40798 0.387582,-0.82615 0.622154,-1.23411 1.784875,-3.31478 3.692143,-6.180765 4.02873,-5.976785 0.336562,0.214145 -1.111726,4.34489 -4.650884,7.210895 z m 3.954766,2.03985 c -0.03059,-0.20402 -0.03059,-0.40798 -0.05107,-0.61196 -0.03059,-0.41817 -0.234621,-0.52016 -0.540567,-0.26519 -0.887343,0.72417 -0.958741,2.42743 -0.336587,3.59015 0.877154,1.61149 2.325443,1.99907 3.824753,1.94808 1.83587,-0.0817 3.59015,-1.06073 4.56927,-2.84561 0.43858,-0.80575 0.46917,-1.4789 0.36718,-1.70329 -0.11225,-0.21414 -0.36718,-0.28556 -0.49976,0 -0.64256,1.38711 -1.72369,2.93741 -3.45757,3.59016 0.92815,-0.62216 1.11172,-1.70327 1.16272,-2.713 0.0817,-1.78488 -0.41818,-3.80435 -0.23462,-6.180787 0.10189,-0.183552 0.18355,-0.336562 0.28556,-0.489547 0.33659,-0.591562 0.46917,-0.877154 0.20403,-1.142343 -0.23462,-0.224507 -0.82613,-0.122368 -1.39729,0.387582 -0.54057,0.499761 -0.79554,0.989333 -0.92812,1.999065 -0.74455,1.31571 -1.907273,2.9986 -2.968004,4.43669 z m 2.917009,-2.78442 c 0.10189,2.06028 0.48957,6.11958 -0.69356,6.48676 -0.856748,0.255 -1.601295,-0.80573 -1.988852,-2.30504 0.979119,-1.3973 1.937862,-2.81499 2.682412,-4.18172 z m 6.20627,2.61104 c 1.81546,1.46869 3.53915,0.79554 4.80386,-0.75476 1.09133,-1.31571 1.29531,-2.89661 0.83633,-3.50855 -0.41815,-0.571155 -0.88732,-0.958737 -1.52988,-1.346319 -1.29533,-0.754736 -3.92674,0.591562 -5.60962,3.926739 -1.68286,3.33515 -0.54055,6.56834 2.74361,6.51735 1.98886,-0.0306 3.97774,-1.22393 5.05885,-2.79461 0.46917,-0.67315 0.55075,-1.3973 0.44876,-1.60128 -0.11225,-0.23462 -0.31618,-0.23462 -0.44876,-0.0306 -1.11173,1.70326 -2.99859,3.77373 -5.14043,3.67174 -1.3667,-0.0817 -1.98888,-1.70329 -1.16272,-4.07972 z m 0.23462,-0.57116 c 0.0511,-0.13273 0.13273,-0.28559 0.20403,-0.43858 1.21374,-2.45802 3.36577,-4.008327 3.90633,-3.56975 0.35697,0.28559 -0.20403,1.63189 -1.04032,2.71302 -0.74455,0.98931 -1.80528,2.09085 -3.06999,1.29531 z m 0,0"
       style="display:inline;fill:#010101;fill-opacity:1;fill-rule:nonzero;stroke:none;stroke-width:0.870337"
       aria-label="Ilse"
       inkscape:label="sample_name"
       transform="matrix(1.014262,0,0,1.014262,-1.4262776,-1.426202)" />
    <g
       id="g13"
       transform="matrix(1.014262,0,0,1.014262,-1.1469671,-1.426202)"
       inkscape:label="holes">
      <circle
         style="fill:none;stroke:#1d1d1b;stroke-width:0.1;stroke-dasharray:none;stroke-opacity:1"
         id="path11"
         cx="147.85716"
         cy="43.477329"
         r="3.5999999"
         inkscape:label="right_hole" />
      <circle
         style="fill:none;stroke:#1d1d1b;stroke-width:0.1;stroke-dasharray:none;stroke-opacity:1"
         id="path11-2"
         cx="51.592072"
         cy="43.477348"
         r="3.5999999"
         inkscape:label="left_hole" />
    </g>
  </g>
  <g
     inkscape:label="Drill"
     inkscape:groupmode="layer"
     id="g10"
     style="display:inline" />
</svg>
